<?xml version="1.0" encoding="utf-8"?>
<!-- Generator: Adobe Illustrator 15.0.1, SVG Export Plug-In . SVG Version: 6.00 Build 0)  -->
<!DOCTYPE svg PUBLIC "-//W3C//DTD SVG 1.1//EN" "http://www.w3.org/Graphics/SVG/1.1/DTD/svg11.dtd">
<svg version="1.1" id="Layer_1" xmlns="http://www.w3.org/2000/svg" xmlns:xlink="http://www.w3.org/1999/xlink" x="0px" y="0px"
	 width="222px" height="24px" viewBox="0 0 222 24" enable-background="new 0 0 222 24" xml:space="preserve">
<g>
	<path fill="#FFFFFF" d="M8.176,20.978L9.868,21.4v0.282h-5.78V21.4l1.692-0.423V2.511h-2.96c0,0.79-0.16,1.522-0.479,2.199
		c-0.32,0.677-0.724,1.259-1.212,1.748H0.846C0.864,6.214,0.883,5.96,0.902,5.697c0.019-0.226,0.037-0.465,0.056-0.719
		c0.019-0.253,0.028-0.512,0.028-0.775c0-0.356-0.01-0.671-0.028-0.944C0.939,2.986,0.921,2.746,0.902,2.539
		C0.883,2.313,0.864,2.116,0.846,1.947H13.11c-0.038,0.169-0.066,0.367-0.085,0.592c-0.019,0.207-0.033,0.447-0.042,0.719
		c-0.01,0.273-0.014,0.588-0.014,0.944c0,0.264,0.004,0.522,0.014,0.775c0.009,0.254,0.023,0.494,0.042,0.719
		c0.019,0.263,0.047,0.517,0.085,0.761h-0.282c-0.489-0.489-0.893-1.071-1.212-1.748c-0.32-0.677-0.479-1.41-0.479-2.199h-2.96
		V20.978z"/>
	<path fill="#FFFFFF" d="M20.44,1.947c1.203,0,2.246,0.132,3.13,0.395c0.883,0.263,1.616,0.62,2.199,1.071
		c0.582,0.451,1.015,0.973,1.297,1.564c0.282,0.592,0.423,1.227,0.423,1.903c0,0.545-0.08,1.029-0.24,1.452
		c-0.16,0.423-0.367,0.799-0.62,1.127c-0.254,0.329-0.55,0.606-0.888,0.832c-0.338,0.225-0.677,0.414-1.015,0.563
		c-0.808,0.357-1.72,0.583-2.735,0.677c0.827,0.094,1.579,0.292,2.256,0.592c0.582,0.263,1.127,0.648,1.635,1.156
		c0.507,0.507,0.808,1.193,0.902,2.058l0.564,4.934c0.038,0.357,0.122,0.611,0.254,0.762c0.131,0.15,0.282,0.226,0.451,0.226
		c0.094,0,0.192-0.032,0.296-0.099c0.103-0.065,0.202-0.146,0.296-0.24c0.094-0.094,0.179-0.216,0.254-0.366l0.282,0.282
		c-0.113,0.244-0.272,0.461-0.479,0.648c-0.169,0.15-0.391,0.291-0.663,0.423c-0.273,0.131-0.597,0.197-0.973,0.197
		c-0.639,0-1.161-0.184-1.565-0.55c-0.404-0.366-0.634-0.794-0.691-1.283l-0.563-4.934c-0.076-0.639-0.198-1.179-0.367-1.621
		c-0.169-0.441-0.399-0.804-0.691-1.085s-0.663-0.488-1.114-0.62c-0.451-0.131-0.996-0.197-1.635-0.197h-1.127v9.163l1.691,0.423
		v0.282h-5.78V21.4l1.692-0.423V2.652l-1.692-0.423V1.947H20.44z M24.811,6.881c0-1.41-0.376-2.49-1.127-3.242
		c-0.752-0.752-1.833-1.128-3.243-1.128h-1.127v8.74h1.127c1.41,0,2.491-0.376,3.243-1.128C24.435,9.372,24.811,8.291,24.811,6.881z
		"/>
	<path fill="#FFFFFF" d="M43.136,16.044c0,2.124-0.437,3.665-1.311,4.624c-0.874,0.958-2.129,1.438-3.764,1.438
		c-1.917,0-3.407-0.531-4.469-1.593C32.531,19.451,32,17.961,32,16.044V2.652l-1.692-0.423V1.947h5.78v0.282l-1.691,0.423v13.392
		c0,1.898,0.375,3.289,1.127,4.173s1.692,1.325,2.819,1.325c0.639,0,1.217-0.108,1.734-0.324c0.517-0.216,0.958-0.55,1.325-1.001
		c0.367-0.451,0.653-1.02,0.86-1.706c0.207-0.686,0.31-1.509,0.31-2.467V2.934L40.74,2.229V1.947h4.229v0.282l-1.833,0.705V16.044z"
		/>
	<path fill="#FFFFFF" d="M48.352,5.612c0,0.771,0.225,1.433,0.676,1.987c0.451,0.555,1.015,1.067,1.692,1.537
		c0.677,0.47,1.414,0.931,2.213,1.381c0.799,0.451,1.537,0.964,2.213,1.537c0.677,0.574,1.241,1.246,1.692,2.016
		s0.676,1.711,0.676,2.819c0,0.733-0.131,1.419-0.395,2.059c-0.263,0.639-0.634,1.193-1.114,1.663
		c-0.479,0.47-1.048,0.837-1.706,1.1c-0.658,0.263-1.372,0.395-2.143,0.395c-0.715,0-1.325-0.07-1.833-0.211
		c-0.507-0.142-0.93-0.306-1.269-0.494c-0.395-0.206-0.724-0.441-0.987-0.704c-0.15,0.281-0.353,0.545-0.606,0.789
		c-0.254,0.244-0.522,0.404-0.804,0.479h-0.423c0.019-0.264,0.038-0.545,0.056-0.846c0.019-0.244,0.038-0.518,0.057-0.818
		c0.019-0.3,0.028-0.592,0.028-0.874c0-0.319-0.01-0.634-0.028-0.944c-0.019-0.31-0.038-0.597-0.057-0.859
		c-0.019-0.301-0.038-0.593-0.056-0.874h0.423c0.432,1.56,1.057,2.749,1.875,3.566c0.817,0.817,1.931,1.227,3.341,1.227
		c1.128,0,2.044-0.362,2.749-1.086c0.705-0.724,1.057-1.724,1.057-3.003c0-0.771-0.226-1.433-0.677-1.987
		c-0.451-0.554-1.015-1.066-1.691-1.536s-1.415-0.931-2.213-1.382s-1.537-0.963-2.213-1.537c-0.677-0.573-1.241-1.245-1.692-2.016
		c-0.451-0.771-0.677-1.71-0.677-2.819c0-0.639,0.122-1.24,0.367-1.804c0.244-0.564,0.583-1.057,1.015-1.48
		c0.432-0.423,0.939-0.756,1.522-1c0.582-0.244,1.212-0.367,1.889-0.367c0.564,0,1.062,0.075,1.495,0.226
		c0.432,0.151,0.798,0.31,1.1,0.479c0.338,0.207,0.648,0.441,0.93,0.705c0.15-0.282,0.353-0.545,0.606-0.79
		c0.254-0.244,0.522-0.404,0.804-0.479h0.423c-0.038,0.282-0.066,0.564-0.084,0.846c-0.019,0.263-0.033,0.541-0.042,0.832
		c-0.009,0.292-0.014,0.578-0.014,0.86c0,0.32,0.005,0.635,0.014,0.945s0.023,0.597,0.042,0.86c0.019,0.301,0.047,0.592,0.084,0.874
		h-0.423c-0.433-1.56-1.034-2.749-1.804-3.566c-0.771-0.818-1.72-1.227-2.848-1.227c-0.921,0-1.692,0.32-2.312,0.958
		C48.662,3.686,48.352,4.541,48.352,5.612z"/>
	<path fill="#FFFFFF" d="M66.255,20.978l1.691,0.423v0.282h-5.78V21.4l1.692-0.423V2.511h-2.96c0,0.79-0.16,1.522-0.479,2.199
		c-0.32,0.677-0.724,1.259-1.212,1.748h-0.282c0.019-0.244,0.038-0.498,0.057-0.761C59,5.471,59.019,5.231,59.038,4.978
		c0.019-0.253,0.028-0.512,0.028-0.775c0-0.356-0.01-0.671-0.028-0.944C59.019,2.986,59,2.746,58.981,2.539
		c-0.019-0.226-0.038-0.423-0.057-0.592h12.265c-0.038,0.169-0.066,0.367-0.085,0.592c-0.019,0.207-0.033,0.447-0.042,0.719
		c-0.01,0.273-0.014,0.588-0.014,0.944c0,0.264,0.004,0.522,0.014,0.775c0.009,0.254,0.023,0.494,0.042,0.719
		c0.019,0.263,0.047,0.517,0.085,0.761h-0.282c-0.489-0.489-0.893-1.071-1.212-1.748c-0.32-0.677-0.479-1.41-0.479-2.199h-2.96
		V20.978z"/>
</g>
<g>
	<path fill="#FFFFFF" d="M107.135,21.683V21.4l1.692-0.423V2.652l-1.692-0.423V1.947h5.075c0.883,0,1.649,0.099,2.298,0.296
		c0.648,0.198,1.188,0.47,1.621,0.818c0.432,0.348,0.756,0.752,0.973,1.212c0.216,0.46,0.324,0.954,0.324,1.48
		c0,0.414-0.062,0.78-0.184,1.1c-0.122,0.32-0.281,0.597-0.479,0.832c-0.197,0.235-0.423,0.442-0.676,0.621
		c-0.254,0.179-0.513,0.324-0.775,0.437c-0.62,0.282-1.325,0.46-2.115,0.536c1.166,0.113,2.199,0.404,3.102,0.874
		c0.395,0.207,0.775,0.456,1.142,0.747c0.367,0.292,0.695,0.648,0.987,1.071c0.291,0.423,0.525,0.912,0.705,1.466
		c0.178,0.555,0.268,1.189,0.268,1.903c0,0.884-0.169,1.711-0.508,2.481c-0.338,0.771-0.822,1.442-1.452,2.016
		s-1.386,1.024-2.27,1.354s-1.87,0.493-2.96,0.493H107.135z M111.223,8.995h0.987c0.846-0.018,1.526-0.296,2.044-0.832
		c0.517-0.536,0.775-1.339,0.775-2.411s-0.259-1.879-0.775-2.425c-0.518-0.545-1.198-0.817-2.044-0.817h-0.987V8.995z
		 M111.223,9.559v11.56h0.987c0.639,0,1.23-0.122,1.776-0.367c0.545-0.244,1.02-0.61,1.424-1.1c0.403-0.488,0.723-1.09,0.958-1.804
		c0.235-0.715,0.353-1.551,0.353-2.51c0-0.958-0.117-1.795-0.353-2.509c-0.235-0.714-0.555-1.315-0.958-1.804
		c-0.404-0.489-0.879-0.855-1.424-1.1c-0.546-0.244-1.138-0.367-1.776-0.367H111.223z"/>
	<path fill="#FFFFFF" d="M128.985,15.903h-5.78l-1.409,4.793l1.832,0.704v0.282h-4.229V21.4l1.832-0.704l5.498-19.172h0.423
		l5.921,19.454l1.691,0.423v0.282h-5.921V21.4l1.692-0.423L128.985,15.903z M123.347,15.367h5.469l-2.819-9.332L123.347,15.367z"/>
	<path fill="#FFFFFF" d="M139.558,21.119h5.075c0-0.79,0.159-1.522,0.479-2.199c0.319-0.677,0.724-1.26,1.212-1.748h0.282
		c-0.038,0.244-0.066,0.498-0.085,0.761c-0.019,0.226-0.032,0.471-0.042,0.733c-0.01,0.264-0.014,0.517-0.014,0.761
		c0,0.357,0.004,0.673,0.014,0.945s0.023,0.512,0.042,0.719c0.019,0.226,0.047,0.423,0.085,0.592H135.47V21.4l1.691-0.423V2.652
		l-1.691-0.423V1.947h5.78v0.282l-1.692,0.423V21.119z"/>
	<path fill="#FFFFFF" d="M156.896,15.903h-5.78l-1.409,4.793l1.832,0.704v0.282h-4.229V21.4l1.832-0.704l5.498-19.172h0.423
		l5.921,19.454l1.691,0.423v0.282h-5.921V21.4l1.692-0.423L156.896,15.903z M151.258,15.367h5.469l-2.819-9.332L151.258,15.367z"/>
	<path fill="#FFFFFF" d="M175.081,2.934l-1.832-0.705V1.947h4.229v0.282l-1.832,0.705v19.031h-0.423l-9.586-17.622v16.353
		l1.832,0.704v0.282h-4.229V21.4l1.832-0.704V2.792l-1.832-0.563V1.947h3.806l8.035,14.802V2.934z"/>
	<path fill="#FFFFFF" d="M186.641,2.088c-0.526,0-1.043,0.15-1.551,0.451c-0.507,0.301-0.958,0.822-1.354,1.564
		c-0.395,0.743-0.714,1.739-0.958,2.989c-0.245,1.25-0.366,2.824-0.366,4.723c0,1.899,0.121,3.472,0.366,4.722
		c0.244,1.25,0.573,2.246,0.986,2.988c0.413,0.743,0.893,1.265,1.438,1.565c0.545,0.301,1.118,0.451,1.72,0.451
		c0.488,0,0.986-0.132,1.494-0.396c0.508-0.263,0.973-0.629,1.396-1.099s0.78-1.024,1.071-1.664c0.291-0.639,0.475-1.325,0.55-2.058
		h0.423c-0.075,0.846-0.264,1.621-0.563,2.325c-0.301,0.705-0.682,1.316-1.142,1.833c-0.461,0.518-0.992,0.916-1.594,1.198
		s-1.24,0.423-1.917,0.423c-0.884,0-1.738-0.211-2.565-0.635c-0.827-0.423-1.564-1.062-2.213-1.917
		c-0.648-0.854-1.166-1.926-1.551-3.214c-0.386-1.287-0.578-2.796-0.578-4.525c0-1.729,0.192-3.238,0.578-4.525
		c0.385-1.287,0.893-2.358,1.522-3.214c0.629-0.855,1.339-1.495,2.128-1.917c0.79-0.423,1.589-0.634,2.396-0.634
		c0.451,0,0.86,0.075,1.227,0.226c0.367,0.151,0.682,0.32,0.944,0.507c0.301,0.207,0.564,0.442,0.79,0.705
		c0.15-0.282,0.353-0.55,0.606-0.804c0.253-0.253,0.521-0.418,0.803-0.493h0.423c-0.037,0.282-0.065,0.564-0.084,0.846
		c-0.02,0.263-0.033,0.541-0.042,0.832c-0.01,0.292-0.015,0.578-0.015,0.86c0,0.32,0.005,0.635,0.015,0.945
		c0.009,0.31,0.022,0.597,0.042,0.86c0.019,0.301,0.047,0.592,0.084,0.874h-0.423c-0.433-1.56-1.01-2.749-1.733-3.566
		C188.271,2.497,187.486,2.088,186.641,2.088z"/>
	<path fill="#FFFFFF" d="M203.416,21.119c0-0.79,0.159-1.522,0.479-2.199s0.724-1.26,1.213-1.748h0.281
		c-0.037,0.244-0.065,0.498-0.084,0.761c-0.02,0.226-0.033,0.471-0.042,0.733c-0.01,0.264-0.015,0.517-0.015,0.761
		c0,0.357,0.005,0.673,0.015,0.945c0.009,0.272,0.022,0.512,0.042,0.719c0.019,0.226,0.047,0.423,0.084,0.592h-11.7V21.4
		l1.691-0.423V2.652l-1.691-0.423V1.947h11.419c-0.038,0.169-0.066,0.367-0.085,0.592c-0.019,0.207-0.033,0.447-0.042,0.719
		c-0.01,0.273-0.015,0.588-0.015,0.944c0,0.264,0.005,0.522,0.015,0.775c0.009,0.254,0.023,0.494,0.042,0.719
		c0.019,0.263,0.047,0.517,0.085,0.761h-0.282c-0.489-0.489-0.893-1.071-1.212-1.748c-0.32-0.677-0.479-1.41-0.479-2.199h-5.357
		v8.458h2.679l1.269-2.537h0.282v5.639h-0.282l-1.269-2.538h-2.679v9.586H203.416z"/>
	<path fill="#FFFFFF" d="M213.142,1.947c1.203,0,2.246,0.132,3.13,0.395c0.883,0.263,1.616,0.62,2.199,1.071
		c0.582,0.451,1.015,0.973,1.297,1.564c0.282,0.592,0.423,1.227,0.423,1.903c0,0.545-0.08,1.029-0.24,1.452
		c-0.159,0.423-0.366,0.799-0.62,1.127c-0.253,0.329-0.55,0.606-0.888,0.832c-0.339,0.225-0.677,0.414-1.015,0.563
		c-0.809,0.357-1.721,0.583-2.735,0.677c0.827,0.094,1.579,0.292,2.256,0.592c0.582,0.263,1.128,0.648,1.635,1.156
		c0.508,0.507,0.809,1.193,0.902,2.058l0.564,4.934c0.037,0.357,0.121,0.611,0.253,0.762s0.282,0.226,0.451,0.226
		c0.094,0,0.192-0.032,0.296-0.099c0.104-0.065,0.202-0.146,0.297-0.24c0.094-0.094,0.178-0.216,0.253-0.366l0.282,0.282
		c-0.112,0.244-0.272,0.461-0.479,0.648c-0.169,0.15-0.39,0.291-0.662,0.423c-0.272,0.131-0.597,0.197-0.973,0.197
		c-0.64,0-1.161-0.184-1.564-0.55c-0.405-0.366-0.635-0.794-0.691-1.283l-0.563-4.934c-0.075-0.639-0.197-1.179-0.367-1.621
		c-0.169-0.441-0.399-0.804-0.69-1.085c-0.292-0.282-0.662-0.488-1.113-0.62c-0.451-0.131-0.997-0.197-1.636-0.197h-1.128v9.163
		l1.692,0.423v0.282h-5.78V21.4l1.691-0.423V2.652l-1.691-0.423V1.947H213.142z M217.512,6.881c0-1.41-0.376-2.49-1.128-3.242
		s-1.832-1.128-3.242-1.128h-1.128v8.74h1.128c1.41,0,2.49-0.376,3.242-1.128C217.136,9.372,217.512,8.291,217.512,6.881z"/>
</g>
<polygon fill="#FFFFFF" points="80.025,20.12 76.227,20.122 76.227,5.468 80.025,5.464 "/>
<path fill="#FFFFFF" d="M83.129,7.089c0,0-1.396,1.557-0.22,2.644c1.177,1.085,5.654-1.03,5.654-1.03s7.207,2.52,7.765,4.091
	c0.214,0.602-0.305,1.25-0.667,1.34c-0.249,0.063-0.961,0.063-0.961,0.063c-0.294,0.039-0.316,0.182-0.316,0.182
	s0.532,0.768,0.514,1.147c-0.016,0.373-0.407,0.525-0.407,0.525s-0.885,0.067-1.188,0.102c-0.189,0.022-0.231,0.216-0.231,0.216
	c0.065,0.206,0.213,0.506,0.181,0.68c-0.118,0.644-0.815,0.723-0.815,0.723s-0.601-0.064-0.864-0.024
	c-0.169,0.029-0.266,0.203-0.266,0.203c0.052,0.223,0.332,0.52,0.317,0.713c-0.022,0.281-0.526,0.694-0.781,0.815
	c-0.277,0.132-1.221,0.103-1.221,0.103s-5.259-1.188-7.058-2.307c-0.567-0.354-1.796,0.361-1.796,0.361V7.05L83.129,7.089z"/>
<path fill="#FFFFFF" d="M90.129,4.38c0,0-6.796,2.466-6.887,3.733c0,0-0.124,1.593,1.732,1.323c0,0,2.487-0.806,3.515-1.32
	c0.855-0.428,6.75,2.392,7.636,3.084c1.243,0.973,0.451,2.069,1.802,3.222V6.721c0,0-3.387-2.272-4.404-2.646
	C92.5,3.699,91.442,3.883,90.129,4.38z"/>
<polygon fill="#FFFFFF" points="102.639,20.12 98.84,20.122 98.84,5.468 102.639,5.464 "/>
</svg>
