<?xml version="1.0" encoding="utf-8"?>
<!-- Generator: Adobe Illustrator 18.1.0, SVG Export Plug-In . SVG Version: 6.00 Build 0)  -->
<svg version="1.1" id="Icons" xmlns="http://www.w3.org/2000/svg" xmlns:xlink="http://www.w3.org/1999/xlink" x="0px" y="0px"
	 viewBox="419.1 14.8 766.5 766.5" enable-background="new 419.1 14.8 766.5 766.5" xml:space="preserve">
<circle fill="#141414" cx="802.3" cy="398" r="383.2"/>
<path id="Facebook" display="none" fill="#FFFFFF" d="M798.6,245.2c0,14.7,0,79.4,0,79.4h-58.3v97.3h58.3V710h119.1V421.9h80
	c0,0,7.7-46.7,10.9-97.3c-10.2,0-90.9,0-90.9,0s0-56.3,0-66.6c0-9.6,12.8-23,25.6-23s39.7,0,65.3,0c0-13.4,0-58.9,0-101.2
	c-33.3,0-71.7,0-88.4,0C795.4,133.8,798.6,231.1,798.6,245.2z"/>
<path id="LinkedIn" display="none" fill="#FFFFFF" d="M1090,456.8v170.8h-99v-159c0-40-14.4-67.2-50.3-67.2
	c-27.2,0-43.6,18.5-50.8,36.4c-2.6,6.2-3.1,15.4-3.1,24.1v165.7h-99c0,0,1.5-269.8,0-297.5h99v42.1c0,0.5-0.5,0.5-0.5,1h0.5v-1
	c13.3-20,36.4-49.2,89.2-49.2C1041.3,322.9,1090,365.5,1090,456.8z M684.3,186.5c-33.8,0-55.9,22.1-55.9,51.3
	c0,28.7,21.5,51.3,54.9,51.3h0.5c34.4,0,55.9-23.1,55.9-51.3C739.2,208.5,718.2,186.5,684.3,186.5z M634,627.6h99V330.1h-99V627.6z"
	/>
<path id="Twitter__x28_alt_x29_" fill="#FFFFFF" d="M1035.2,375.9c33.1-2.6,55.2-17.5,63.7-37.7c-11.7,7.1-48.7,14.9-68.9,7.8
	c-1.3-4.5-1.9-9.1-3.2-13.6c-15.6-57.2-68.2-102.7-124.1-97.5c4.5-1.9,9.1-3.2,13.6-5.2c5.8-1.9,42.2-7.8,36.4-20.8
	c-4.5-11-48.7,8.4-56.5,11c11-3.9,28.6-11,30.5-23.4c-16.9,2.6-33.1,10.4-45.5,21.4c4.5-5.2,7.8-11,8.4-17.5
	c-44.2,28.6-70.2,86.4-91.6,141.7c-16.2-16.2-31.2-28.6-44.2-35.7c-37-19.5-80.6-40.3-150.1-66.3c-1.9,22.7,11,53.3,50,73.4
	c-8.4-1.3-24,1.3-35.7,4.5c5.2,26,21.4,48.1,65.6,58.5c-20.1,1.3-30.5,5.8-40.3,15.6c9.1,18.2,31.8,39.6,72.1,35.1
	c-44.8,19.5-18.2,55.2,18.2,50c-62.4,64.3-160.5,59.8-217.1,5.8c147.5,200.8,467.3,118.9,515.4-74.1c35.7,0,56.5-12.3,69.5-26.6
	C1080.7,385.7,1050.8,382.4,1035.2,375.9z"/>
<g display="none">
	<path display="inline" fill="#FFFFFF" d="M1058.7,243.4H949.9v53.3c-28.4-32.7-69.6-53.3-115.8-53.3H670.6L489.4,552.6h123
		l39.1-66.8h81v66.8h100.9c46.9,0,88.1-20.6,115.8-53.3v53.3h105.2v-66.8h4.3c66.8,0,121.5-54,121.5-121.5
		S1126.2,243.4,1058.7,243.4L1058.7,243.4z M1058.7,447.4H1016v66.8h-28.4v-66.8h-49c-18.5,39.8-59,66.1-105.2,66.1h-62.5v-66.8H628
		l-39.1,66.8h-31.3l136.5-231.7h139.3c59,0,107.3,42.6,115.1,98.8h39.1v-99.5h71.1c46.2,0,83.2,37,83.2,83.2
		C1141.8,410.4,1104.9,447.4,1058.7,447.4L1058.7,447.4z"/>
	<path display="inline" fill="#FFFFFF" d="M833.4,309.5h-34.1v37.7h34.1c27.7,0,50.5,22.7,50.5,50.5s-22.7,49.7-50.5,49.7
		c0,0-34.1-0.7-34.1,0s0,38.4,0,38.4h34.1c48.3,0,88.1-39.1,88.1-88.1C921.5,349.3,881.7,309.5,833.4,309.5L833.4,309.5z"/>
	<path display="inline" fill="#FFFFFF" d="M1058.7,309.5H1016v37.7h42.6c9.2,0,16.3,7.1,16.3,16.3c0,9.2-7.1,16.3-16.3,16.3H1016
		v37.7h42.6c29.8,0,54.7-24.2,54.7-54.7C1113.4,334.4,1089.2,309.5,1058.7,309.5L1058.7,309.5z"/>
	<polygon display="inline" fill="#FFFFFF" points="732.5,380.6 666.4,380.6 644.3,419 770.1,419 770.1,309.5 732.5,309.5 	"/>
</g>
</svg>
