<?xml version="1.0" encoding="utf-8"?>
<!-- Generator: Adobe Illustrator 18.1.0, SVG Export Plug-In . SVG Version: 6.00 Build 0)  -->
<svg version="1.1" id="Icons" xmlns="http://www.w3.org/2000/svg" xmlns:xlink="http://www.w3.org/1999/xlink" x="0px" y="0px"
	 viewBox="419.1 14.8 766.5 766.5" enable-background="new 419.1 14.8 766.5 766.5" xml:space="preserve">
<circle fill="#141414" cx="802.3" cy="398" r="383.2"/>
<path id="Facebook" display="none" fill="#FFFFFF" d="M798.6,245.2c0,14.7,0,79.4,0,79.4h-58.3v97.3h58.3V710h119.1V421.9h80
	c0,0,7.7-46.7,10.9-97.3c-10.2,0-90.9,0-90.9,0s0-56.3,0-66.6c0-9.6,12.8-23,25.6-23s39.7,0,65.3,0c0-13.4,0-58.9,0-101.2
	c-33.3,0-71.7,0-88.4,0C795.4,133.8,798.6,231.1,798.6,245.2z"/>
<path id="LinkedIn" display="none" fill="#FFFFFF" d="M1090,456.8v170.8h-99v-159c0-40-14.4-67.2-50.3-67.2
	c-27.2,0-43.6,18.5-50.8,36.4c-2.6,6.2-3.1,15.4-3.1,24.1v165.7h-99c0,0,1.5-269.8,0-297.5h99v42.1c0,0.5-0.5,0.5-0.5,1h0.5v-1
	c13.3-20,36.4-49.2,89.2-49.2C1041.3,322.9,1090,365.5,1090,456.8z M684.3,186.5c-33.8,0-55.9,22.1-55.9,51.3
	c0,28.7,21.5,51.3,54.9,51.3h0.5c34.4,0,55.9-23.1,55.9-51.3C739.2,208.5,718.2,186.5,684.3,186.5z M634,627.6h99V330.1h-99V627.6z"
	/>
<path id="Twitter__x28_alt_x29_" display="none" fill="#FFFFFF" d="M1035.2,375.9c33.1-2.6,55.2-17.5,63.7-37.7
	c-11.7,7.1-48.7,14.9-68.9,7.8c-1.3-4.5-1.9-9.1-3.2-13.6c-15.6-57.2-68.2-102.7-124.1-97.5c4.5-1.9,9.1-3.2,13.6-5.2
	c5.8-1.9,42.2-7.8,36.4-20.8c-4.5-11-48.7,8.4-56.5,11c11-3.9,28.6-11,30.5-23.4c-16.9,2.6-33.1,10.4-45.5,21.4
	c4.5-5.2,7.8-11,8.4-17.5c-44.2,28.6-70.2,86.4-91.6,141.7c-16.2-16.2-31.2-28.6-44.2-35.7c-37-19.5-80.6-40.3-150.1-66.3
	c-1.9,22.7,11,53.3,50,73.4c-8.4-1.3-24,1.3-35.7,4.5c5.2,26,21.4,48.1,65.6,58.5c-20.1,1.3-30.5,5.8-40.3,15.6
	c9.1,18.2,31.8,39.6,72.1,35.1c-44.8,19.5-18.2,55.2,18.2,50c-62.4,64.3-160.5,59.8-217.1,5.8c147.5,200.8,467.3,118.9,515.4-74.1
	c35.7,0,56.5-12.3,69.5-26.6C1080.7,385.7,1050.8,382.4,1035.2,375.9z"/>
<g display="none">
	<path display="inline" fill="#FFFFFF" d="M1058.7,243.4H949.9v53.3c-28.4-32.7-69.6-53.3-115.8-53.3H670.6L489.4,552.6h123
		l39.1-66.8h81v66.8h100.9c46.9,0,88.1-20.6,115.8-53.3v53.3h105.2v-66.8h4.3c66.8,0,121.5-54,121.5-121.5
		S1126.2,243.4,1058.7,243.4L1058.7,243.4z M1058.7,447.4H1016v66.8h-28.4v-66.8h-49c-18.5,39.8-59,66.1-105.2,66.1h-62.5v-66.8H628
		l-39.1,66.8h-31.3l136.5-231.7h139.3c59,0,107.3,42.6,115.1,98.8h39.1v-99.5h71.1c46.2,0,83.2,37,83.2,83.2
		C1141.8,410.4,1104.9,447.4,1058.7,447.4L1058.7,447.4z"/>
	<path display="inline" fill="#FFFFFF" d="M833.4,309.5h-34.1v37.7h34.1c27.7,0,50.5,22.7,50.5,50.5s-22.7,49.7-50.5,49.7
		c0,0-34.1-0.7-34.1,0s0,38.4,0,38.4h34.1c48.3,0,88.1-39.1,88.1-88.1C921.5,349.3,881.7,309.5,833.4,309.5L833.4,309.5z"/>
	<path display="inline" fill="#FFFFFF" d="M1058.7,309.5H1016v37.7h42.6c9.2,0,16.3,7.1,16.3,16.3c0,9.2-7.1,16.3-16.3,16.3H1016
		v37.7h42.6c29.8,0,54.7-24.2,54.7-54.7C1113.4,334.4,1089.2,309.5,1058.7,309.5L1058.7,309.5z"/>
	<polygon display="inline" fill="#FFFFFF" points="732.5,380.6 666.4,380.6 644.3,419 770.1,419 770.1,309.5 732.5,309.5 	"/>
</g>
<path fill="#FFFFFF" stroke="#231F20" stroke-width="0.5" stroke-linecap="round" stroke-linejoin="round" d="M961.8,206.2
	c-15.4,6-24.3,8.2-31.3,21.3c-7.2,13.3-5.4,36.8-15.6,46.9c-10.8,10.8-43.8,3.8-59.5,11.6c-16.8,8.2-20.2,30.3-27,53.4
	c-5.8,20-8.3,46.5-26,53.4c-11.9,4.6-32.8,4.7-50.9,6.9c-20.4,2.6-45.2,1.6-55.7,10.7c-14.1,12.2-16.7,46.9-21.5,67.6
	c-5.5,23.8-11.3,45.8-15.9,72.4c-14.1-5.7-26-13.7-38.4-21.1c6.4-28.8,15-63,22.7-93.9c4.2-16.6,5.6-33.4,18.3-41.2
	c25.1-15.3,94.9-1.1,113.3-22.3c6.7-7.7,8.7-26,11.7-37.6c6.7-26,9.8-49.9,32.6-58c16.2-5.7,37.1,0.4,51.9-6
	c21.5-9.4,10.8-59.1,37.4-64.6C923.9,202.4,943.5,208.5,961.8,206.2z"/>
<path fill="#FFFFFF" stroke="#231F20" stroke-width="0.5" stroke-linecap="round" stroke-linejoin="round" d="M805.4,204.4
	c-26.7,7.8-24.3,39.8-43,54.2c-10.4,7.9-28.6,1.7-46.3,8.9c-26.9,11-22.4,63.8-46.1,77.7c-27.4,16.1-82.2-3-101.9,21.5
	c-11.3,14.1-14.2,38.7-19.5,56.3c-5.7,19.1-11.9,37.7-17.6,57.3c-10.9-6.1-21.7-12.3-31.8-19.2c8.1-25.4,16.4-49.5,25.3-75.1
	c2.8-8,4.8-17.9,8.8-24.4c19-31.4,85.3-6.3,108.6-27c9.3-8.2,12.4-26.4,18.3-38.4c6.1-12.5,12.9-28.5,22.1-33.7
	c12.9-7.3,36.5-1.3,49-5.1c10-3.1,15.4-18.5,21-28C763.1,211.3,772.2,199.6,805.4,204.4z"/>
<path fill="#FFFFFF" stroke="#231F20" stroke-width="0.5" stroke-linecap="round" stroke-linejoin="round" d="M1073.8,207.5
	c-15.3,6.3-26.6,6.6-34.1,18.4c-10.8,17-4,46.6-15.8,61.1c-17.8,21.9-73.1,0.1-87,28.2c-6,12.2-6.7,35-10,53.6
	c-4.2,23.7-6,44.7-23.2,51.6c-14.3,5.6-36.5,5.1-55.6,7.8c-25.4,3.6-58.2,2-69,19.9c-5.6,9.3-6.6,24.2-8.9,37.6
	c-6.9,39.8-13.9,76.6-21.1,116.5c-19.7-9.9-38.7-20.6-57.1-31.7c3.6-22.7,8.3-48.8,13.1-76.2c4.4-25,6.3-67.3,26.3-75
	c14.8-5.8,39.4-5,59.4-7.8c20.6-2.9,46.4-3.4,59.4-9.7c25.7-12.5,14.9-74.9,31.2-97.6c3.1-4.2,9.4-8.5,13.3-10.2
	c18.4-8.1,44.3-0.4,64.1-6.8c21.4-6.9,17.5-46.1,27.1-66.6C998,195.1,1043.4,209.7,1073.8,207.5z"/>
<path fill="#FFFFFF" stroke="#231F20" stroke-width="0.5" stroke-linecap="round" stroke-linejoin="round" d="M873.2,205.2
	c-7.8,4.1-16.3,8.4-20.9,15.8c-8.2,13.2-9.6,37-25.9,44.9c-19.9,9.7-51.6,0.6-63.3,17.2c-6.4,9.1-8.4,25.6-12.7,39.4
	c-4.7,15.2-8.9,37-18.4,43.1c-11.3,7.2-31.4,3.9-46.2,5.1c-23.6,2-49,2.5-59.5,18.2c-10.7,15.9-12.9,41.4-18.6,62
	c-5.9,21.5-12,42.2-16.7,62.9c-10.6-6-21.4-12-31.8-18.2c7.5-27.9,17.1-59.2,25.5-88.3c5.9-20.4,9.3-38.7,29.7-43.9
	c10.9-2.8,26.8-2.1,41.5-3.3c13-1,29.5-0.3,39.6-4.3c20.2-7.9,22.4-61.5,35.7-78.7c3.6-4.6,10.7-8.8,15.2-10.2
	c12.9-4.2,27.3,1.4,41.5-4.3c11.6-4.6,15.1-24.9,22.1-36.5C821,207.7,839.9,198.9,873.2,205.2z"/>
</svg>
