<?xml version="1.0" encoding="utf-8"?>
<!-- Generator: Adobe Illustrator 16.0.3, SVG Export Plug-In . SVG Version: 6.00 Build 0)  -->
<!DOCTYPE svg PUBLIC "-//W3C//DTD SVG 1.1//EN" "http://www.w3.org/Graphics/SVG/1.1/DTD/svg11.dtd">
<svg version="1.1" id="Layer_1" xmlns="http://www.w3.org/2000/svg" xmlns:xlink="http://www.w3.org/1999/xlink" x="0px" y="0px"
	 width="194.132px" height="35.067px" viewBox="80.993 4.915 194.132 35.067" enable-background="new 80.993 4.915 194.132 35.067"
	 xml:space="preserve">
<g id="Layer_1_1_">
	<g>
		<path fill="#E14E3B" d="M97.729,31.958c0,0,1.534-9.25,1.579-9.473c0.046-0.224,0.288-1.649,1.878-1.793
			c1.321-0.117,7.468-1.066,7.468-1.066s1.464-0.056,1.664-2.219c0.385-2.433,0.769-4.182,0.769-4.182s0.168-1.768,2.386-1.981
			c2.219-0.213,3.204-0.238,3.204-0.238s1.093,0.123,1.622-1.75c0.532-1.884,0.64-2.859,0.64-2.859s0.212-0.963,1.322-1.433
			c1.147-0.083,5.25,0.025,5.25,0.025s-2.561,0.384-2.817,2.091c-0.255,1.707-0.521,2.891-0.521,2.891s-0.076,1.505-2.209,1.633
			c-2.134,0.128-2.476,0.128-2.945,0.256c-0.469,0.128-1.579,0.427-1.75,1.963c-0.171,1.537-0.812,4.908-0.812,4.908
			s-0.17,1.92-1.962,2.134c-1.792,0.213-7.127,1.024-7.127,1.024s-1.409,0.17-1.707,2.091c-0.299,1.92-1.75,10.242-1.75,10.242
			L97.729,31.958z"/>
		<path fill="#E14E3B" d="M92.394,28.973l2.006-8.579c0,0,0.214-1.365,1.92-1.707c1.707-0.341,5.036-0.384,6.316-0.853
			c1.28-0.47,1.195-0.982,1.536-2.134c0.342-1.152,0.769-3.414,1.067-3.969c0.299-0.554,0.939-1.537,2.603-1.665
			c1.665-0.128,2.261-0.213,2.261-0.213s1.11,0.042,1.495-1.622c0.3-1.302,0.683-2.305,0.683-2.305s0.381-0.863,1.109-0.938
			c0.597-0.043,3.969,0,3.969,0s-2.219,0.128-2.731,2.518c-0.609,2.377-0.663,2.458-1.28,2.731
			c-0.729,0.319-1.877,0.256-1.877,0.256s-2.269-0.099-2.988,1.366c-0.768,1.622-1.622,5.505-1.622,5.505s-0.162,1.534-2.347,1.621
			c-2.091,0.257-5.847,0.769-5.847,0.769s-1.09,0.113-1.494,1.578c-0.458,1.668-2.006,9.177-2.006,9.177L92.394,28.973z"/>
		<path fill="#E14E3B" d="M87.913,26.538l2.348-8.362c0,0,0.455-1.324,2.39-1.452c1.705-0.114,4.865-0.47,4.865-0.47
			s0.854,0.086,1.366-1.664c0.512-1.75,1.28-3.755,1.28-3.755s0.384-1.195,2.091-1.323c1.707-0.128,2.005-0.171,2.133-0.214
			c0.128-0.042,0.555,0.085,1.366-1.877c0.811-1.963,1.755-2.273,2.048-2.39c0.257-0.213,3.101-0.067,3.101-0.067
			s-1.351,0.196-1.906,1.646c-0.555,1.452-0.896,2.859-2.475,3.03c-1.579,0.17-2.646,0.341-2.646,0.341s-1.195,0.171-1.58,1.793
			c-0.383,1.622-1.323,4.396-1.323,4.396s-0.171,0.938-1.877,0.981c-1.707,0.043-4.651,0.427-4.651,0.427s-1.537,0.128-2.091,2.005
			c-0.555,1.878-2.134,8.235-2.134,8.235L87.913,26.538z"/>
		<path fill="#E14E3B" d="M83.475,24.063l2.348-7.083c0,0,0.643-1.446,2.432-1.494c1.72-0.045,3.28-0.023,4.695-0.384
			c1.049-0.267,1.323-1.067,1.323-1.067s1.537-3.798,2.134-4.31C96.589,9.568,96.576,9.128,98.71,9
			c1.295-0.078,1.758,0.219,2.432-0.725c0.214-0.299,0.726-1.622,1.366-2.391c0.58-0.695,0.938-0.811,1.237-0.853
			c0.299-0.042,2.091-0.042,2.091-0.042s-1.136,0.395-1.479,1.021c-0.33,0.603-1.167,2.223-1.295,2.351
			c-0.166,0.165-0.171,0.896-1.921,1.024c-1.749,0.128-2.048,0.128-2.773,0.939c-0.725,0.811-0.854,2.902-1.75,4.268
			c-0.576,0.863-0.898,0.998-2.476,1.237c-1.544,0.203-3.926,0.213-4.779,0.598c-0.853,0.384-1.024,0.769-1.323,1.451
			c-0.298,0.684-2.219,7.554-2.219,7.554L83.475,24.063z"/>
		<path fill="none" d="M87.913,26.538"/>
		<g>
			<path fill="#E14E3B" d="M84.276,25.475l-1.891,3.447c-0.217,0.396-0.162,0.801,0.241,1.021c0.44,0.24,0.773,0.052,1.023-0.403
				l1.858-3.388l1.137,0.623l-1.806,3.293c-0.604,1.101-1.542,1.473-2.73,0.82c-1.041-0.572-1.467-1.482-0.783-2.729l1.814-3.306
				L84.276,25.475z"/>
			<path fill="#E14E3B" d="M85.85,31.021c0.264,0.65,0.465,0.942,0.766,1.108c0.271,0.147,0.559,0.076,0.691-0.166
				c0.402-0.731-0.858-2.139-0.189-3.356c0.394-0.719,1.323-0.936,2.137-0.486c0.359,0.195,0.651,0.48,0.924,0.906l-0.515,0.938
				c-0.346-0.552-0.521-0.753-0.771-0.891c-0.271-0.147-0.539-0.113-0.652,0.092c-0.325,0.594,0.896,2.209,0.245,3.396
				c-0.438,0.801-1.392,1.06-2.22,0.605c-0.389-0.215-0.691-0.532-1.007-1.068L85.85,31.021z"/>
			<path fill="#E14E3B" d="M92.11,35.889c-0.482,0.079-0.895-0.004-1.371-0.266c-1.195-0.656-1.492-2.098-0.647-3.637
				c0.869-1.586,2.236-2.18,3.468-1.504c0.389,0.213,0.725,0.521,0.977,0.897l-0.528,0.96c-0.25-0.415-0.448-0.626-0.697-0.764
				c-0.652-0.358-1.421-0.121-2.025,0.979c-0.583,1.063-0.52,1.854,0.185,2.237c0.293,0.161,0.719,0.185,1.175,0.121L92.11,35.889z"
				/>
			<path fill="#E14E3B" d="M95.958,31.884l1.635,0.897c1.026,0.563,1.295,1.464,0.845,2.285c-0.31,0.563-0.756,0.787-1.487,0.711
				c0.311,0.494-0.129,1.713-0.287,3.01l-1.181-0.646l0.244-1.089c0.28-1.258,0.255-1.387-0.222-1.646l-1.158,2.11l-1.137-0.623
				L95.958,31.884z M96.339,34.736c0.381,0.209,0.729,0.132,0.947-0.266c0.217-0.395,0.097-0.68-0.322-0.91l-0.344-0.188
				l-0.64,1.168L96.339,34.736z"/>
			<path fill="#E14E3B" d="M100.453,34.352l1.137,0.623l-2.748,5.008l-1.137-0.623L100.453,34.352z"/>
		</g>
	</g>
</g>
<g id="Layer_2">
	<g>
		<path fill="#231F20" d="M109.681,26.816h4.292v0.863h-3.264v2.649h3.015v0.853h-3.015v3.605h-1.029L109.681,26.816L109.681,26.816
			z"/>
		<path fill="#231F20" d="M122.255,30.72c0,2.744-1.667,4.198-3.702,4.198c-2.105,0-3.583-1.632-3.583-4.044
			c0-2.531,1.573-4.187,3.701-4.187C120.848,26.688,122.255,28.355,122.255,30.72z M116.07,30.852c0,1.701,0.922,3.228,2.542,3.228
			c1.632,0,2.555-1.501,2.555-3.312c0-1.584-0.828-3.24-2.543-3.24C116.921,27.527,116.07,29.1,116.07,30.852z"/>
		<path fill="#231F20" d="M123.596,26.924c0.52-0.105,1.265-0.165,1.975-0.165c1.1,0,1.81,0.201,2.306,0.65
			c0.402,0.354,0.626,0.897,0.626,1.514c0,1.052-0.662,1.75-1.501,2.034v0.035c0.615,0.213,0.981,0.779,1.17,1.607
			c0.26,1.111,0.45,1.881,0.615,2.188h-1.064c-0.13-0.226-0.308-0.91-0.532-1.904c-0.236-1.1-0.662-1.514-1.596-1.549h-0.97v3.453
			h-1.029V26.924z M124.625,30.555h1.052c1.1,0,1.797-0.604,1.797-1.514c0-1.029-0.745-1.479-1.833-1.49
			c-0.497,0-0.851,0.047-1.017,0.096L124.625,30.555L124.625,30.555z"/>
		<path fill="#231F20" d="M132.469,26.924c0.52-0.105,1.265-0.165,1.975-0.165c1.1,0,1.81,0.201,2.306,0.65
			c0.402,0.354,0.626,0.897,0.626,1.514c0,1.052-0.662,1.75-1.501,2.034v0.035c0.615,0.213,0.981,0.779,1.17,1.607
			c0.26,1.111,0.45,1.881,0.615,2.188h-1.064c-0.13-0.226-0.308-0.91-0.532-1.904c-0.236-1.1-0.662-1.514-1.596-1.549h-0.97v3.453
			h-1.029L132.469,26.924L132.469,26.924z M133.498,30.555h1.052c1.1,0,1.797-0.604,1.797-1.514c0-1.029-0.745-1.479-1.833-1.49
			c-0.497,0-0.851,0.047-1.017,0.096L133.498,30.555L133.498,30.555z"/>
		<path fill="#231F20" d="M142.962,31.051h-3.098v2.874h3.453v0.863h-4.48v-7.972h4.305v0.863h-3.275V30.2h3.098L142.962,31.051
			L142.962,31.051z"/>
		<path fill="#231F20" d="M144.656,26.816h4.292v0.863h-3.265v2.649h3.017v0.853h-3.017v3.605h-1.027V26.816L144.656,26.816z"/>
		<path fill="#231F20" d="M151.447,26.816v4.72c0,1.784,0.792,2.542,1.855,2.542c1.184,0,1.939-0.78,1.939-2.542v-4.72h1.04v4.647
			c0,2.448-1.289,3.453-3.017,3.453c-1.632,0-2.861-0.935-2.861-3.405v-4.695H151.447z"/>
		<path fill="#231F20" d="M164.141,34.434c-0.461,0.166-1.373,0.438-2.447,0.438c-1.207,0-2.2-0.308-2.98-1.054
			c-0.686-0.661-1.111-1.727-1.111-2.967c0.012-2.377,1.645-4.115,4.316-4.115c0.922,0,1.645,0.199,1.986,0.365l-0.248,0.84
			c-0.426-0.188-0.958-0.344-1.764-0.344c-1.938,0-3.203,1.207-3.203,3.205c0,2.022,1.218,3.217,3.074,3.217
			c0.674,0,1.135-0.095,1.371-0.213V31.43h-1.619v-0.828h2.625V34.434z"/>
		<path fill="#231F20" d="M169.844,31.051h-3.098v2.874h3.453v0.863h-4.482v-7.972h4.305v0.863h-3.274V30.2h3.099v0.851H169.844z"/>
		<path fill="#231F20" d="M175.665,31.051h-3.099v2.874h3.453v0.863h-4.481v-7.972h4.305v0.863h-3.274V30.2h3.098L175.665,31.051
			L175.665,31.051z"/>
		<path fill="#231F20" d="M177.217,33.534c0.463,0.284,1.137,0.521,1.846,0.521c1.053,0,1.668-0.556,1.668-1.359
			c0-0.744-0.426-1.17-1.502-1.584c-1.302-0.461-2.105-1.137-2.105-2.26c0-1.24,1.029-2.164,2.578-2.164
			c0.816,0,1.406,0.189,1.763,0.392l-0.284,0.839c-0.261-0.143-0.791-0.378-1.514-0.378c-1.088,0-1.502,0.649-1.502,1.194
			c0,0.744,0.484,1.11,1.585,1.537c1.349,0.521,2.033,1.17,2.033,2.342c0,1.229-0.91,2.294-2.79,2.294
			c-0.77,0-1.608-0.226-2.034-0.509L177.217,33.534z"/>
		<path fill="#231F20" d="M186.99,32.281l-0.828,2.507h-1.064l2.709-7.972h1.241l2.72,7.972h-1.1l-0.852-2.507H186.99z
			 M189.604,31.477l-0.779-2.293c-0.178-0.521-0.297-0.994-0.414-1.455h-0.023c-0.117,0.474-0.248,0.959-0.402,1.442l-0.779,2.306
			H189.604z"/>
		<path fill="#231F20" d="M192.941,34.788v-7.972h1.123l2.555,4.033c0.592,0.935,1.053,1.773,1.432,2.59l0.023-0.013
			c-0.096-1.063-0.118-2.032-0.118-3.274v-3.336h0.97v7.972h-1.041l-2.529-4.044c-0.558-0.889-1.088-1.799-1.49-2.661l-0.035,0.012
			c0.059,1.005,0.082,1.964,0.082,3.288v3.405H192.941z"/>
		<path fill="#231F20" d="M200.729,26.924c0.627-0.095,1.371-0.165,2.188-0.165c1.479,0,2.529,0.343,3.229,0.993
			c0.709,0.65,1.123,1.572,1.123,2.861c0,1.301-0.401,2.365-1.146,3.099c-0.745,0.745-1.975,1.147-3.523,1.147
			c-0.732,0-1.349-0.036-1.869-0.096V26.924L200.729,26.924z M201.757,33.973c0.261,0.047,0.64,0.06,1.04,0.06
			c2.2,0,3.395-1.229,3.395-3.382c0.013-1.881-1.053-3.075-3.229-3.075c-0.531,0-0.936,0.048-1.206,0.106V33.973z"/>
		<path fill="#231F20" d="M212.145,26.816v7.972h-1.028v-7.972H212.145z"/>
		<path fill="#231F20" d="M220.66,31.288c-0.059-1.112-0.131-2.448-0.118-3.44h-0.035c-0.271,0.934-0.604,1.928-1.005,3.026
			l-1.406,3.867h-0.781l-1.289-3.798c-0.379-1.123-0.697-2.15-0.922-3.098h-0.023c-0.023,0.993-0.083,2.329-0.154,3.523
			l-0.213,3.418h-0.98l0.556-7.971h1.313l1.358,3.854c0.331,0.981,0.604,1.856,0.806,2.685h0.034
			c0.201-0.805,0.484-1.68,0.841-2.685l1.418-3.854h1.313l0.497,7.971h-1.006L220.66,31.288z"/>
		<path fill="#231F20" d="M230.173,31.288c-0.059-1.112-0.13-2.448-0.118-3.44h-0.035c-0.271,0.934-0.604,1.928-1.004,3.026
			l-1.408,3.867h-0.78l-1.288-3.798c-0.379-1.123-0.698-2.15-0.923-3.098h-0.023c-0.022,0.993-0.083,2.329-0.153,3.523l-0.213,3.418
			h-0.981l0.556-7.971h1.313l1.358,3.854c0.332,0.981,0.604,1.856,0.805,2.685h0.035c0.201-0.805,0.484-1.68,0.84-2.685l1.42-3.854
			h1.313l0.497,7.971h-1.006L230.173,31.288z"/>
		<path fill="#231F20" d="M233.998,26.816v7.972h-1.029v-7.972H233.998z"/>
		<path fill="#231F20" d="M241.863,34.434c-0.461,0.166-1.371,0.438-2.447,0.438c-1.206,0-2.2-0.308-2.98-1.054
			c-0.686-0.661-1.11-1.727-1.11-2.967c0.012-2.377,1.644-4.115,4.315-4.115c0.922,0,1.645,0.199,1.986,0.365l-0.248,0.84
			c-0.426-0.188-0.958-0.344-1.762-0.344c-1.939,0-3.205,1.207-3.205,3.205c0,2.022,1.218,3.217,3.074,3.217
			c0.675,0,1.136-0.095,1.371-0.213V31.43h-1.619v-0.828h2.625V34.434z"/>
		<path fill="#231F20" d="M243.439,26.924c0.521-0.105,1.267-0.165,1.977-0.165c1.1,0,1.809,0.201,2.307,0.65
			c0.401,0.354,0.627,0.897,0.627,1.514c0,1.052-0.662,1.75-1.502,2.034v0.035c0.614,0.213,0.98,0.779,1.17,1.607
			c0.26,1.111,0.449,1.881,0.614,2.188h-1.063c-0.131-0.226-0.308-0.91-0.531-1.904c-0.237-1.1-0.663-1.514-1.598-1.549h-0.969
			v3.453h-1.029v-7.864H243.439z M244.471,30.555h1.053c1.1,0,1.797-0.604,1.797-1.514c0-1.029-0.745-1.479-1.834-1.49
			c-0.495,0-0.852,0.047-1.016,0.096V30.555z"/>
		<path fill="#231F20" d="M251.152,32.281l-0.826,2.507h-1.064l2.709-7.972h1.24l2.721,7.972h-1.101l-0.853-2.507H251.152z
			 M253.768,31.477l-0.781-2.293c-0.176-0.521-0.295-0.994-0.413-1.455h-0.023c-0.118,0.474-0.248,0.959-0.401,1.442l-0.78,2.306
			H253.768z"/>
		<path fill="#231F20" d="M257.105,34.788v-7.972h1.123l2.555,4.033c0.592,0.935,1.053,1.773,1.432,2.59l0.023-0.013
			c-0.096-1.063-0.118-2.032-0.118-3.274v-3.336h0.97v7.972h-1.041l-2.529-4.044c-0.558-0.889-1.088-1.799-1.49-2.661l-0.035,0.012
			c0.059,1.005,0.082,1.964,0.082,3.288v3.405H257.105z"/>
		<path fill="#231F20" d="M266.404,27.691h-2.424v-0.875h5.9v0.875h-2.436v7.097h-1.041V27.691L266.404,27.691z"/>
		<path fill="#231F20" d="M270.561,33.534c0.461,0.284,1.135,0.521,1.844,0.521c1.054,0,1.668-0.556,1.668-1.359
			c0-0.744-0.426-1.17-1.502-1.584c-1.301-0.461-2.104-1.137-2.104-2.26c0-1.24,1.029-2.164,2.578-2.164
			c0.815,0,1.407,0.189,1.763,0.392l-0.283,0.839c-0.262-0.143-0.793-0.378-1.515-0.378c-1.088,0-1.502,0.649-1.502,1.194
			c0,0.744,0.484,1.11,1.584,1.537c1.349,0.521,2.034,1.17,2.034,2.342c0,1.229-0.91,2.294-2.791,2.294
			c-0.77,0-1.607-0.226-2.033-0.509L270.561,33.534z"/>
	</g>
	<g>
		<path fill="#231F20" d="M128.021,8.79v8.767c0,3.318,1.472,4.724,3.45,4.724c2.197,0,3.604-1.45,3.604-4.724V8.79h1.934v8.635
			c0,4.548-2.395,6.417-5.603,6.417c-3.032,0-5.317-1.736-5.317-6.329V8.79H128.021z"/>
		<path fill="#231F20" d="M139.206,22.457c0-0.813,0.549-1.385,1.318-1.385s1.296,0.572,1.296,1.385
			c0,0.791-0.505,1.385-1.318,1.385C139.733,23.842,139.206,23.248,139.206,22.457z"/>
		<path fill="#231F20" d="M144.018,21.271c0.856,0.527,2.109,0.967,3.428,0.967c1.955,0,3.099-1.032,3.099-2.526
			c0-1.385-0.791-2.176-2.79-2.945c-2.417-0.857-3.911-2.109-3.911-4.197c0-2.307,1.911-4.021,4.79-4.021
			c1.516,0,2.614,0.352,3.273,0.725l-0.527,1.56c-0.482-0.264-1.472-0.703-2.813-0.703c-2.021,0-2.791,1.208-2.791,2.219
			c0,1.384,0.9,2.065,2.945,2.856c2.504,0.967,3.778,2.175,3.778,4.351c0,2.285-1.692,4.263-5.187,4.263
			c-1.429,0-2.987-0.418-3.778-0.944L144.018,21.271z"/>
		<path fill="#231F20" d="M154.587,22.457c0-0.813,0.55-1.385,1.317-1.385c0.77,0,1.297,0.572,1.297,1.385
			c0,0.791-0.506,1.385-1.318,1.385C155.113,23.842,154.587,23.248,154.587,22.457z"/>
		<path fill="#231F20" d="M174.67,23.116c-0.703,0.352-2.109,0.702-3.911,0.702c-4.175,0-7.317-2.636-7.317-7.492
			c0-4.636,3.144-7.778,7.734-7.778c1.846,0,3.012,0.396,3.516,0.659l-0.461,1.56c-0.726-0.352-1.758-0.615-2.987-0.615
			c-3.472,0-5.779,2.219-5.779,6.108c0,3.626,2.088,5.954,5.69,5.954c1.164,0,2.352-0.241,3.121-0.615L174.67,23.116z"/>
		<path fill="#231F20" d="M189.261,16.041c0,5.098-3.099,7.801-6.878,7.801c-3.91,0-6.658-3.033-6.658-7.515
			c0-4.702,2.924-7.778,6.879-7.778C186.646,8.548,189.261,11.646,189.261,16.041z M177.77,16.283c0,3.165,1.713,5.999,4.724,5.999
			c3.032,0,4.747-2.791,4.747-6.152c0-2.944-1.539-6.021-4.725-6.021C179.352,10.108,177.77,13.031,177.77,16.283z"/>
		<path fill="#231F20" d="M204.225,17.096c-0.109-2.065-0.24-4.548-0.22-6.394h-0.065c-0.506,1.736-1.121,3.582-1.867,5.625
			l-2.615,7.185h-1.449l-2.396-7.053c-0.702-2.087-1.295-3.999-1.713-5.757h-0.045c-0.043,1.846-0.152,4.329-0.285,6.548
			l-0.396,6.35h-1.823l1.032-14.81h2.438l2.525,7.163c0.615,1.824,1.121,3.449,1.494,4.988h0.066c0.373-1.494,0.9-3.121,1.561-4.988
			l2.637-7.163h2.438l0.923,14.81h-1.867L204.225,17.096z"/>
		<path fill="#231F20" d="M221.891,17.096c-0.109-2.065-0.24-4.548-0.22-6.394h-0.065c-0.506,1.736-1.121,3.582-1.867,5.625
			l-2.615,7.185h-1.449l-2.396-7.053c-0.702-2.087-1.295-3.999-1.713-5.757h-0.045c-0.043,1.846-0.152,4.329-0.285,6.548
			l-0.396,6.35h-1.823l1.032-14.81h2.438l2.525,7.163c0.615,1.824,1.121,3.449,1.494,4.988h0.066c0.373-1.494,0.9-3.121,1.561-4.988
			l2.637-7.163h2.438l0.923,14.81h-1.867L221.891,17.096z"/>
		<path fill="#231F20" d="M228.989,8.79V23.6h-1.912V8.79H228.989z"/>
		<path fill="#231F20" d="M235.143,10.416h-4.504V8.79h10.963v1.626h-4.525V23.6h-1.934V10.416z"/>
		<path fill="#231F20" d="M246.896,10.416h-4.504V8.79h10.965v1.626h-4.526V23.6h-1.935V10.416z"/>
		<path fill="#231F20" d="M262.675,16.656h-5.758v5.34h6.416V23.6h-8.327V8.79h7.998v1.604h-6.087v4.68h5.758V16.656L262.675,16.656
			z"/>
		<path fill="#231F20" d="M273.484,16.656h-5.758v5.34h6.416V23.6h-8.326V8.79h7.998v1.604h-6.088v4.68h5.758V16.656L273.484,16.656
			z"/>
	</g>
</g>
</svg>
