<?xml version="1.0" encoding="utf-8"?>
<!-- Generator: Adobe Illustrator 16.0.3, SVG Export Plug-In . SVG Version: 6.00 Build 0)  -->
<!DOCTYPE svg PUBLIC "-//W3C//DTD SVG 1.1//EN" "http://www.w3.org/Graphics/SVG/1.1/DTD/svg11.dtd">
<svg version="1.1" id="Layer_1" xmlns="http://www.w3.org/2000/svg" xmlns:xlink="http://www.w3.org/1999/xlink" x="0px" y="0px"
	 width="282px" height="44px" viewBox="0 0 282 44" enable-background="new 0 0 282 44" xml:space="preserve">
<g id="Layer_2" display="none">
	<rect x="-19.999" y="-9.168" display="inline" fill="#262426" width="282.999" height="47.668"/>
</g>
<g id="Layer_1_1_" display="none">
	<g display="inline">
		<g>
			<path fill="#FFFFFF" d="M18.812,22.356l1.692,0.421v0.281h-5.78v-0.281l1.692-0.423V3.889h-2.96c0,0.79-0.16,1.522-0.479,2.199
				c-0.32,0.677-0.724,1.259-1.212,1.748h-0.283c0.018-0.244,0.037-0.498,0.056-0.761c0.019-0.226,0.037-0.465,0.056-0.719
				c0.019-0.253,0.028-0.512,0.028-0.775c0-0.356-0.01-0.671-0.028-0.944c-0.019-0.273-0.037-0.513-0.056-0.72
				c-0.019-0.226-0.038-0.423-0.056-0.592h12.264c-0.038,0.169-0.066,0.367-0.085,0.592c-0.019,0.207-0.033,0.447-0.042,0.719
				c-0.01,0.273-0.014,0.588-0.014,0.944c0,0.264,0.004,0.522,0.014,0.775c0.009,0.254,0.023,0.494,0.042,0.719
				c0.019,0.263,0.047,0.517,0.085,0.761h-0.282c-0.489-0.489-0.893-1.071-1.212-1.748c-0.32-0.677-0.479-1.41-0.479-2.199h-2.96
				L18.812,22.356L18.812,22.356z"/>
			<path fill="#FFFFFF" d="M31.076,3.325c1.203,0,2.246,0.132,3.13,0.395c0.883,0.263,1.616,0.62,2.199,1.071
				c0.582,0.451,1.015,0.973,1.297,1.564c0.282,0.592,0.423,1.227,0.423,1.903c0,0.545-0.08,1.029-0.24,1.452
				c-0.16,0.423-0.367,0.799-0.62,1.127c-0.254,0.329-0.55,0.606-0.888,0.832c-0.338,0.225-0.677,0.414-1.015,0.563
				c-0.808,0.357-1.72,0.583-2.735,0.677c0.827,0.094,1.579,0.292,2.256,0.592c0.582,0.263,1.127,0.648,1.635,1.156
				c0.507,0.507,0.808,1.193,0.902,2.058l0.564,4.935c0.038,0.356,0.122,0.61,0.254,0.762c0.131,0.15,0.282,0.227,0.451,0.227
				c0.094,0,0.192-0.033,0.296-0.1c0.103-0.065,0.202-0.146,0.296-0.24c0.094-0.094,0.179-0.216,0.254-0.365l0.282,0.281
				c-0.113,0.244-0.272,0.461-0.479,0.648c-0.169,0.148-0.391,0.291-0.663,0.423c-0.273,0.131-0.597,0.196-0.973,0.196
				c-0.639,0-1.161-0.185-1.565-0.549c-0.404-0.367-0.634-0.795-0.691-1.284l-0.563-4.935c-0.076-0.639-0.198-1.179-0.367-1.621
				c-0.169-0.44-0.399-0.804-0.691-1.085c-0.292-0.281-0.663-0.487-1.114-0.62c-0.451-0.131-0.996-0.197-1.635-0.197h-1.127v9.163
				l1.691,0.424v0.281h-5.78v-0.281l1.692-0.424V4.03L25.86,3.607V3.325H31.076z M35.447,8.259c0-1.41-0.376-2.49-1.127-3.242
				c-0.752-0.752-1.833-1.128-3.243-1.128H29.95v8.74h1.127c1.41,0,2.491-0.376,3.243-1.128C35.071,10.75,35.447,9.669,35.447,8.259
				z"/>
			<path fill="#FFFFFF" d="M53.772,17.422c0,2.124-0.437,3.665-1.311,4.624c-0.874,0.958-2.129,1.438-3.764,1.438
				c-1.917,0-3.407-0.53-4.469-1.592c-1.061-1.063-1.592-2.553-1.592-4.47V4.03l-1.692-0.423V3.325h5.78v0.282L45.033,4.03v13.392
				c0,1.897,0.375,3.289,1.127,4.173c0.752,0.885,1.692,1.325,2.819,1.325c0.639,0,1.217-0.107,1.734-0.324
				c0.517-0.216,0.958-0.55,1.325-1c0.367-0.451,0.653-1.02,0.86-1.706s0.31-1.509,0.31-2.467V4.312l-1.832-0.705V3.325h4.229v0.282
				l-1.833,0.705V17.422z"/>
			<path fill="#FFFFFF" d="M58.988,6.99c0,0.771,0.225,1.433,0.676,1.987c0.451,0.555,1.015,1.067,1.692,1.537
				c0.677,0.47,1.414,0.931,2.213,1.381c0.799,0.451,1.537,0.964,2.213,1.537c0.677,0.574,1.241,1.246,1.692,2.017
				c0.451,0.77,0.676,1.711,0.676,2.818c0,0.733-0.131,1.42-0.395,2.06c-0.263,0.639-0.634,1.192-1.114,1.663
				c-0.479,0.47-1.048,0.837-1.706,1.1c-0.658,0.264-1.372,0.395-2.143,0.395c-0.715,0-1.325-0.068-1.833-0.211
				c-0.507-0.142-0.93-0.306-1.269-0.493c-0.395-0.205-0.724-0.44-0.987-0.703c-0.15,0.281-0.353,0.545-0.606,0.789
				c-0.254,0.243-0.522,0.403-0.804,0.479H56.87c0.019-0.264,0.038-0.545,0.056-0.846c0.019-0.244,0.038-0.518,0.057-0.818
				c0.019-0.3,0.028-0.592,0.028-0.874c0-0.319-0.01-0.634-0.028-0.944c-0.019-0.31-0.038-0.597-0.057-0.858
				c-0.019-0.301-0.038-0.593-0.056-0.874h0.423c0.432,1.561,1.057,2.749,1.875,3.566c0.817,0.816,1.931,1.227,3.341,1.227
				c1.128,0,2.044-0.361,2.749-1.086c0.705-0.725,1.057-1.725,1.057-3.003c0-0.771-0.226-1.433-0.677-1.987
				c-0.451-0.554-1.015-1.066-1.691-1.535c-0.676-0.471-1.415-0.932-2.213-1.383c-0.798-0.45-1.537-0.963-2.213-1.537
				c-0.677-0.573-1.241-1.245-1.692-2.016c-0.451-0.771-0.677-1.71-0.677-2.819c0-0.639,0.122-1.24,0.367-1.804
				c0.244-0.564,0.583-1.057,1.015-1.48c0.432-0.423,0.939-0.756,1.522-1c0.582-0.244,1.212-0.367,1.889-0.367
				c0.564,0,1.062,0.075,1.495,0.226c0.432,0.151,0.798,0.31,1.1,0.479c0.338,0.207,0.648,0.441,0.93,0.705
				c0.15-0.282,0.353-0.545,0.606-0.79C66.33,3.28,66.598,3.12,66.88,3.045h0.423c-0.038,0.282-0.066,0.564-0.084,0.846
				c-0.019,0.263-0.033,0.541-0.042,0.832c-0.009,0.292-0.014,0.578-0.014,0.86c0,0.32,0.005,0.635,0.014,0.945
				c0.009,0.31,0.023,0.597,0.042,0.86c0.019,0.301,0.047,0.592,0.084,0.874H66.88c-0.433-1.56-1.034-2.749-1.804-3.566
				c-0.771-0.818-1.72-1.227-2.848-1.227c-0.921,0-1.692,0.32-2.312,0.958C59.298,5.064,58.988,5.919,58.988,6.99z"/>
			<path fill="#FFFFFF" d="M76.891,22.356l1.691,0.421v0.283h-5.78v-0.283l1.692-0.423V3.889h-2.96c0,0.79-0.16,1.522-0.479,2.199
				c-0.32,0.677-0.724,1.259-1.212,1.748h-0.282c0.019-0.244,0.038-0.498,0.057-0.761c0.018-0.226,0.037-0.466,0.056-0.719
				s0.028-0.512,0.028-0.775c0-0.356-0.01-0.671-0.028-0.944c-0.019-0.273-0.038-0.513-0.057-0.72
				c-0.019-0.226-0.038-0.423-0.057-0.592h12.265c-0.038,0.169-0.066,0.367-0.085,0.592c-0.019,0.207-0.033,0.447-0.042,0.719
				c-0.01,0.273-0.014,0.588-0.014,0.944c0,0.264,0.004,0.522,0.014,0.775c0.009,0.254,0.023,0.494,0.042,0.719
				c0.019,0.263,0.047,0.517,0.085,0.761h-0.282c-0.489-0.489-0.893-1.071-1.212-1.748c-0.32-0.677-0.479-1.41-0.479-2.199h-2.96
				L76.891,22.356L76.891,22.356z"/>
		</g>
		<g>
			<path fill="#FFFFFF" d="M117.771,23.063v-0.283l1.692-0.424V4.03l-1.692-0.423V3.325h5.075c0.883,0,1.649,0.099,2.298,0.296
				c0.648,0.198,1.188,0.47,1.621,0.818c0.432,0.348,0.756,0.752,0.973,1.212c0.217,0.46,0.324,0.954,0.324,1.48
				c0,0.414-0.063,0.78-0.184,1.1c-0.122,0.32-0.281,0.597-0.479,0.832c-0.198,0.235-0.424,0.442-0.677,0.621
				c-0.254,0.179-0.513,0.324-0.774,0.437c-0.621,0.282-1.326,0.46-2.115,0.536c1.166,0.113,2.199,0.404,3.102,0.874
				c0.395,0.207,0.775,0.456,1.143,0.747c0.367,0.292,0.694,0.648,0.986,1.072c0.291,0.423,0.525,0.911,0.705,1.466
				c0.178,0.555,0.268,1.188,0.268,1.902c0,0.885-0.168,1.711-0.508,2.48c-0.338,0.771-0.822,1.443-1.451,2.017
				c-0.631,0.574-1.387,1.024-2.271,1.354c-0.884,0.33-1.87,0.492-2.96,0.492h-5.076V23.063z M121.859,10.373h0.987
				c0.847-0.018,1.526-0.296,2.044-0.832s0.775-1.339,0.775-2.411c0-1.072-0.26-1.879-0.775-2.425
				c-0.518-0.545-1.197-0.817-2.044-0.817h-0.987V10.373z M121.859,10.937v11.56h0.987c0.64,0,1.229-0.122,1.776-0.367
				c0.545-0.244,1.02-0.609,1.424-1.1c0.402-0.488,0.723-1.09,0.958-1.805c0.235-0.715,0.353-1.551,0.353-2.51
				c0-0.958-0.117-1.795-0.353-2.509c-0.236-0.714-0.556-1.314-0.958-1.804c-0.404-0.489-0.879-0.855-1.424-1.1
				c-0.547-0.244-1.139-0.367-1.776-0.367L121.859,10.937L121.859,10.937z"/>
			<path fill="#FFFFFF" d="M139.621,17.28h-5.779l-1.409,4.793l1.832,0.704v0.281h-4.229v-0.281l1.832-0.704l5.498-19.171h0.424
				l5.921,19.455l1.689,0.422v0.283h-5.92v-0.283l1.692-0.424L139.621,17.28z M133.984,16.745h5.469l-2.819-9.332L133.984,16.745z"
				/>
			<path fill="#FFFFFF" d="M150.195,22.497h5.074c0-0.79,0.158-1.521,0.479-2.199c0.32-0.677,0.725-1.26,1.213-1.748h0.281
				c-0.037,0.244-0.064,0.498-0.084,0.762c-0.02,0.226-0.033,0.471-0.043,0.732c-0.01,0.264-0.014,0.518-0.014,0.761
				c0,0.357,0.004,0.673,0.014,0.945s0.023,0.512,0.043,0.719c0.02,0.227,0.047,0.424,0.084,0.594h-11.135v-0.283l1.689-0.424V4.03
				l-1.689-0.423V3.325h5.779v0.282l-1.691,0.423V22.497L150.195,22.497z"/>
			<path fill="#FFFFFF" d="M167.533,17.28h-5.78l-1.409,4.793l1.832,0.704v0.281h-4.229v-0.281l1.832-0.704l5.498-19.171h0.422
				l5.922,19.455l1.689,0.422v0.283h-5.92v-0.283l1.69-0.424L167.533,17.28z M161.895,16.745h5.469l-2.817-9.332L161.895,16.745z"/>
			<path fill="#FFFFFF" d="M185.718,4.312l-1.832-0.705V3.325h4.229v0.282l-1.832,0.705v19.031h-0.424l-9.586-17.622v16.353
				l1.832,0.705v0.281h-4.229v-0.281l1.832-0.705V4.17l-1.832-0.563V3.325h3.806l8.035,14.802L185.718,4.312L185.718,4.312z"/>
			<path fill="#FFFFFF" d="M197.277,3.466c-0.525,0-1.043,0.15-1.551,0.451s-0.959,0.822-1.354,1.564
				c-0.396,0.743-0.715,1.739-0.959,2.989s-0.365,2.824-0.365,4.724c0,1.898,0.121,3.472,0.365,4.722s0.573,2.246,0.985,2.988
				c0.414,0.742,0.895,1.265,1.438,1.564c0.545,0.302,1.118,0.451,1.72,0.451c0.488,0,0.986-0.132,1.494-0.396
				s0.973-0.629,1.396-1.1c0.422-0.47,0.779-1.024,1.07-1.664c0.291-0.639,0.475-1.325,0.551-2.058h0.422
				c-0.074,0.846-0.264,1.621-0.563,2.324c-0.301,0.705-0.682,1.316-1.143,1.834s-0.991,0.916-1.595,1.197
				c-0.602,0.282-1.239,0.424-1.916,0.424c-0.885,0-1.737-0.211-2.564-0.636c-0.827-0.423-1.563-1.062-2.214-1.917
				c-0.647-0.854-1.166-1.926-1.552-3.214c-0.385-1.287-0.577-2.796-0.577-4.525s0.192-3.237,0.577-4.524
				c0.386-1.287,0.895-2.358,1.522-3.214c0.629-0.855,1.339-1.495,2.128-1.917c0.79-0.423,1.59-0.634,2.396-0.634
				c0.451,0,0.859,0.075,1.227,0.226c0.368,0.151,0.682,0.32,0.943,0.507c0.302,0.207,0.564,0.442,0.791,0.705
				c0.148-0.282,0.354-0.55,0.605-0.804c0.254-0.253,0.521-0.418,0.803-0.493h0.424c-0.037,0.282-0.065,0.564-0.084,0.846
				c-0.021,0.263-0.033,0.541-0.043,0.832c-0.01,0.292-0.016,0.578-0.016,0.86c0,0.32,0.006,0.635,0.016,0.945
				s0.021,0.597,0.043,0.86c0.019,0.301,0.047,0.592,0.084,0.874h-0.424c-0.434-1.56-1.01-2.749-1.732-3.566
				S198.123,3.466,197.277,3.466z"/>
			<path fill="#FFFFFF" d="M214.053,22.497c0-0.79,0.159-1.521,0.479-2.199c0.319-0.677,0.725-1.26,1.213-1.748h0.28
				c-0.036,0.244-0.063,0.498-0.084,0.762c-0.02,0.226-0.032,0.471-0.041,0.732c-0.01,0.264-0.016,0.518-0.016,0.761
				c0,0.357,0.006,0.673,0.016,0.945c0.009,0.272,0.021,0.512,0.041,0.719c0.021,0.227,0.048,0.424,0.084,0.594h-11.698v-0.283
				l1.69-0.424V4.03l-1.69-0.423V3.325h11.418c-0.037,0.169-0.065,0.367-0.084,0.592c-0.021,0.207-0.033,0.447-0.043,0.719
				c-0.011,0.273-0.015,0.588-0.015,0.944c0,0.264,0.004,0.522,0.015,0.775c0.01,0.254,0.022,0.494,0.043,0.719
				c0.019,0.263,0.047,0.517,0.084,0.761h-0.281c-0.489-0.489-0.894-1.071-1.212-1.748c-0.32-0.677-0.479-1.41-0.479-2.199h-5.357
				v8.458h2.68l1.271-2.537h0.28v5.639h-0.28l-1.271-2.538h-2.68v9.586L214.053,22.497L214.053,22.497z"/>
			<path fill="#FFFFFF" d="M223.779,3.325c1.203,0,2.246,0.132,3.129,0.395c0.883,0.263,1.617,0.62,2.199,1.071
				s1.016,0.973,1.297,1.564c0.281,0.592,0.424,1.227,0.424,1.903c0,0.545-0.08,1.029-0.24,1.452
				c-0.158,0.423-0.365,0.799-0.62,1.127c-0.253,0.329-0.55,0.606-0.888,0.832c-0.34,0.225-0.678,0.414-1.016,0.563
				c-0.81,0.357-1.722,0.583-2.734,0.677c0.826,0.094,1.578,0.292,2.256,0.592c0.582,0.263,1.128,0.648,1.635,1.156
				c0.508,0.507,0.809,1.193,0.902,2.058l0.563,4.935c0.037,0.356,0.121,0.61,0.254,0.762c0.133,0.15,0.281,0.227,0.451,0.227
				c0.094,0,0.19-0.033,0.295-0.1c0.104-0.065,0.203-0.146,0.299-0.24c0.094-0.094,0.178-0.216,0.252-0.365l0.281,0.281
				c-0.111,0.244-0.271,0.461-0.479,0.648c-0.168,0.148-0.389,0.291-0.661,0.423c-0.272,0.131-0.597,0.196-0.974,0.196
				c-0.641,0-1.16-0.185-1.563-0.549c-0.405-0.367-0.636-0.795-0.69-1.284l-0.563-4.935c-0.074-0.639-0.197-1.179-0.367-1.621
				c-0.169-0.44-0.398-0.804-0.689-1.085c-0.291-0.281-0.662-0.487-1.113-0.62c-0.45-0.131-0.996-0.197-1.635-0.197h-1.129v9.163
				l1.691,0.424v0.281h-5.779v-0.281l1.69-0.424V4.03l-1.69-0.423V3.325H223.779z M228.148,8.259c0-1.41-0.377-2.49-1.129-3.242
				s-1.832-1.128-3.24-1.128h-1.129v8.74h1.129c1.408,0,2.488-0.376,3.24-1.128C227.771,10.75,228.148,9.669,228.148,8.259z"/>
		</g>
		<polygon fill="#FFFFFF" points="90.661,21.498 86.863,21.5 86.863,6.846 90.661,6.842 		"/>
		<path fill="#FFFFFF" d="M93.765,8.467c0,0-1.396,1.557-0.22,2.644c1.177,1.085,5.654-1.03,5.654-1.03s7.207,2.521,7.765,4.091
			c0.214,0.603-0.305,1.25-0.667,1.34c-0.249,0.063-0.961,0.063-0.961,0.063c-0.294,0.039-0.316,0.182-0.316,0.182
			s0.532,0.768,0.514,1.146c-0.016,0.373-0.407,0.525-0.407,0.525s-0.885,0.067-1.188,0.103c-0.189,0.021-0.231,0.217-0.231,0.217
			c0.065,0.206,0.213,0.506,0.181,0.68c-0.118,0.646-0.815,0.723-0.815,0.723s-0.601-0.063-0.864-0.023
			c-0.169,0.029-0.266,0.203-0.266,0.203c0.052,0.223,0.332,0.52,0.317,0.713c-0.022,0.281-0.526,0.693-0.781,0.814
			c-0.277,0.133-1.221,0.104-1.221,0.104S95,19.772,93.201,18.653c-0.567-0.354-1.796,0.36-1.796,0.36V8.428L93.765,8.467z"/>
		<path fill="#FFFFFF" d="M100.765,5.758c0,0-6.796,2.466-6.887,3.733c0,0-0.124,1.593,1.732,1.323c0,0,2.487-0.806,3.515-1.32
			c0.855-0.428,6.75,2.392,7.636,3.084c1.243,0.973,0.451,2.069,1.802,3.222V8.099c0,0-3.387-2.272-4.404-2.646
			C103.136,5.077,102.078,5.261,100.765,5.758z"/>
		<polygon fill="#FFFFFF" points="113.275,21.498 109.476,21.5 109.476,6.846 113.275,6.842 		"/>
	</g>
</g>
<g id="Layer_3" display="none">
	<g display="inline">
		<rect x="281.439" y="0.122" fill="none" width="5.834" height="44"/>
		<path fill="#BE1E2D" d="M148.543,44.122h1.262c-1.455-1.686-2.492-3.786-4.096-5.323C146.666,40.601,147.6,42.382,148.543,44.122z
			"/>
		<path fill="#BE1E2D" d="M172.355,39.33c4.359,0.315,7.145,2.38,10.656,1.063C179.002,40.729,176.217,38.263,172.355,39.33z"/>
		<path fill="#BE1E2D" d="M169.689,30.271c0.73,1.212-1.373,1.999,0,2.13c0.424-1.174,2.508-0.693,2.666-2.13
			C171.336,29.27,171.389,30.585,169.689,30.271z"/>
		<path fill="#BE1E2D" d="M251.752,0.122c0.049,4.805-0.246,9.624-0.516,13.092c-0.811,10.368-4.342,22.271-7.59,30.908h37.793v-44
			H251.752z"/>
		<path fill="#BE1E2D" d="M144.641,26.538c1.365,0.06,2.539,0.304,3.197,1.067c-0.244,3.059,0.57,4.231,0,6.396
			c-0.809-1.52-3.453-1.518-4.266-1.602c0.234-2.722-0.488-4.483-2.662-4.796c1.32,7.851,6.558,11.546,9.728,16.518h2.066
			c-1.594-5.233-2.299-11.16-2.201-17.584C148.574,26.841,146.084,24.958,144.641,26.538z"/>
		<path fill="#BE1E2D" d="M56.698,43.062c-0.049,0.287-0.272,0.672-0.627,1.061h3.294c0.237-0.294,0.425-0.637,0.532-1.061
			C58.229,42.008,57.396,43.869,56.698,43.062z"/>
		<path fill="#BE1E2D" d="M88.145,43.595c-1.282,0.217-1.157-0.974-2.664-0.533c-0.098,0.438-0.324,0.746-0.543,1.062h0.603
			C86.033,42.906,89.293,44.985,88.145,43.595z"/>
		<path fill="#BE1E2D" d="M159.566,33.47c-0.025,1.018,3.977,2.12,3.729,0C161.787,34.024,159.639,32.588,159.566,33.47z"/>
		<path fill="#BE1E2D" d="M225.656,23.876c-1.023,7.115-5.148,12.952-5.246,20.246h3.979
			C226.844,37.867,228.539,30.003,225.656,23.876z"/>
		<path fill="#BE1E2D" d="M168.092,35.601c0.086-1.334-0.818-1.668-1.602-2.131c-0.307,0.321-1.25,2.526,0,2.663
			C166.584,35.513,167.334,35.556,168.092,35.601z"/>
		<path fill="#BE1E2D" d="M151.566,34.002c2.551,2.832-0.426,1.833,0.533,5.328C154.973,39.422,155.178,33.201,151.566,34.002z"/>
		<path fill="#BE1E2D" d="M121.72,2.554c0.544-0.022,1.177-0.481,1.602-1.06c0-0.001,0-0.002,0-0.003h0.001
			c0.317-0.434,0.512-0.933,0.469-1.369h-0.516C122.94,1.116,121.483,0.986,121.72,2.554z"/>
		<path fill="#BE1E2D" d="M230.453,27.073c2.566,0.415,7.633-0.269,9.061-2.665c-1.518-7.467-2.957-16.68-4.252-24.286h-1.203
			c1.83,4.251,1.184,10.361,1.615,13.531c0.01,0.07,0.021,0.131,0.033,0.198c0.02,0.147,0.035,0.299,0.072,0.429
			c-0.037-0.13-0.053-0.281-0.072-0.429c-0.012-0.067-0.023-0.128-0.033-0.198c-0.051-0.239-0.146-0.431-0.43-0.439
			c-0.902,2.553,2.313,4.043,0,4.797c-0.084-0.627,0.098-1.514-0.529-1.598c-0.797,0.673-0.953,2.825-2.133,1.598
			c0,1.067,0,2.135,0,3.199c1.373,1.581,3.014-0.42,3.197,2.134c-3.869-0.481-2.932-0.977-5.861-1.068
			c-5.174-14.954-29.229-10.384-48.502-12.257c5.094-0.203,12.598-0.25,18.652,0c1.809,0.074,8.396,0.366,7.463-0.534
			c-1.242,0-2.49,0-3.729,0c-1.729-1.466-6.834,0.434-8.527-1.066c2.939,0.177-1.975-2.991,1.063-1.598
			c0.209-2.553-2.566,0.916-2.664-1.599c2.859,0.11-1.131-1.882-2.334-0.828c0.129,0.187,0.064,0.445-0.332,0.828
			c-0.008-0.387,0.127-0.647,0.332-0.828c-0.305-0.445-1.717-0.479-2.461-0.771c-0.266,2.396,2.768,1.496,3.729,2.664
			c-1.727-0.438-4.609,0.665-4.797,0c0.01-0.704,0.938-0.486,1.068-1.065c-1.342-0.403-3.373-3.464-4.266-1.067
			c1.088-0.455,2.938,0.842,1.602,1.067c-1.088-1.224-3.502-1.124-4.266-2.667c0.793-0.998,5.514,0.988,3.197-1.063
			c2.854,0.185,7.123,0.299,8.527,0.532c-1.291-0.503-4.646-1.576-7.477-1.9h-2.707c-0.705,0.127-1.254,0.386-1.541,0.834
			c-0.428-0.697-2.391-0.341-2.576-0.834h-1.635c-0.959,0.627-1.842,1.261-2.721,0.302c0.145-0.113,0.293-0.212,0.443-0.302h-10.006
			c-3.842,0.484-7.932,1.011-10.688,4.031c1.543,0.26,3.063-2.207,3.729-1.065c-3.428,1.807-7.445,4.722-10.125,3.198
			c0.043,1.985,0.797,1.721-0.535,2.665c4.09,0.352,9.59-0.703,12.789,0.532c-19.484-0.811-34.046,1.709-53.827,0
			c7.64-0.353,16.696,0.71,23.449-0.532c-4.115-0.678-2.79-6.805-6.924-7.46c0,0.001-0.001,0.002-0.002,0.003
			c-0.388,1.448,1.057,1.068,1.063,2.128c-0.976,1.442-1.805,0.093-2.665,1.064c1.26,0.146,0.328,2.359-0.531,2.133
			c-5.49,1.553-9.27-2.622-13.858-3.197c-2.499-0.315-4.187,2.144-6.393,0c1.375,0.856,4.424-0.301,5.327-1.6
			c-2.578-1.463-3.431,1.366-6.395,1.065c-0.778-0.462-1.688-0.798-1.6-2.132c1.143,1.67,4.3,0.876,5.864,0
			c-4.269,0.747-4.377-0.559-7.996,0c0.109-0.309,0.151-0.584,0.178-0.834H83.981c-0.736,0.253-1.613,0.539-2.765,0.834
			c-0.077-0.337,0.011-0.611,0.112-0.834h-1.099c-0.991,0.58-2.351,1.025-2.744,0.302c0.413-0.129,0.883-0.2,1.322-0.302h-6.665
			c-0.382,0.527-0.984,0.914-2.119,0.834c0.1-0.379,0.326-0.631,0.603-0.834h-1.66c-0.662,0.33-1.355,0.628-2.142,0.834
			c0.246-0.394,0.441-0.633,0.585-0.834H-1.559v44h39.073c-1.619-10.691,0.139-20.966,7.992-24.511
			c-5.631,4.339-8.466,13.624-7.615,24.511h16.172c0.321-0.564,0.558-1.154,0.503-1.596c-4.417,0.914,1.681-3.77,3.198-6.928
			c1.434,0.521,2.733,1.176,4.264,1.601c-0.648,0.581-2.89,2.563,0,2.131c-0.464,0.78-0.798,1.688-2.131,1.601
			c1.875,0.711,3.813-2.521,6.926-1.065c-0.1,0.433-0.534,0.53-0.531,1.065c1.51-0.557,2.221-0.557,3.73,0
			c1.388,1.043-1.521,0.166-2.132,0c0.469,1.778,2.028,2.465,3.548,3.191h2.481c-0.117-1.152-0.449-2.232-2.299-2.124
			c1.333-1.459,2.052-0.44,4.264-0.532c-0.126,0.936-0.916,1.213-2.129,1.062c1.124,0.528,2.166,1.141,3.364,1.596h1.968
			c-0.275-1.146-2.757-0.085-2.137-2.124c2.159,0.066,3.157,0.982,5.863,1.596c-2.418-2.162,3.2,0.355,4.265-1.596
			c1.384,0.73,2.295,1.939,4.23,2.124h1.11c1.155-0.081,0.219-2.26,0.522-3.19c1.824-0.17-0.253,2.463,2.13,2.662
			c1.492-0.521-0.774-1.42,0.534-2.128c0.414,1.048,0.15,1.91-0.39,2.656h19.557c0.19-0.526,0.379-1.054,0.554-1.596
			c-0.119,0.532-0.258,1.063-0.403,1.596h12.454c0.231-0.499,0.481-1.022,0.743-1.596c-1.372-1.427-0.764,1.431-2.134,0
			c1.134-3.05,1.515-4.716-0.536-6.927c2.147-2.402,3.66-5.755,4.798-6.396c1.177-0.697-1.863-1.646-2.128-2.666
			c2.583-1.631,13.552-0.396,7.458-1.599c-1.942-0.385-4.462-1.26-6.396-0.531c0.392-1.453-1.06-1.076-1.062-2.135
			c0.622-0.082,1.508,0.094,1.595-0.531c-2.199-1.547,0.273-5.275-2.663-5.863c0.945-0.12,2.668,0.537,2.13-1.065
			c-0.477-0.944-2.16-0.68-1.598-2.663c4.788-2.811,29.747-3.102,27.717,2.663c2.533-1.03,6.084-3.851,9.055-2.663
			c-10.43,1.589-13.346,7.635-18.115,12.791c5.742,0.502,6.236-9.999,11.725-7.463c-2.246-0.026-4.748,2.607-5.33,5.331
			c1.973-0.692,3.561-1.767,5.863-2.132c0.377,2.005-3.189,2.813-2.135,3.732c1.09-0.477,3.336-2.516,3.73-0.532
			c0.383,1.445-2.512-0.382-2.129,1.063c0.789,0.631,2.379,0.463,2.129,2.134c-1.389,0.44-2.922-1.613-3.73,0
			c2.273,0.382,2.125,1.597,3.73,1.6c-0.877,0.073,0.559,2.221,0,3.729c3.688,1.314,5.926,0.034,8.531-2.664
			c-2.104-1.006-3.596,0.5-4.27-2.133c4.457-1.269,10.777,0.707,13.326,1.6c3.629-1.699,6.951-3.711,8.531-7.462
			c1.625-0.388,1.564,0.918,3.195,0.532c-0.646,1.063-0.439,2.277,0,2.666c0.504-0.352,2.689,0.056,4.264-0.532
			c0.939,0.481,1.648,1.19,2.129,2.13c4.141,0.639,10.117,2.096,13.859,0c0.627-0.082,1.514,0.09,1.6-0.533
			c-2.42,0.248-4.371,0.958-6.932,1.068c-0.086-0.622-0.842-0.577-1.598-0.535c1.072-1.085-0.232-1.045-0.533-2.13
			c-1.564-0.716-6.766-1.158-4.264-2.666c-2.887-0.131-4.859-1.181-5.861-3.197c-4.619-1.604-10.785-1.653-13.326-5.331
			c1.895,1.677,2.664-0.373,0.531-1.063c16.449-1.041,40.684-3.469,47.436,7.461c2.813,4.544,1.885,9.697,1.604,13.323
			c-0.318,4.115-1.064,7.838-2.203,11.188h2.006C229.877,39.242,230.73,33.582,230.453,27.073z M194.742,8.417
			c-0.553,0.688-5.609,1.372-5.332-0.531C191.592,8.754,192.41,7.693,194.742,8.417z M28.984,29.737
			c-1.327,0.082-1.65-0.837-2.665-1.064C26.738,27.45,29.619,28.15,28.984,29.737z M41.776,21.21c-0.478-0.687,1.6-3.351,3.73-3.199
			C44.882,19.694,42.744,19.868,41.776,21.21z M46.572,38.265c0.086-0.615-0.117-0.947-0.533-1.064
			c0.347-0.541,1.225-0.549,1.067-1.6C48.741,35.698,48.226,38.47,46.572,38.265z M58.831,34.002
			c-1.552,0.171-2.804,2.075-5.331,2.665c2.794,1.448-2.3,4.868-2.663,1.598c0.472,0.416,1.204,0.575,2.131,0.534
			c-0.37-0.433-0.83-1.461,0-1.6c-0.389-0.498-0.968-0.806-1.598-1.066c0.924-1.493,1.396-0.502,3.197-0.532
			c-0.523-0.723-1.423-1.066-2.132-1.599c0.503-2.285,2.595,0.722,2.667-1.601c1.416,0.007,3.043-0.2,3.729,0.533
			C58.503,33.408,58.189,33.888,58.831,34.002z M109.465,10.551c-2.85,1.235-7.99,0.184-11.726,0.533
			C100.587,9.848,105.729,10.899,109.465,10.551z M118.526,18.545c-5.009-3.167-15.151-5.813-24.519-6.395
			C103.458,10.846,112.338,13.043,118.526,18.545z M98.271,14.28c-2.25-0.589-6.939,1.254-7.46-1.066
			c0.455-0.098,0.504,0.209,0.534,0.534C93.25,13.993,98.98,13.189,98.271,14.28z M93.474,9.483c3.241-1.084-0.87,0.119,0,2.667
			c-0.887,0-1.774,0-2.664,0c0.128-0.94,0.916-1.218,2.133-1.066c-0.406-1.375-1.704-1.852-3.733-1.601
			C87.579,8.834,93.409,8.439,93.474,9.483z M88.145,19.611c0.954-2.197,5.997-1.166,4.798,2.131
			c-0.622-0.087-0.949,0.117-1.065,0.531c-1.553-0.463-0.6-0.796-0.534-2.128c-2.59,0.661,0.377,4.085-3.2,1.064
			C88.823,20.488,89.765,20.145,88.145,19.611z M76.953,13.214c2.843,0,5.687,0,8.529,0c-0.304,0.498-1.484,0.808-0.535,1.066
			c-0.187,0.746-0.937,0.047-1.064-0.532C81.976,13.503,76.246,14.307,76.953,13.214z M103.601,35.063
			c0.017-0.514,0.653-0.41,1.067-0.53c-0.928-2.843-3.638,1.815-3.198-1.599c-0.625,1.15-1.106,2.446-1.6,3.731
			c-5.761,0.06-8.102,2.653-10.661,0c-0.429,0.101-0.53,0.532-1.065,0.532c0.299,1.204,0.832-0.648,1.599,0.535
			c-6.048,0.32-9.749-0.344-14.924-3.201c-0.066-1.182,3.464-1.443,1.601-2.663c-0.257-1.342,2.443,1.283,2.664-0.534
			c0.254,1.752,5.918,1.607,9.595,1.6c0.292-1.183-1.017-0.758-1.065-1.6c-1.532,3.609-5.941-3.425-9.06-1.599
			c-0.482-0.939-1.194-1.65-2.134-2.133c0.346-0.903,1.227-0.334,1.065,0.533c6.46,1.567,19.778,2.503,16.522-10.127
			c4.192,0.374,3.318,4.396,6.397,4.797c-0.315,1.7,1,1.647,0,2.664c1.659-0.589,1.905-0.345,1.065,1.065
			c1.725,0.659,0.406-1.724,2.131-1.065c0.439,1.51-0.75,1.383-0.532,2.666c-1.236-0.185-2.5-0.346-2.13-2.134
			c-0.837,0.229-0.456,1.679-2.135,1.068c-0.061,0.546,2.299,1.077,0.535,1.6c0.798,1.236,1.302,0.813,2.666,0.531
			c0.465,1.237,0.465,1.425,0,2.666c0.473-0.415,1.204-0.573,2.131-0.534c-0.139,0.915,1.207,3.356,1.066,1.065
			C106.757,33.315,105.11,35.461,103.601,35.063z M108.933,16.413c1.938-1.03,5.399,0.981,6.396,2.665
			C115.755,19.694,111.306,16.494,108.933,16.413z M117.458,38.799c-0.879-0.827,1.497-7.296,1.6-10.66
			C120.344,31.39,117.919,35.519,117.458,38.799z M164.357,8.951c-1.166,0.055-0.889,0.639-2.664,0.532
			C163.824,7.287,170.561,8.655,164.357,8.951z M180.35,18.545c-0.615,0.79-0.615,1.345,0,2.131c0.498-0.39,0.809-0.968,1.066-1.598
			c0.807,0.465-0.146,0.799,0.533,2.132c-2.352,0.69-2.186-0.028-3.734-1.064c0.109-0.717,2.217-0.994,0-1.067
			C178.381,18.354,179.551,18.637,180.35,18.545z M178.215,0.956c0.629,1.648,1.342-0.082,2.135,1.066
			c1.379,0.274-3.006,0.23,0.533,1.065C179.518,2.718,172.582,2.18,178.215,0.956z M179.816,8.417
			c-0.82-2.242,2.76-0.082,2.664-1.598c0.139,2.075,4.43-1.156,4.262,2.132C185.43,7.605,180.318,9.03,179.816,8.417z
			 M236.842,24.408c-0.885,1.622-5.846,1.339-7.457,0.531C230.018,23.064,235.391,23.764,236.842,24.408z"/>
		<path fill="#FFFFFF" d="M186.742,8.951c0.168-3.288-4.123-0.057-4.262-2.132c0.096,1.516-3.484-0.646-2.664,1.598
			C180.318,9.03,185.43,7.605,186.742,8.951z"/>
		<path fill="#FFFFFF" d="M194.742,8.417c-2.332-0.724-3.15,0.337-5.332-0.531C189.131,9.789,194.189,9.104,194.742,8.417z"/>
		<path fill="#FFFFFF" d="M161.693,9.483c1.775,0.106,1.498-0.478,2.664-0.532C170.561,8.655,163.824,7.287,161.693,9.483z"/>
		<path fill="#FFFFFF" d="M109.465,10.551c-3.736,0.349-8.878-0.703-11.726,0.533C101.476,10.734,106.616,11.786,109.465,10.551z"/>
		<path fill="#FFFFFF" d="M91.344,13.748c-0.03-0.325-0.08-0.632-0.534-0.534c0.521,2.32,5.21,0.478,7.46,1.066
			C98.98,13.189,93.25,13.993,91.344,13.748z"/>
		<path fill="#FFFFFF" d="M88.145,21.21c3.577,3.021,0.609-0.403,3.2-1.064c-0.066,1.332-1.02,1.667,0.534,2.129
			c0.116-0.414,0.443-0.619,1.065-0.532c1.198-3.297-3.844-4.328-4.798-2.131C89.765,20.145,88.823,20.488,88.145,21.21z"/>
		<path fill="#FFFFFF" d="M236.842,24.408c-1.451-0.645-6.824-1.344-7.457,0.531C230.998,25.747,235.959,26.03,236.842,24.408z"/>
		<path fill="#FFFFFF" d="M26.319,28.673c1.015,0.228,1.338,1.146,2.665,1.064C29.619,28.15,26.738,27.45,26.319,28.673z"/>
		<path fill="#FFFFFF" d="M55.102,32.401c-0.072,2.322-2.163-0.686-2.667,1.601c0.709,0.531,1.609,0.876,2.132,1.599
			c-1.8,0.03-2.273-0.961-3.197,0.532c0.629,0.263,1.209,0.568,1.598,1.066c-0.83,0.139-0.37,1.167,0,1.6
			c-0.927,0.041-1.659-0.118-2.131-0.534c0.362,3.271,5.457-0.148,2.663-1.598c2.527-0.59,3.779-2.494,5.331-2.665
			c-0.642-0.114-0.327-0.594,0-1.065C58.145,32.201,56.517,32.408,55.102,32.401z"/>
		<path fill="#FFFFFF" d="M47.106,35.601c0.158,1.051-0.72,1.059-1.067,1.6c0.416,0.117,0.62,0.449,0.533,1.064
			C48.226,38.47,48.741,35.698,47.106,35.601z"/>
		<path fill="none" d="M235.779,14.28c-0.037-0.13-0.053-0.281-0.072-0.429c-0.012-0.067-0.023-0.128-0.033-0.198"/>
		<path fill="#FFFFFF" d="M81.216,0.956c1.152-0.295,2.029-0.581,2.765-0.834h-2.653C81.228,0.345,81.14,0.619,81.216,0.956z"/>
		<path fill="#FFFFFF" d="M177.738,0.122h-2.275c-0.15,0.09-0.301,0.188-0.443,0.302C175.898,1.383,176.781,0.749,177.738,0.122z"/>
		<path fill="#FFFFFF" d="M68.966,0.122h-1.557c-0.144,0.201-0.339,0.44-0.585,0.834C67.61,0.75,68.304,0.452,68.966,0.122z"/>
		<path fill="#FFFFFF" d="M104.134,0.956c-1.564,0.876-4.721,1.67-5.864,0c-0.089,1.334,0.821,1.67,1.6,2.132
			c2.964,0.301,3.816-2.528,6.395-1.065c-0.902,1.299-3.952,2.456-5.327,1.6c2.207,2.144,3.894-0.315,6.393,0
			c4.589,0.575,8.368,4.75,13.858,3.197c0.859,0.227,1.791-1.987,0.531-2.133c0.86-0.972,1.689,0.378,2.665-1.064
			c-0.006-1.061-1.451-0.68-1.063-2.128c-0.425,0.579-1.058,1.038-1.602,1.06c-0.237-1.567,1.22-1.438,1.557-2.432H96.315
			c-0.027,0.25-0.069,0.525-0.177,0.834C99.757,0.397,99.865,1.703,104.134,0.956z"/>
		<path fill="#FFFFFF" d="M70.023,0.956c1.135,0.08,1.736-0.307,2.119-0.834h-1.516C70.35,0.325,70.124,0.577,70.023,0.956z"/>
		<path fill="#FFFFFF" d="M191.34,4.393c-0.207,0.181-0.34,0.44-0.334,0.828C191.404,4.838,191.467,4.58,191.34,4.393z"/>
		<path fill="#FFFFFF" d="M80.229,0.122h-1.422c-0.439,0.102-0.909,0.173-1.322,0.302C77.878,1.147,79.238,0.702,80.229,0.122z"/>
		<path fill="#FFFFFF" d="M185.146,1.49c2.316,2.052-2.404,0.065-3.197,1.063c0.764,1.543,3.178,1.443,4.266,2.667
			c1.336-0.226-0.514-1.522-1.602-1.067c0.893-2.396,2.924,0.664,4.266,1.067c-0.131,0.579-1.061,0.361-1.068,1.065
			c0.188,0.665,3.07-0.438,4.797,0c-0.961-1.168-3.992-0.269-3.729-2.664c0.744,0.292,2.156,0.326,2.461,0.771
			c1.203-1.054,5.193,0.938,2.334,0.828c0.098,2.515,2.873-0.954,2.664,1.599c-3.037-1.395,1.877,1.774-1.063,1.598
			c1.695,1.5,6.799-0.399,8.527,1.066c1.238,0,2.486,0,3.729,0c0.934,0.9-5.654,0.608-7.463,0.534
			c-6.057-0.25-13.561-0.203-18.652,0c19.273,1.873,43.328-2.697,48.502,12.256c2.93,0.094,1.992,0.588,5.861,1.068
			c-0.184-2.553-1.824-0.552-3.197-2.133c0-1.064,0-2.132,0-3.199c1.18,1.228,1.336-0.925,2.133-1.598
			c0.627,0.084,0.445,0.971,0.529,1.598c2.313-0.754-0.902-2.244,0-4.797c0.281,0.008,0.379,0.201,0.43,0.439
			c-0.434-3.17,0.215-9.28-1.615-13.531h-47.859c2.83,0.325,6.186,1.397,7.477,1.9C192.27,1.789,188.002,1.675,185.146,1.49z"/>
		<path fill="#FFFFFF" d="M226.715,19.611c-6.752-10.93-30.986-8.502-47.436-7.461c2.133,0.69,1.361,2.74-0.531,1.063
			c2.541,3.678,8.707,3.728,13.326,5.331c1.002,2.017,2.975,3.065,5.861,3.197c-2.502,1.508,2.697,1.95,4.264,2.666
			c0.301,1.085,1.605,1.045,0.533,2.13c0.756-0.042,1.512-0.087,1.598,0.535c2.561-0.11,4.512-0.82,6.934-1.068
			c-0.088,0.623-0.975,0.451-1.602,0.533c-3.742,2.096-9.719,0.639-13.859,0c-0.479-0.939-1.188-1.646-2.129-2.13
			c-1.574,0.588-3.76,0.182-4.264,0.532c-0.438-0.39-0.646-1.604,0-2.666c-1.631,0.386-1.57-0.92-3.195-0.532
			c-1.58,3.751-4.902,5.763-8.531,7.462c-2.549-0.893-8.869-2.867-13.326-1.6c0.674,2.633,2.166,1.127,4.27,2.133
			c-2.605,2.698-4.844,3.979-8.531,2.663c0.559-1.508-0.877-3.654,0-3.729c-1.605-0.003-1.457-1.218-3.73-1.6
			c0.809-1.613,2.342,0.44,3.73,0c0.252-1.671-1.34-1.503-2.129-2.134c-0.383-1.445,2.512,0.382,2.129-1.063
			c-0.395-1.981-2.643,0.056-3.73,0.532c-1.055-0.92,2.512-1.727,2.135-3.732c-2.305,0.366-3.893,1.439-5.863,2.133
			c0.582-2.724,3.084-5.356,5.33-5.331c-5.486-2.535-5.982,7.965-11.725,7.463c4.77-5.155,7.688-11.201,18.115-12.791
			c-2.971-1.188-6.521,1.633-9.055,2.663c2.029-5.765-22.929-5.474-27.717-2.663c-0.563,1.983,1.121,1.719,1.598,2.663
			c0.538,1.603-1.185,0.945-2.13,1.065c2.937,0.588,0.464,4.316,2.663,5.863c-0.087,0.625-0.973,0.449-1.595,0.531
			c0.002,1.059,1.453,0.682,1.062,2.135c1.935-0.729,4.454,0.146,6.396,0.531c6.094,1.203-4.875-0.032-7.458,1.599
			c0.265,1.021,3.305,1.969,2.128,2.666c-1.138,0.642-2.65,3.993-4.798,6.396c2.051,2.211,1.67,3.877,0.536,6.926
			c1.37,1.432,0.762-1.426,2.134,0c-0.262,0.572-0.512,1.098-0.743,1.597h21.165c-0.941-1.74-1.877-3.521-2.834-5.323
			c1.604,1.537,2.641,3.639,4.096,5.323h0.836c-3.172-4.972-8.408-8.667-9.729-16.518c2.172,0.313,2.895,2.074,2.663,4.796
			c0.813,0.084,3.455,0.082,4.264,1.602c0.572-2.164-0.242-3.338,0-6.396c-0.656-0.765-1.83-1.01-3.197-1.067
			c1.443-1.58,3.936,0.303,5.863,0c-0.096,6.424,0.607,12.352,2.203,17.584h67.703c0.098-7.294,4.223-13.131,5.246-20.246
			c2.883,6.127,1.189,13.991-1.268,20.246h1.727c1.141-3.35,1.885-7.072,2.203-11.188C228.6,29.311,229.527,24.155,226.715,19.611z
			 M152.1,39.33c-0.959-3.495,2.018-2.496-0.533-5.328C155.178,33.201,154.973,39.422,152.1,39.33z M159.566,33.47
			c0.072-0.882,2.221,0.557,3.729,0C163.543,35.59,159.541,34.486,159.566,33.47z M166.49,36.133c-1.248-0.137-0.305-2.342,0-2.663
			c0.783,0.463,1.688,0.797,1.604,2.131C167.334,35.556,166.584,35.513,166.49,36.133z M170.756,39.33
			C164.75,39.222,168.074,35.894,170.756,39.33L170.756,39.33z M169.689,32.401c-1.373-0.131,0.73-0.918,0-2.13
			c1.699,0.313,1.646-1.002,2.666,0C172.197,31.708,170.113,31.228,169.689,32.401z M172.355,39.33
			c3.861-1.067,6.646,1.399,10.656,1.063C179.5,41.71,176.715,39.646,172.355,39.33z"/>
		<polygon fill="#FFFFFF" points="123.322,1.494 123.324,1.491 123.323,1.49 		"/>
		<path fill="#FFFFFF" d="M251.752,0.122h-16.49c1.295,7.606,2.734,16.819,4.252,24.286c-1.428,2.396-6.494,3.08-9.061,2.665
			c0.277,6.509-0.574,12.169-2.332,17.049h15.525c3.248-8.637,6.779-20.54,7.59-30.908C251.504,9.746,251.801,4.927,251.752,0.122z"
			/>
		<path fill="#FFFFFF" d="M181.949,0.956c0.287-0.448,0.836-0.707,1.541-0.834h-4.115C179.561,0.615,181.523,0.259,181.949,0.956z"
			/>
		<path fill="#FFFFFF" d="M123.324,1.491c4.135,0.656,2.81,6.783,6.924,7.46c-6.753,1.242-15.81,0.18-23.449,0.532
			c19.78,1.709,34.342-0.811,53.828,0c-3.199-1.235-8.701-0.181-12.789-0.532c1.332-0.944,0.576-0.68,0.535-2.665
			c2.678,1.523,6.697-1.392,10.125-3.198c-0.666-1.142-2.188,1.325-3.73,1.065c2.758-3.021,6.848-3.547,10.689-4.031h-41.665
			C123.836,0.558,123.643,1.057,123.324,1.491z"/>
		<path fill="#FFFFFF" d="M170.756,39.33C168.074,35.894,164.75,39.222,170.756,39.33L170.756,39.33z"/>
		<path fill="#FFFFFF" d="M180.35,2.022c-0.793-1.148-1.506,0.582-2.135-1.066c-5.635,1.224,1.303,1.762,2.668,2.132
			C177.344,2.253,181.729,2.297,180.35,2.022z"/>
		<path fill="#FFFFFF" d="M89.209,9.483c2.03-0.251,3.328,0.226,3.733,1.601c-1.217-0.151-2.004,0.126-2.133,1.066
			c0.889,0,1.777,0,2.664,0c-0.87-2.548,3.241-3.751,0-2.667C93.409,8.439,87.579,8.834,89.209,9.483z"/>
		<path fill="#FFFFFF" d="M118.526,18.545c-6.188-5.502-15.068-7.699-24.519-6.395C103.375,12.732,113.518,15.378,118.526,18.545z"
			/>
		<path fill="#FFFFFF" d="M83.881,13.748c0.128,0.579,0.877,1.278,1.064,0.532c-0.948-0.258,0.232-0.568,0.536-1.066
			c-2.842,0-5.686,0-8.529,0C76.246,14.307,81.976,13.503,83.881,13.748z"/>
		<path fill="#FFFFFF" d="M108.933,16.413c2.373,0.081,6.823,3.281,6.396,2.665C114.333,17.394,110.871,15.383,108.933,16.413z"/>
		<path fill="#FFFFFF" d="M41.776,21.21c0.967-1.342,3.106-1.516,3.73-3.199C43.376,17.859,41.298,20.523,41.776,21.21z"/>
		<path fill="#FFFFFF" d="M105.202,32.401c0.141,2.291-1.205-0.15-1.066-1.065c-0.927-0.039-1.658,0.119-2.131,0.534
			c0.465-1.241,0.465-1.429,0-2.666c-1.363,0.28-1.867,0.705-2.666-0.531c1.764-0.521-0.596-1.054-0.535-1.6
			c1.679,0.608,1.298-0.839,2.135-1.068c-0.37,1.788,0.894,1.949,2.13,2.134c-0.218-1.283,0.972-1.156,0.532-2.666
			c-1.725-0.658-0.406,1.726-2.131,1.065c0.84-1.41,0.594-1.653-1.065-1.065c1-1.017-0.315-0.963,0-2.664
			c-3.079-0.401-2.205-4.423-6.397-4.797c3.256,12.63-10.062,11.695-16.522,10.127c0.161-0.867-0.72-1.438-1.065-0.533
			c0.94,0.481,1.651,1.192,2.134,2.133c3.119-1.826,7.528,5.208,9.06,1.599c0.048,0.842,1.357,0.417,1.065,1.6
			c-3.677,0.009-9.34,0.152-9.595-1.6c-0.221,1.817-2.921-0.808-2.664,0.534c1.863,1.22-1.667,1.481-1.601,2.663
			c5.175,2.857,8.876,3.521,14.924,3.201c-0.767-1.184-1.3,0.669-1.599-0.535c0.535,0,0.636-0.432,1.065-0.532
			c2.559,2.653,4.899,0.06,10.661,0c0.493-1.285,0.974-2.581,1.6-3.731c-0.44,3.414,2.271-1.244,3.198,1.599
			c-0.414,0.12-1.051,0.019-1.067,0.53C105.11,35.461,106.757,33.315,105.202,32.401z"/>
		<path fill="#FFFFFF" d="M178.215,19.078c2.217,0.073,0.109,0.351,0,1.067c1.549,1.036,1.385,1.755,3.734,1.064
			c-0.68-1.333,0.271-1.667-0.533-2.132c-0.26,0.63-0.568,1.208-1.066,1.598c-0.615-0.786-0.615-1.341,0-2.131
			C179.551,18.637,178.381,18.354,178.215,19.078z"/>
		<path fill="#FFFFFF" d="M45.506,19.611c-7.853,3.545-9.61,13.819-7.992,24.511h0.377C37.041,33.235,39.875,23.95,45.506,19.611z"
			/>
		<path fill="#FFFFFF" d="M117.458,38.799c0.461-3.278,2.887-7.409,1.6-10.66C118.956,31.503,116.58,37.972,117.458,38.799z"/>
		<path fill="#FFFFFF" d="M82.815,43.595c-2.706-0.613-3.704-1.529-5.863-1.597c-0.62,2.039,1.861,0.979,2.137,2.124h5.849
			c0.219-0.314,0.445-0.624,0.543-1.061c1.506-0.44,1.381,0.75,2.664,0.531c1.148,1.393-2.111-0.688-2.604,0.528h5.77
			c-1.935-0.185-2.847-1.394-4.23-2.124C86.016,43.949,80.397,41.431,82.815,43.595z"/>
		<path fill="#FFFFFF" d="M67.892,40.931c0.612,0.166,3.52,1.043,2.132,0c-1.509-0.557-2.22-0.557-3.73,0
			c-0.003-0.535,0.431-0.634,0.531-1.065c-3.114-1.455-5.051,1.776-6.926,1.065c1.333,0.09,1.667-0.819,2.131-1.601
			c-2.89,0.435-0.648-1.55,0-2.131c-1.531-0.425-2.83-1.079-4.264-1.601c-1.517,3.158-7.615,7.842-3.198,6.928
			c0.055,0.44-0.183,1.029-0.503,1.596h2.008c0.354-0.389,0.578-0.771,0.627-1.061c0.697,0.808,1.53-1.055,3.2,0
			c-0.107,0.424-0.295,0.767-0.532,1.061h12.074C69.919,43.394,68.36,42.709,67.892,40.931z"/>
		<path fill="#FFFFFF" d="M75.885,41.466c-2.212,0.092-2.93-0.927-4.264,0.532c1.85-0.108,2.182,0.972,2.299,2.124h3.2
			c-1.199-0.455-2.241-1.066-3.364-1.596C74.969,42.679,75.759,42.399,75.885,41.466z"/>
		<path fill="#FFFFFF" d="M95.607,41.466c-1.308,0.708,0.958,1.606-0.534,2.129c-2.384-0.201-0.306-2.834-2.13-2.664
			c-0.304,0.933,0.632,3.11-0.522,3.191h2.797C95.756,43.376,96.021,42.513,95.607,41.466z"/>
		<path fill="#FFFFFF" d="M114.774,44.122h0.15c0.145-0.531,0.285-1.063,0.403-1.596C115.153,43.067,114.964,43.597,114.774,44.122z
			"/>
	</g>
</g>
<g id="Layer_5">
	<rect x="0.091" y="0.122" fill="#54B948" width="281.848" height="44"/>
</g>
<g id="Layer_6">
	<polygon fill="none" stroke="#262426" stroke-miterlimit="10" points="254.014,39.42 243.523,39.424 238.276,30.706 243.52,21.984 
		254.008,21.982 259.255,30.699 	"/>
	<polygon fill="none" stroke="#262426" stroke-miterlimit="10" points="269.623,30.7 259.133,30.704 253.887,21.986 259.127,13.267 
		269.617,13.263 274.864,21.98 	"/>
	<polygon fill="none" stroke="#262426" stroke-miterlimit="10" points="254.014,21.98 243.523,21.984 238.276,13.267 243.52,4.546 
		254.008,4.543 259.255,13.26 	"/>
	
		<image display="none" overflow="visible" enable-background="new    " width="1239" height="556" xlink:href="22B5EA3D.jpg"  transform="matrix(0.2296 0 0 0.2297 -1.1992 -44.1113)">
	</image>
	
		<line opacity="0.1" fill="none" stroke="#262426" stroke-width="0.25" stroke-miterlimit="10" enable-background="new    " x1="0.091" y1="0.122" x2="281.939" y2="0.122"/>
	
		<line opacity="0.1" fill="none" stroke="#262426" stroke-width="0.25" stroke-miterlimit="10" enable-background="new    " x1="0.091" y1="1.455" x2="281.939" y2="1.455"/>
	
		<line opacity="0.1" fill="none" stroke="#262426" stroke-width="0.25" stroke-miterlimit="10" enable-background="new    " x1="0.091" y1="2.789" x2="281.939" y2="2.789"/>
	
		<line opacity="0.1" fill="none" stroke="#262426" stroke-width="0.25" stroke-miterlimit="10" enable-background="new    " x1="0.091" y1="4.122" x2="281.939" y2="4.122"/>
	
		<line opacity="0.1" fill="none" stroke="#262426" stroke-width="0.25" stroke-miterlimit="10" enable-background="new    " x1="0.091" y1="5.455" x2="281.939" y2="5.455"/>
	
		<line opacity="0.1" fill="none" stroke="#262426" stroke-width="0.25" stroke-miterlimit="10" enable-background="new    " x1="0.091" y1="6.789" x2="281.939" y2="6.789"/>
	
		<line opacity="0.1" fill="none" stroke="#262426" stroke-width="0.25" stroke-miterlimit="10" enable-background="new    " x1="0.091" y1="8.122" x2="281.939" y2="8.122"/>
	
		<line opacity="0.1" fill="none" stroke="#262426" stroke-width="0.25" stroke-miterlimit="10" enable-background="new    " x1="0.091" y1="9.455" x2="281.939" y2="9.455"/>
	
		<line opacity="0.1" fill="none" stroke="#262426" stroke-width="0.25" stroke-miterlimit="10" enable-background="new    " x1="0.091" y1="10.789" x2="281.939" y2="10.789"/>
	
		<line opacity="0.1" fill="none" stroke="#262426" stroke-width="0.25" stroke-miterlimit="10" enable-background="new    " x1="0.091" y1="12.122" x2="281.939" y2="12.122"/>
	
		<line opacity="0.1" fill="none" stroke="#262426" stroke-width="0.25" stroke-miterlimit="10" enable-background="new    " x1="0.091" y1="13.455" x2="281.939" y2="13.455"/>
	
		<line opacity="0.1" fill="none" stroke="#262426" stroke-width="0.25" stroke-miterlimit="10" enable-background="new    " x1="0.091" y1="14.789" x2="281.939" y2="14.789"/>
	
		<line opacity="0.1" fill="none" stroke="#262426" stroke-width="0.25" stroke-miterlimit="10" enable-background="new    " x1="0.091" y1="16.122" x2="281.939" y2="16.122"/>
	
		<line opacity="0.1" fill="none" stroke="#262426" stroke-width="0.25" stroke-miterlimit="10" enable-background="new    " x1="0.091" y1="17.455" x2="281.939" y2="17.455"/>
	
		<line opacity="0.1" fill="none" stroke="#262426" stroke-width="0.25" stroke-miterlimit="10" enable-background="new    " x1="0.091" y1="18.789" x2="281.939" y2="18.789"/>
	
		<line opacity="0.1" fill="none" stroke="#262426" stroke-width="0.25" stroke-miterlimit="10" enable-background="new    " x1="0.091" y1="20.122" x2="281.939" y2="20.122"/>
	
		<line opacity="0.1" fill="none" stroke="#262426" stroke-width="0.25" stroke-miterlimit="10" enable-background="new    " x1="0.091" y1="21.455" x2="281.939" y2="21.455"/>
	
		<line opacity="0.1" fill="none" stroke="#262426" stroke-width="0.25" stroke-miterlimit="10" enable-background="new    " x1="0.091" y1="22.789" x2="281.939" y2="22.789"/>
	
		<line opacity="0.1" fill="none" stroke="#262426" stroke-width="0.25" stroke-miterlimit="10" enable-background="new    " x1="0.091" y1="24.122" x2="281.939" y2="24.122"/>
	
		<line opacity="0.1" fill="none" stroke="#262426" stroke-width="0.25" stroke-miterlimit="10" enable-background="new    " x1="0.091" y1="25.455" x2="281.939" y2="25.455"/>
	
		<line opacity="0.1" fill="none" stroke="#262426" stroke-width="0.25" stroke-miterlimit="10" enable-background="new    " x1="0.091" y1="26.789" x2="281.939" y2="26.789"/>
	
		<line opacity="0.1" fill="none" stroke="#262426" stroke-width="0.25" stroke-miterlimit="10" enable-background="new    " x1="0.091" y1="28.122" x2="281.939" y2="28.122"/>
	
		<line opacity="0.1" fill="none" stroke="#262426" stroke-width="0.25" stroke-miterlimit="10" enable-background="new    " x1="0.091" y1="29.455" x2="281.939" y2="29.455"/>
	
		<line opacity="0.1" fill="none" stroke="#262426" stroke-width="0.25" stroke-miterlimit="10" enable-background="new    " x1="0.091" y1="30.789" x2="281.939" y2="30.789"/>
	
		<line opacity="0.1" fill="none" stroke="#262426" stroke-width="0.25" stroke-miterlimit="10" enable-background="new    " x1="0.091" y1="32.122" x2="281.939" y2="32.122"/>
	
		<line opacity="0.1" fill="none" stroke="#262426" stroke-width="0.25" stroke-miterlimit="10" enable-background="new    " x1="0.091" y1="33.455" x2="281.939" y2="33.455"/>
	
		<line opacity="0.1" fill="none" stroke="#262426" stroke-width="0.25" stroke-miterlimit="10" enable-background="new    " x1="0.091" y1="44.122" x2="281.939" y2="44.122"/>
	
		<line opacity="0.1" fill="none" stroke="#262426" stroke-width="0.25" stroke-miterlimit="10" enable-background="new    " x1="0.091" y1="34.789" x2="281.939" y2="34.789"/>
	
		<line opacity="0.1" fill="none" stroke="#262426" stroke-width="0.25" stroke-miterlimit="10" enable-background="new    " x1="0.091" y1="36.122" x2="281.939" y2="36.122"/>
	
		<line opacity="0.1" fill="none" stroke="#262426" stroke-width="0.25" stroke-miterlimit="10" enable-background="new    " x1="0.091" y1="37.455" x2="281.939" y2="37.455"/>
	
		<line opacity="0.1" fill="none" stroke="#262426" stroke-width="0.25" stroke-miterlimit="10" enable-background="new    " x1="0.091" y1="38.789" x2="281.939" y2="38.789"/>
	
		<line opacity="0.1" fill="none" stroke="#262426" stroke-width="0.25" stroke-miterlimit="10" enable-background="new    " x1="0.091" y1="40.122" x2="281.939" y2="40.122"/>
	
		<line opacity="0.1" fill="none" stroke="#262426" stroke-width="0.25" stroke-miterlimit="10" enable-background="new    " x1="0.091" y1="41.455" x2="281.939" y2="41.455"/>
	
		<line opacity="0.1" fill="none" stroke="#262426" stroke-width="0.25" stroke-miterlimit="10" enable-background="new    " x1="0.091" y1="42.789" x2="281.939" y2="42.789"/>
</g>
<g id="Layer_4">
	<g>
		<path fill="#FFFFFF" stroke="#262426" stroke-miterlimit="10" d="M6.544,13.902h17.398v3.744h-6.814v13.537h-3.769V17.645H6.545
			L6.544,13.902L6.544,13.902z"/>
		<path fill="#FFFFFF" stroke="#262426" stroke-miterlimit="10" d="M41.871,13.902v3.744H29.596v3.023h9.883v3.744h-9.883v3.024
			h12.275v3.743H25.803V13.902H41.871z"/>
		<path fill="#FFFFFF" stroke="#262426" stroke-miterlimit="10" d="M61.638,17.477v4.464c0,0.977-0.354,1.812-1.063,2.509
			c-0.709,0.694-1.555,1.043-2.537,1.043h-0.169l3.77,4.416v1.271h-3.867l-4.809-5.688l-4.978,0.024
			c0.048,0,0.072,0.047,0.072,0.144c-0.032,0-0.056-0.008-0.072-0.022v5.544h-3.746V13.926h13.798c0.982,0,1.828,0.348,2.537,1.044
			C61.283,15.665,61.638,16.502,61.638,17.477z M47.985,17.645v4.104h9.859v-4.104H47.985z"/>
		<path fill="#FFFFFF" stroke="#262426" stroke-miterlimit="10" d="M81.572,17.477v4.464c0,0.977-0.354,1.812-1.063,2.509
			c-0.708,0.694-1.554,1.043-2.537,1.043h-0.169l3.77,4.416v1.271h-3.866l-4.809-5.688l-4.978,0.024
			c0.048,0,0.073,0.047,0.073,0.144c-0.033,0-0.057-0.008-0.073-0.022v5.544h-3.745V13.926h13.797c0.983,0,1.829,0.348,2.537,1.044
			C81.218,15.665,81.572,16.502,81.572,17.477z M67.92,17.645v4.104h9.858v-4.104H67.92z"/>
		<path fill="#FFFFFF" stroke="#262426" stroke-miterlimit="10" d="M87.758,13.902h10.221c0.999,0,1.848,0.348,2.549,1.044
			c0.701,0.696,1.051,1.532,1.051,2.508v13.729h-3.793v-5.567h-9.859v5.567h-3.746V17.454c0-0.992,0.347-1.832,1.04-2.52
			C85.914,14.246,86.758,13.902,87.758,13.902z M87.927,21.87h9.859v-4.225h-9.859V21.87z"/>
		<path fill="#FFFFFF" stroke="#262426" stroke-miterlimit="10" d="M121.683,17.645H108.08v9.792h13.604v3.743h-13.773
			c-0.999,0-1.844-0.344-2.537-1.032c-0.693-0.688-1.039-1.526-1.039-2.52V17.454c0-0.992,0.346-1.832,1.039-2.52
			s1.538-1.032,2.537-1.032h13.773L121.683,17.645L121.683,17.645z"/>
		<path fill="#FFFFFF" stroke="#262426" stroke-miterlimit="10" d="M138.236,13.902h3.743v17.28h-3.743v-6.77h-10.271v6.77h-3.746
			v-17.28h3.746v6.767h10.271V13.902z"/>
		<path fill="#FFFFFF" stroke="#262426" stroke-miterlimit="10" d="M148.384,13.902h10.22c0.999,0,1.849,0.348,2.551,1.044
			c0.698,0.696,1.05,1.532,1.05,2.508v13.729h-3.793v-5.567h-9.858v5.567h-3.746V17.454c0-0.992,0.347-1.832,1.037-2.52
			C146.537,14.246,147.385,13.902,148.384,13.902z M148.553,21.87h9.858v-4.225h-9.858V21.87z"/>
		<path fill="#FFFFFF" stroke="#262426" stroke-miterlimit="10" d="M178.564,25.422v-11.52h3.794v17.28h-3.866l-9.787-11.568v11.568
			h-3.746v-17.28h3.866L178.564,25.422z"/>
		<path fill="#FFFFFF" stroke="#262426" stroke-miterlimit="10" d="M185.088,31.183v-17.28h3.77v17.28H185.088z"/>
		<path fill="#FFFFFF" stroke="#262426" stroke-miterlimit="10" d="M207.729,17.645h-13.604v9.792h13.604v3.743h-13.773
			c-1.001,0-1.847-0.344-2.538-1.032c-0.692-0.688-1.037-1.526-1.037-2.52V17.454c0-0.992,0.347-1.832,1.037-2.52
			c0.693-0.688,1.537-1.032,2.538-1.032h13.773V17.645z"/>
		<path fill="#FFFFFF" stroke="#262426" stroke-miterlimit="10" d="M227.518,17.454v1.608h-3.793v-1.417h-9.858v3.023h10.076
			c0.981,0,1.823,0.349,2.525,1.045c0.7,0.695,1.05,1.532,1.05,2.508v3.408c0,0.977-0.35,1.813-1.05,2.508
			c-0.702,0.696-1.544,1.044-2.525,1.044h-10.245c-0.983,0-1.824-0.344-2.526-1.032c-0.7-0.688-1.051-1.526-1.051-2.52v-1.607h3.746
			v1.416h9.858v-3.024h-10.027c-0.983,0-1.824-0.344-2.526-1.031c-0.7-0.688-1.051-1.526-1.051-2.52v-3.408
			c0-0.992,0.351-1.832,1.051-2.52c0.702-0.688,1.543-1.032,2.526-1.032h10.245c0.981,0,1.823,0.348,2.525,1.044
			C227.168,15.642,227.518,16.478,227.518,17.454z"/>
	</g>
</g>
</svg>
