<?xml version="1.0" encoding="utf-8"?>
<!-- Generator: Adobe Illustrator 16.0.3, SVG Export Plug-In . SVG Version: 6.00 Build 0)  -->
<!DOCTYPE svg PUBLIC "-//W3C//DTD SVG 1.1//EN" "http://www.w3.org/Graphics/SVG/1.1/DTD/svg11.dtd">
<svg version="1.1" xmlns="http://www.w3.org/2000/svg" xmlns:xlink="http://www.w3.org/1999/xlink" x="0px" y="0px" width="282px"
	 height="44px" viewBox="-19 -8 282 44" enable-background="new -19 -8 282 44" xml:space="preserve">
<g id="Layer_2">
	<rect x="-18.999" y="-8" fill="#262426" width="281.999" height="44"/>
</g>
<g id="Layer_1">
	<g>
		<g>
			<path fill="#FFFFFF" d="M18.812,22.356l1.692,0.422v0.281h-5.78v-0.281l1.692-0.424V3.889h-2.96c0,0.79-0.16,1.522-0.479,2.199
				c-0.32,0.677-0.724,1.259-1.212,1.748h-0.283c0.018-0.244,0.037-0.498,0.056-0.761c0.019-0.226,0.037-0.465,0.056-0.719
				c0.019-0.253,0.028-0.512,0.028-0.775c0-0.356-0.01-0.671-0.028-0.944c-0.019-0.273-0.037-0.513-0.056-0.72
				c-0.019-0.226-0.038-0.423-0.056-0.592h12.264c-0.038,0.169-0.066,0.367-0.085,0.592c-0.019,0.207-0.033,0.447-0.042,0.719
				c-0.01,0.273-0.014,0.588-0.014,0.944c0,0.264,0.004,0.522,0.014,0.775c0.009,0.254,0.023,0.494,0.042,0.719
				c0.019,0.263,0.047,0.517,0.085,0.761h-0.282c-0.489-0.489-0.893-1.071-1.212-1.748c-0.32-0.677-0.479-1.41-0.479-2.199h-2.96
				L18.812,22.356L18.812,22.356z"/>
			<path fill="#FFFFFF" d="M31.076,3.325c1.203,0,2.246,0.132,3.13,0.395c0.883,0.263,1.616,0.62,2.199,1.071
				c0.582,0.451,1.015,0.973,1.297,1.564c0.282,0.592,0.423,1.227,0.423,1.903c0,0.545-0.08,1.029-0.24,1.452
				s-0.367,0.799-0.62,1.127c-0.254,0.329-0.55,0.606-0.888,0.832c-0.338,0.225-0.677,0.414-1.015,0.563
				c-0.808,0.357-1.72,0.583-2.735,0.677c0.827,0.094,1.579,0.292,2.256,0.592c0.582,0.263,1.127,0.648,1.635,1.156
				c0.507,0.507,0.808,1.193,0.902,2.058l0.564,4.935c0.038,0.356,0.122,0.61,0.254,0.762c0.131,0.15,0.282,0.226,0.451,0.226
				c0.094,0,0.192-0.032,0.296-0.099c0.103-0.065,0.202-0.146,0.296-0.24c0.094-0.094,0.179-0.216,0.254-0.365l0.282,0.281
				c-0.113,0.244-0.272,0.461-0.479,0.648c-0.169,0.149-0.391,0.291-0.663,0.423c-0.273,0.131-0.597,0.196-0.973,0.196
				c-0.639,0-1.161-0.184-1.565-0.549c-0.404-0.367-0.634-0.795-0.691-1.283l-0.563-4.935c-0.076-0.639-0.198-1.179-0.367-1.621
				c-0.169-0.44-0.399-0.804-0.691-1.085s-0.663-0.487-1.114-0.62c-0.451-0.131-0.996-0.197-1.635-0.197h-1.127v9.163l1.691,0.424
				v0.281h-5.78v-0.281l1.692-0.424V4.03L25.86,3.607V3.325H31.076z M35.447,8.259c0-1.41-0.376-2.49-1.127-3.242
				c-0.752-0.752-1.833-1.128-3.243-1.128H29.95v8.74h1.127c1.41,0,2.491-0.376,3.243-1.128C35.071,10.75,35.447,9.669,35.447,8.259
				z"/>
			<path fill="#FFFFFF" d="M53.772,17.422c0,2.124-0.437,3.665-1.311,4.624c-0.874,0.958-2.129,1.438-3.764,1.438
				c-1.917,0-3.407-0.53-4.469-1.592c-1.061-1.063-1.592-2.553-1.592-4.47V4.03l-1.692-0.423V3.325h5.78v0.282L45.033,4.03v13.392
				c0,1.897,0.375,3.289,1.127,4.173c0.752,0.885,1.692,1.325,2.819,1.325c0.639,0,1.217-0.108,1.734-0.324s0.958-0.55,1.325-1.001
				c0.367-0.451,0.653-1.02,0.86-1.706c0.207-0.686,0.31-1.509,0.31-2.467V4.312l-1.832-0.705V3.325h4.229v0.282l-1.833,0.705
				V17.422z"/>
			<path fill="#FFFFFF" d="M58.988,6.99c0,0.771,0.225,1.433,0.676,1.987c0.451,0.555,1.015,1.067,1.692,1.537
				c0.677,0.47,1.414,0.931,2.213,1.381c0.799,0.451,1.537,0.964,2.213,1.537c0.677,0.574,1.241,1.246,1.692,2.017
				c0.451,0.77,0.676,1.711,0.676,2.818c0,0.733-0.131,1.42-0.395,2.06c-0.263,0.639-0.634,1.192-1.114,1.663
				c-0.479,0.47-1.048,0.837-1.706,1.1c-0.658,0.264-1.372,0.395-2.143,0.395c-0.715,0-1.325-0.069-1.833-0.211
				c-0.507-0.142-0.93-0.306-1.269-0.494c-0.395-0.205-0.724-0.44-0.987-0.703c-0.15,0.281-0.353,0.545-0.606,0.789
				c-0.254,0.244-0.522,0.404-0.804,0.479H56.87c0.019-0.264,0.038-0.545,0.056-0.846c0.019-0.244,0.038-0.518,0.057-0.818
				c0.019-0.3,0.028-0.592,0.028-0.874c0-0.319-0.01-0.634-0.028-0.944c-0.019-0.31-0.038-0.597-0.057-0.858
				c-0.019-0.301-0.038-0.593-0.056-0.874h0.423c0.432,1.561,1.057,2.749,1.875,3.566c0.817,0.816,1.931,1.227,3.341,1.227
				c1.128,0,2.044-0.361,2.749-1.086s1.057-1.725,1.057-3.003c0-0.771-0.226-1.433-0.677-1.987
				c-0.451-0.554-1.015-1.066-1.691-1.535c-0.676-0.471-1.415-0.932-2.213-1.383c-0.798-0.45-1.537-0.963-2.213-1.537
				c-0.677-0.573-1.241-1.245-1.692-2.016c-0.451-0.771-0.677-1.71-0.677-2.819c0-0.639,0.122-1.24,0.367-1.804
				c0.244-0.564,0.583-1.057,1.015-1.48c0.432-0.423,0.939-0.756,1.522-1c0.582-0.244,1.212-0.367,1.889-0.367
				c0.564,0,1.062,0.075,1.495,0.226c0.432,0.151,0.798,0.31,1.1,0.479c0.338,0.207,0.648,0.441,0.93,0.705
				c0.15-0.282,0.353-0.545,0.606-0.79C66.33,3.28,66.598,3.12,66.88,3.045h0.423c-0.038,0.282-0.066,0.564-0.084,0.846
				c-0.019,0.263-0.033,0.541-0.042,0.832c-0.009,0.292-0.014,0.578-0.014,0.86c0,0.32,0.005,0.635,0.014,0.945
				s0.023,0.597,0.042,0.86c0.019,0.301,0.047,0.592,0.084,0.874H66.88c-0.433-1.56-1.034-2.749-1.804-3.566
				c-0.771-0.818-1.72-1.227-2.848-1.227c-0.921,0-1.692,0.32-2.312,0.958C59.298,5.064,58.988,5.919,58.988,6.99z"/>
			<path fill="#FFFFFF" d="M76.891,22.356l1.691,0.422v0.283h-5.78v-0.283l1.692-0.424V3.889h-2.96c0,0.79-0.16,1.522-0.479,2.199
				c-0.32,0.677-0.724,1.259-1.212,1.748h-0.282c0.019-0.244,0.038-0.498,0.057-0.761c0.018-0.226,0.037-0.466,0.056-0.719
				s0.028-0.512,0.028-0.775c0-0.356-0.01-0.671-0.028-0.944c-0.019-0.273-0.038-0.513-0.057-0.72
				c-0.019-0.226-0.038-0.423-0.057-0.592h12.265c-0.038,0.169-0.066,0.367-0.085,0.592c-0.019,0.207-0.033,0.447-0.042,0.719
				c-0.01,0.273-0.014,0.588-0.014,0.944c0,0.264,0.004,0.522,0.014,0.775c0.009,0.254,0.023,0.494,0.042,0.719
				c0.019,0.263,0.047,0.517,0.085,0.761h-0.282c-0.489-0.489-0.893-1.071-1.212-1.748c-0.32-0.677-0.479-1.41-0.479-2.199h-2.96
				L76.891,22.356L76.891,22.356z"/>
		</g>
		<g>
			<path fill="#FFFFFF" d="M117.771,23.062v-0.283l1.692-0.424V4.03l-1.692-0.423V3.325h5.075c0.883,0,1.649,0.099,2.298,0.296
				c0.648,0.198,1.188,0.47,1.621,0.818c0.432,0.348,0.756,0.752,0.973,1.212s0.324,0.954,0.324,1.48c0,0.414-0.063,0.78-0.184,1.1
				c-0.122,0.32-0.281,0.597-0.479,0.832s-0.424,0.442-0.677,0.621c-0.254,0.179-0.513,0.324-0.774,0.437
				c-0.621,0.282-1.326,0.46-2.115,0.536c1.166,0.113,2.199,0.404,3.102,0.874c0.395,0.207,0.775,0.456,1.143,0.747
				c0.367,0.292,0.694,0.648,0.986,1.072c0.291,0.423,0.525,0.911,0.705,1.466c0.178,0.555,0.268,1.188,0.268,1.902
				c0,0.885-0.168,1.711-0.508,2.48c-0.338,0.771-0.822,1.443-1.451,2.017c-0.631,0.574-1.387,1.024-2.271,1.354
				s-1.87,0.492-2.96,0.492H117.771L117.771,23.062z M121.859,10.373h0.987c0.847-0.018,1.526-0.296,2.044-0.832
				s0.775-1.339,0.775-2.411c0-1.072-0.26-1.879-0.775-2.425c-0.518-0.545-1.197-0.817-2.044-0.817h-0.987V10.373z M121.859,10.937
				v11.56h0.987c0.64,0,1.229-0.122,1.776-0.367c0.545-0.244,1.02-0.609,1.424-1.1c0.402-0.488,0.723-1.09,0.958-1.805
				s0.353-1.551,0.353-2.51c0-0.958-0.117-1.795-0.353-2.509s-0.556-1.314-0.958-1.804c-0.404-0.489-0.879-0.855-1.424-1.1
				c-0.547-0.244-1.139-0.367-1.776-0.367L121.859,10.937L121.859,10.937z"/>
			<path fill="#FFFFFF" d="M139.621,17.28h-5.779l-1.409,4.793l1.832,0.705v0.281h-4.229v-0.281l1.832-0.705l5.498-19.171h0.424
				l5.921,19.455l1.69,0.422v0.283h-5.921v-0.283l1.692-0.424L139.621,17.28z M133.984,16.745h5.469l-2.819-9.332L133.984,16.745z"
				/>
			<path fill="#FFFFFF" d="M150.195,22.497h5.074c0-0.79,0.159-1.521,0.479-2.199c0.32-0.677,0.725-1.26,1.213-1.748h0.281
				c-0.037,0.244-0.065,0.498-0.084,0.762c-0.02,0.226-0.033,0.471-0.043,0.732c-0.01,0.264-0.014,0.518-0.014,0.761
				c0,0.357,0.004,0.673,0.014,0.945s0.023,0.512,0.043,0.719c0.019,0.226,0.047,0.423,0.084,0.593h-11.135v-0.283l1.69-0.424V4.03
				l-1.69-0.423V3.325h5.779v0.282l-1.691,0.423V22.497z"/>
			<path fill="#FFFFFF" d="M167.533,17.28h-5.78l-1.409,4.793l1.832,0.705v0.281h-4.229v-0.281l1.832-0.705l5.498-19.171h0.422
				l5.922,19.455l1.69,0.422v0.283h-5.921v-0.283l1.691-0.424L167.533,17.28z M161.895,16.745h5.469l-2.818-9.332L161.895,16.745z"
				/>
			<path fill="#FFFFFF" d="M185.718,4.312l-1.832-0.705V3.325h4.229v0.282l-1.832,0.705v19.031h-0.424l-9.586-17.622v16.353
				l1.832,0.705v0.281h-4.229v-0.281l1.832-0.705V4.17l-1.832-0.563V3.325h3.806l8.035,14.802V4.312z"/>
			<path fill="#FFFFFF" d="M197.277,3.466c-0.525,0-1.043,0.15-1.551,0.451c-0.507,0.301-0.958,0.822-1.354,1.564
				c-0.396,0.743-0.715,1.739-0.959,2.989s-0.365,2.824-0.365,4.724c0,1.898,0.121,3.472,0.365,4.722s0.574,2.246,0.986,2.988
				c0.413,0.742,0.894,1.265,1.438,1.564c0.545,0.301,1.118,0.451,1.72,0.451c0.488,0,0.986-0.132,1.494-0.396
				c0.508-0.263,0.973-0.629,1.396-1.099c0.422-0.47,0.779-1.024,1.07-1.664c0.291-0.639,0.475-1.325,0.551-2.058h0.422
				c-0.074,0.846-0.264,1.621-0.563,2.324c-0.301,0.705-0.682,1.316-1.143,1.834s-0.991,0.916-1.594,1.197
				c-0.602,0.282-1.24,0.424-1.916,0.424c-0.885,0-1.738-0.211-2.565-0.636c-0.827-0.423-1.563-1.062-2.214-1.917
				c-0.647-0.854-1.166-1.926-1.551-3.214c-0.386-1.287-0.578-2.796-0.578-4.525c0-1.729,0.192-3.237,0.578-4.524
				c0.385-1.287,0.894-2.358,1.522-3.214c0.629-0.855,1.339-1.495,2.128-1.917c0.79-0.423,1.589-0.634,2.396-0.634
				c0.451,0,0.859,0.075,1.227,0.226s0.682,0.32,0.943,0.507c0.302,0.207,0.564,0.442,0.791,0.705
				c0.149-0.282,0.353-0.55,0.605-0.804c0.254-0.253,0.521-0.418,0.803-0.493h0.424c-0.037,0.282-0.065,0.564-0.084,0.846
				c-0.021,0.263-0.033,0.541-0.043,0.832c-0.01,0.292-0.015,0.578-0.015,0.86c0,0.32,0.005,0.635,0.015,0.945
				s0.022,0.597,0.043,0.86c0.019,0.301,0.047,0.592,0.084,0.874h-0.424c-0.433-1.56-1.01-2.749-1.732-3.566
				S198.123,3.466,197.277,3.466z"/>
			<path fill="#FFFFFF" d="M214.053,22.497c0-0.79,0.159-1.521,0.479-2.199c0.32-0.677,0.725-1.26,1.213-1.748h0.281
				c-0.037,0.244-0.064,0.498-0.084,0.762c-0.02,0.226-0.033,0.471-0.041,0.732c-0.011,0.264-0.016,0.518-0.016,0.761
				c0,0.357,0.005,0.673,0.016,0.945c0.008,0.272,0.021,0.512,0.041,0.719c0.02,0.226,0.047,0.423,0.084,0.593h-11.699v-0.283
				l1.69-0.424V4.03l-1.69-0.423V3.325h11.418c-0.037,0.169-0.065,0.367-0.084,0.592c-0.02,0.207-0.033,0.447-0.043,0.719
				c-0.01,0.273-0.015,0.588-0.015,0.944c0,0.264,0.005,0.522,0.015,0.775c0.01,0.254,0.023,0.494,0.043,0.719
				c0.019,0.263,0.047,0.517,0.084,0.761h-0.281c-0.489-0.489-0.893-1.071-1.212-1.748c-0.32-0.677-0.479-1.41-0.479-2.199h-5.357
				v8.458h2.68l1.27-2.537h0.281v5.639h-0.281l-1.27-2.538h-2.68v9.586L214.053,22.497L214.053,22.497z"/>
			<path fill="#FFFFFF" d="M223.779,3.325c1.203,0,2.246,0.132,3.129,0.395c0.883,0.263,1.617,0.62,2.199,1.071
				s1.016,0.973,1.297,1.564c0.282,0.592,0.424,1.227,0.424,1.903c0,0.545-0.08,1.029-0.24,1.452
				c-0.159,0.423-0.366,0.799-0.62,1.127c-0.253,0.329-0.55,0.606-0.888,0.832c-0.34,0.225-0.678,0.414-1.016,0.563
				c-0.809,0.357-1.721,0.583-2.734,0.677c0.826,0.094,1.578,0.292,2.256,0.592c0.582,0.263,1.128,0.648,1.635,1.156
				c0.508,0.507,0.809,1.193,0.902,2.058l0.563,4.935c0.037,0.356,0.121,0.61,0.253,0.762c0.133,0.15,0.282,0.226,0.451,0.226
				c0.094,0,0.191-0.032,0.296-0.099c0.104-0.065,0.202-0.146,0.298-0.24c0.094-0.094,0.178-0.216,0.252-0.365l0.282,0.281
				c-0.112,0.244-0.272,0.461-0.479,0.648c-0.168,0.149-0.389,0.291-0.661,0.423c-0.272,0.131-0.597,0.196-0.974,0.196
				c-0.64,0-1.16-0.184-1.563-0.549c-0.405-0.367-0.636-0.795-0.69-1.283l-0.563-4.935c-0.075-0.639-0.197-1.179-0.367-1.621
				c-0.169-0.44-0.399-0.804-0.69-1.085s-0.662-0.487-1.113-0.62c-0.45-0.131-0.996-0.197-1.635-0.197h-1.129v9.163l1.692,0.424
				v0.281h-5.78v-0.281l1.691-0.424V4.03l-1.691-0.423V3.325H223.779z M228.148,8.259c0-1.41-0.376-2.49-1.128-3.242
				s-1.832-1.128-3.241-1.128h-1.129v8.74h1.129c1.409,0,2.489-0.376,3.241-1.128C227.772,10.75,228.148,9.669,228.148,8.259z"/>
		</g>
		<polygon fill="#FFFFFF" points="90.661,21.498 86.863,21.5 86.863,6.846 90.661,6.842 		"/>
		<path fill="#FFFFFF" d="M93.765,8.467c0,0-1.396,1.557-0.22,2.644c1.177,1.085,5.654-1.03,5.654-1.03s7.207,2.521,7.765,4.091
			c0.214,0.603-0.305,1.25-0.667,1.34c-0.249,0.063-0.961,0.063-0.961,0.063c-0.294,0.039-0.316,0.182-0.316,0.182
			s0.532,0.768,0.514,1.146c-0.016,0.373-0.407,0.525-0.407,0.525s-0.885,0.067-1.188,0.102c-0.189,0.022-0.231,0.217-0.231,0.217
			c0.065,0.206,0.213,0.506,0.181,0.68c-0.118,0.645-0.815,0.723-0.815,0.723s-0.601-0.063-0.864-0.023
			c-0.169,0.029-0.266,0.203-0.266,0.203c0.052,0.223,0.332,0.52,0.317,0.713c-0.022,0.281-0.526,0.693-0.781,0.814
			c-0.277,0.133-1.221,0.104-1.221,0.104S95,19.772,93.201,18.653c-0.567-0.354-1.796,0.36-1.796,0.36V8.428L93.765,8.467z"/>
		<path fill="#FFFFFF" d="M100.765,5.758c0,0-6.796,2.466-6.887,3.733c0,0-0.124,1.593,1.732,1.323c0,0,2.487-0.806,3.515-1.32
			c0.855-0.428,6.75,2.392,7.636,3.084c1.243,0.973,0.451,2.069,1.802,3.222V8.099c0,0-3.387-2.272-4.404-2.646
			C103.136,5.077,102.078,5.261,100.765,5.758z"/>
		<polygon fill="#FFFFFF" points="113.275,21.498 109.476,21.5 109.476,6.846 113.275,6.842 		"/>
	</g>
</g>
<g id="Layer_3" display="none">
	<g display="inline">
		<rect x="263" y="-8" fill="none" width="5.834" height="44"/>
		<path fill="#BE1E2D" d="M130.103,36h1.262c-1.455-1.685-2.492-3.786-4.097-5.323C128.225,32.479,129.16,34.26,130.103,36z"/>
		<path fill="#BE1E2D" d="M153.916,31.208c4.36,0.316,7.144,2.38,10.656,1.064C160.563,32.608,157.777,30.14,153.916,31.208z"/>
		<path fill="#BE1E2D" d="M151.25,22.15c0.731,1.212-1.373,1.999,0,2.129c0.423-1.174,2.508-0.693,2.666-2.129
			C152.896,21.148,152.949,22.463,151.25,22.15z"/>
		<path fill="#BE1E2D" d="M233.312-8c0.05,4.805-0.246,9.624-0.516,13.092c-0.809,10.368-4.342,22.271-7.589,30.908H263V-8H233.312z
			"/>
		<path fill="#BE1E2D" d="M126.2,18.416c1.366,0.059,2.54,0.304,3.197,1.067c-0.243,3.059,0.571,4.232,0,6.396
			c-0.808-1.519-3.452-1.517-4.264-1.601c0.233-2.722-0.49-4.484-2.663-4.796c1.321,7.85,6.558,11.546,9.729,16.517h2.066
			c-1.594-5.233-2.299-11.16-2.202-17.584C130.135,18.719,127.644,16.836,126.2,18.416z"/>
		<path fill="#BE1E2D" d="M38.258,34.939c-0.049,0.288-0.272,0.672-0.627,1.061h3.294c0.237-0.294,0.425-0.637,0.532-1.061
			C39.788,33.886,38.955,35.747,38.258,34.939z"/>
		<path fill="#BE1E2D" d="M69.704,35.472c-1.282,0.218-1.157-0.973-2.664-0.532c-0.098,0.437-0.324,0.745-0.543,1.061H67.1
			C67.593,34.784,70.853,36.863,69.704,35.472z"/>
		<path fill="#BE1E2D" d="M141.126,25.347c-0.026,1.018,3.977,2.121,3.729,0C143.347,25.903,141.199,24.466,141.126,25.347z"/>
		<path fill="#BE1E2D" d="M207.216,15.754c-1.022,7.115-5.148,12.952-5.246,20.246h3.979
			C208.405,29.745,210.099,21.881,207.216,15.754z"/>
		<path fill="#BE1E2D" d="M149.653,27.478c0.086-1.334-0.82-1.668-1.603-2.131c-0.306,0.322-1.249,2.527,0,2.664
			C148.145,27.391,148.894,27.433,149.653,27.478z"/>
		<path fill="#BE1E2D" d="M133.127,25.88c2.55,2.832-0.427,1.833,0.533,5.328C136.532,31.3,136.738,25.079,133.127,25.88z"/>
		<path fill="#BE1E2D" d="M103.28-5.568c0.544-0.022,1.177-0.481,1.602-1.06c0-0.001,0-0.002,0-0.003c0,0,0.001,0,0.001,0
			c0.317-0.434,0.512-0.933,0.469-1.369h-0.516C104.5-7.006,103.043-7.136,103.28-5.568z"/>
		<path fill="#BE1E2D" d="M212.013,18.951c2.566,0.415,7.634-0.268,9.06-2.665c-1.516-7.467-2.957-16.68-4.251-24.286h-1.203
			c1.83,4.251,1.183,10.361,1.615,13.531c0.01,0.07,0.022,0.131,0.033,0.198c0.02,0.147,0.035,0.299,0.072,0.429
			c-0.037-0.13-0.053-0.281-0.072-0.429c-0.011-0.067-0.023-0.128-0.033-0.198c-0.05-0.239-0.147-0.431-0.43-0.439
			c-0.901,2.553,2.312,4.043,0,4.797c-0.084-0.627,0.098-1.514-0.528-1.598c-0.797,0.673-0.954,2.825-2.134,1.598
			c0,1.067,0,2.135,0,3.199c1.374,1.581,3.014-0.42,3.197,2.133c-3.869-0.481-2.932-0.976-5.86-1.068
			c-5.175-14.954-29.229-10.384-48.502-12.257c5.093-0.203,12.596-0.25,18.652,0c1.808,0.074,8.396,0.366,7.463-0.534
			c-1.243,0-2.49,0-3.729,0c-1.729-1.466-6.833,0.434-8.528-1.066c2.94,0.177-1.973-2.991,1.064-1.598
			c0.208-2.553-2.568,0.916-2.664-1.599c2.858,0.11-1.132-1.882-2.334-0.828c0.128,0.187,0.064,0.445-0.333,0.828
			c-0.007-0.387,0.127-0.647,0.333-0.828c-0.305-0.445-1.718-0.479-2.462-0.771c-0.265,2.396,2.767,1.496,3.729,2.664
			c-1.726-0.438-4.609,0.665-4.798,0c0.01-0.704,0.938-0.486,1.069-1.065c-1.341-0.403-3.372-3.464-4.265-1.067
			c1.088-0.455,2.937,0.842,1.602,1.067c-1.089-1.224-3.502-1.124-4.266-2.667c0.793-0.998,5.514,0.988,3.197-1.063
			c2.854,0.185,7.122,0.299,8.527,0.532c-1.291-0.503-4.646-1.576-7.477-1.9h-2.707c-0.705,0.127-1.254,0.386-1.541,0.834
			c-0.427-0.697-2.39-0.341-2.575-0.834h-1.636c-0.958,0.627-1.841,1.261-2.72,0.302c0.144-0.113,0.292-0.212,0.443-0.302h-10.005
			c-3.842,0.484-7.932,1.011-10.689,4.031c1.544,0.26,3.063-2.207,3.729-1.065c-3.427,1.807-7.446,4.722-10.125,3.198
			c0.042,1.985,0.797,1.721-0.535,2.665c4.089,0.352,9.59-0.703,12.79,0.532c-19.486-0.811-34.048,1.709-53.828,0
			c7.64-0.353,16.696,0.71,23.449-0.532c-4.115-0.678-2.79-6.805-6.924-7.46c0,0.001-0.001,0.002-0.002,0.003
			c-0.388,1.448,1.057,1.068,1.063,2.128c-0.976,1.442-1.805,0.093-2.665,1.064c1.26,0.146,0.328,2.359-0.531,2.133
			c-5.49,1.553-9.27-2.622-13.858-3.197c-2.499-0.315-4.187,2.144-6.393,0c1.375,0.856,4.424-0.301,5.327-1.6
			c-2.578-1.463-3.431,1.366-6.395,1.065c-0.778-0.462-1.688-0.798-1.6-2.132c1.143,1.67,4.3,0.876,5.864,0
			c-4.269,0.747-4.377-0.559-7.996,0C77.806-7.475,77.848-7.75,77.875-8H65.541c-0.736,0.253-1.613,0.539-2.765,0.834
			C62.699-7.503,62.787-7.777,62.888-8h-1.099c-0.991,0.58-2.351,1.025-2.744,0.302c0.413-0.129,0.883-0.2,1.322-0.302h-6.665
			c-0.382,0.527-0.984,0.914-2.119,0.834c0.1-0.379,0.326-0.631,0.603-0.834h-1.66c-0.662,0.33-1.355,0.628-2.142,0.834
			C48.63-7.56,48.825-7.799,48.969-8H-19v44h38.074c-1.619-10.691,0.139-20.966,7.992-24.511C21.435,15.828,18.6,25.113,19.451,36
			h16.172c0.321-0.565,0.558-1.154,0.503-1.596c-4.417,0.915,1.681-3.769,3.198-6.927c1.434,0.521,2.733,1.176,4.264,1.6
			c-0.648,0.581-2.89,2.564,0,2.131c-0.464,0.78-0.798,1.689-2.131,1.601c1.875,0.711,3.813-2.521,6.926-1.066
			c-0.1,0.433-0.534,0.53-0.531,1.066c1.51-0.557,2.221-0.557,3.73,0c1.388,1.042-1.521,0.166-2.132,0
			c0.469,1.778,2.028,2.464,3.548,3.191h2.481c-0.117-1.152-0.449-2.232-2.299-2.124c1.333-1.459,2.052-0.441,4.264-0.532
			c-0.126,0.935-0.916,1.212-2.129,1.061c1.124,0.529,2.166,1.141,3.364,1.596h1.968c-0.275-1.145-2.757-0.085-2.137-2.124
			c2.159,0.066,3.157,0.983,5.863,1.596c-2.418-2.163,3.2,0.355,4.265-1.596c1.384,0.731,2.295,1.94,4.23,2.124h1.11
			c1.155-0.081,0.219-2.26,0.522-3.191c1.824-0.17-0.253,2.463,2.13,2.663c1.492-0.521-0.774-1.42,0.534-2.128
			c0.414,1.047,0.15,1.91-0.39,2.656h19.557c0.19-0.526,0.379-1.054,0.554-1.596c-0.119,0.533-0.258,1.064-0.403,1.596h12.454
			c0.231-0.499,0.481-1.023,0.743-1.596c-1.372-1.427-0.764,1.431-2.134,0c1.134-3.05,1.515-4.716-0.536-6.927
			c2.147-2.402,3.66-5.754,4.798-6.396c1.177-0.697-1.863-1.646-2.128-2.666c2.583-1.631,13.552-0.396,7.458-1.598
			c-1.942-0.385-4.462-1.261-6.396-0.532c0.392-1.453-1.06-1.076-1.062-2.134c0.622-0.083,1.508,0.093,1.595-0.532
			c-2.199-1.547,0.273-5.275-2.663-5.863c0.945-0.12,2.668,0.537,2.13-1.065c-0.477-0.944-2.16-0.68-1.598-2.663
			c4.788-2.811,29.747-3.102,27.717,2.663c2.533-1.03,6.085-3.851,9.056-2.663c-10.43,1.589-13.347,7.635-18.116,12.79
			c5.742,0.502,6.237-9.998,11.725-7.463c-2.247-0.026-4.749,2.607-5.33,5.33c1.972-0.692,3.56-1.766,5.862-2.132
			c0.377,2.006-3.188,2.813-2.134,3.732c1.089-0.477,3.336-2.515,3.731-0.532c0.383,1.445-2.512-0.382-2.13,1.064
			c0.789,0.63,2.381,0.462,2.13,2.133c-1.39,0.441-2.923-1.613-3.731,0c2.274,0.382,2.125,1.597,3.731,1.6
			c-0.878,0.073,0.558,2.221,0,3.729c3.688,1.315,5.925,0.035,8.531-2.664c-2.104-1.005-3.595,0.5-4.27-2.132
			c4.458-1.269,10.779,0.707,13.326,1.599c3.63-1.699,6.952-3.711,8.532-7.462c1.625-0.388,1.565,0.918,3.195,0.532
			c-0.646,1.063-0.438,2.277,0,2.666c0.504-0.351,2.689,0.056,4.264-0.532c0.94,0.482,1.649,1.19,2.129,2.13
			c4.141,0.639,10.117,2.096,13.859,0c0.628-0.082,1.514,0.09,1.601-0.533c-2.42,0.248-4.373,0.958-6.933,1.068
			c-0.086-0.622-0.841-0.577-1.597-0.535c1.072-1.085-0.232-1.045-0.533-2.13c-1.565-0.716-6.766-1.158-4.264-2.666
			c-2.887-0.131-4.86-1.181-5.861-3.197c-4.619-1.604-10.786-1.653-13.326-5.331c1.893,1.677,2.664-0.373,0.531-1.063
			c16.448-1.041,40.684-3.469,47.435,7.461c2.813,4.544,1.884,9.698,1.603,13.324c-0.317,4.114-1.063,7.838-2.202,11.187h2.006
			C211.438,31.12,212.29,25.46,212.013,18.951z M176.302,0.295c-0.552,0.688-5.609,1.372-5.331-0.531
			C173.152,0.632,173.971-0.429,176.302,0.295z M10.544,21.615c-1.327,0.082-1.65-0.837-2.665-1.064
			C8.298,19.328,11.178,20.029,10.544,21.615z M23.336,13.088c-0.478-0.687,1.6-3.351,3.73-3.199
			C26.442,11.572,24.303,11.746,23.336,13.088z M28.132,30.143c0.086-0.616-0.117-0.948-0.533-1.065
			c0.347-0.541,1.225-0.549,1.067-1.6C30.301,27.576,29.785,30.348,28.132,30.143z M40.39,25.88
			c-1.552,0.171-2.804,2.075-5.331,2.665c2.794,1.448-2.3,4.868-2.663,1.598c0.472,0.415,1.204,0.575,2.131,0.534
			c-0.37-0.433-0.83-1.461,0-1.6c-0.389-0.498-0.968-0.805-1.598-1.066c0.924-1.494,1.396-0.502,3.197-0.533
			c-0.523-0.722-1.423-1.066-2.132-1.598c0.503-2.285,2.595,0.722,2.667-1.601c1.416,0.007,3.043-0.2,3.729,0.534
			C40.063,25.286,39.749,25.766,40.39,25.88z M91.025,2.429c-2.85,1.235-7.99,0.184-11.726,0.533
			C82.147,1.726,87.289,2.777,91.025,2.429z M100.086,10.423C95.077,7.256,84.935,4.61,75.567,4.028
			C85.018,2.724,93.898,4.921,100.086,10.423z M79.83,6.158c-2.25-0.589-6.939,1.254-7.46-1.066
			c0.455-0.098,0.504,0.209,0.534,0.534C74.81,5.871,80.54,5.067,79.83,6.158z M75.033,1.361c3.241-1.084-0.87,0.119,0,2.667
			c-0.887,0-1.774,0-2.664,0c0.128-0.94,0.916-1.218,2.133-1.066c-0.406-1.375-1.704-1.852-3.733-1.601
			C69.138,0.712,74.969,0.317,75.033,1.361z M69.704,11.489c0.954-2.197,5.997-1.166,4.798,2.131
			c-0.622-0.087-0.949,0.118-1.065,0.532c-1.553-0.463-0.6-0.797-0.534-2.129c-2.59,0.661,0.377,4.085-3.2,1.064
			C70.383,12.366,71.324,12.023,69.704,11.489z M58.512,5.092c2.843,0,5.687,0,8.529,0C66.737,5.59,65.557,5.9,66.506,6.158
			c-0.187,0.746-0.937,0.047-1.064-0.532C63.535,5.381,57.805,6.185,58.512,5.092z M85.16,26.942
			c0.017-0.514,0.653-0.411,1.067-0.531c-0.928-2.843-3.638,1.816-3.198-1.598c-0.625,1.15-1.106,2.446-1.6,3.731
			c-5.761,0.059-8.102,2.653-10.661,0c-0.429,0.101-0.53,0.532-1.065,0.532c0.299,1.204,0.832-0.648,1.599,0.535
			c-6.048,0.32-9.749-0.343-14.924-3.201c-0.066-1.182,3.464-1.443,1.601-2.663c-0.257-1.342,2.443,1.283,2.664-0.534
			c0.254,1.752,5.918,1.607,9.595,1.6c0.292-1.183-1.017-0.759-1.065-1.6c-1.532,3.609-5.941-3.425-9.06-1.599
			c-0.482-0.939-1.194-1.65-2.134-2.132c0.346-0.904,1.227-0.335,1.065,0.533c6.46,1.567,19.778,2.502,16.522-10.128
			c4.192,0.374,3.318,4.396,6.397,4.797c-0.315,1.701,1,1.648,0,2.665c1.659-0.589,1.905-0.345,1.065,1.065
			c1.725,0.659,0.406-1.724,2.131-1.065c0.439,1.509-0.75,1.383-0.532,2.666c-1.236-0.185-2.5-0.346-2.13-2.134
			c-0.837,0.229-0.456,1.678-2.135,1.068c-0.061,0.546,2.299,1.078,0.535,1.6c0.798,1.236,1.302,0.813,2.666,0.531
			c0.465,1.238,0.465,1.425,0,2.666c0.473-0.415,1.204-0.573,2.131-0.534c-0.139,0.915,1.207,3.357,1.066,1.065
			C88.317,25.193,86.67,27.339,85.16,26.942z M90.492,8.291c1.938-1.03,5.399,0.981,6.396,2.665
			C97.315,11.572,92.865,8.372,90.492,8.291z M99.018,30.677c-0.879-0.827,1.497-7.296,1.6-10.66
			C101.904,23.267,99.479,27.397,99.018,30.677z M145.917,0.829c-1.166,0.055-0.888,0.639-2.663,0.532
			C145.385-0.835,152.12,0.533,145.917,0.829z M161.91,10.423c-0.616,0.79-0.616,1.345,0,2.131c0.497-0.39,0.808-0.968,1.066-1.598
			c0.806,0.465-0.146,0.799,0.533,2.132c-2.351,0.691-2.186-0.028-3.734-1.064c0.109-0.717,2.216-0.994,0-1.067
			C159.941,10.232,161.112,10.515,161.91,10.423z M159.775-7.166c0.63,1.648,1.342-0.082,2.135,1.066
			c1.379,0.274-3.006,0.23,0.534,1.065C161.077-5.404,154.142-5.942,159.775-7.166z M161.377,0.295
			c-0.821-2.242,2.76-0.082,2.663-1.598c0.139,2.075,4.43-1.156,4.263,2.132C166.99-0.517,161.879,0.908,161.377,0.295z
			 M218.403,16.286c-0.885,1.622-5.846,1.339-7.457,0.532C211.577,14.943,216.951,15.642,218.403,16.286z"/>
		<path fill="#FFFFFF" d="M168.303,0.829c0.167-3.288-4.124-0.057-4.263-2.132c0.097,1.516-3.484-0.645-2.663,1.598
			C161.879,0.908,166.99-0.517,168.303,0.829z"/>
		<path fill="#FFFFFF" d="M176.302,0.295c-2.331-0.724-3.149,0.337-5.331-0.531C170.692,1.667,175.75,0.982,176.302,0.295z"/>
		<path fill="#FFFFFF" d="M143.254,1.361c1.775,0.106,1.497-0.478,2.663-0.532C152.12,0.533,145.385-0.835,143.254,1.361z"/>
		<path fill="#FFFFFF" d="M91.025,2.429c-3.736,0.349-8.878-0.703-11.726,0.533C83.035,2.612,88.176,3.664,91.025,2.429z"/>
		<path fill="#FFFFFF" d="M72.904,5.626c-0.03-0.325-0.08-0.632-0.534-0.534c0.521,2.32,5.21,0.478,7.46,1.066
			C80.54,5.067,74.81,5.871,72.904,5.626z"/>
		<path fill="#FFFFFF" d="M69.704,13.088c3.577,3.021,0.609-0.403,3.2-1.064c-0.066,1.332-1.02,1.666,0.534,2.129
			c0.116-0.414,0.443-0.619,1.065-0.532c1.198-3.297-3.844-4.328-4.798-2.131C71.324,12.023,70.383,12.366,69.704,13.088z"/>
		<path fill="#FFFFFF" d="M218.403,16.286c-1.452-0.645-6.826-1.343-7.457,0.532C212.558,17.625,217.519,17.908,218.403,16.286z"/>
		<path fill="#FFFFFF" d="M7.879,20.551c1.015,0.228,1.338,1.146,2.665,1.064C11.178,20.029,8.298,19.328,7.879,20.551z"/>
		<path fill="#FFFFFF" d="M36.661,24.279c-0.072,2.322-2.163-0.685-2.667,1.601c0.709,0.531,1.609,0.876,2.132,1.598
			c-1.8,0.031-2.273-0.961-3.197,0.533c0.629,0.262,1.209,0.568,1.598,1.066c-0.83,0.139-0.37,1.167,0,1.6
			c-0.927,0.041-1.659-0.119-2.131-0.534c0.362,3.271,5.457-0.149,2.663-1.598c2.527-0.59,3.779-2.494,5.331-2.665
			c-0.642-0.114-0.327-0.594,0-1.066C39.704,24.079,38.076,24.286,36.661,24.279z"/>
		<path fill="#FFFFFF" d="M28.666,27.478c0.158,1.051-0.72,1.059-1.067,1.6c0.416,0.117,0.62,0.449,0.533,1.065
			C29.785,30.348,30.301,27.576,28.666,27.478z"/>
		<path fill="none" stroke="#FFFFFF" stroke-width="0" stroke-linecap="round" stroke-linejoin="round" d="M217.339,6.158
			c-0.037-0.13-0.053-0.281-0.072-0.429c-0.011-0.067-0.023-0.128-0.033-0.198"/>
		<path fill="#FFFFFF" d="M62.776-7.166C63.928-7.461,64.805-7.747,65.541-8h-2.653C62.787-7.777,62.699-7.503,62.776-7.166z"/>
		<path fill="#FFFFFF" d="M159.299-8h-2.276c-0.151,0.09-0.3,0.188-0.443,0.302C157.458-6.739,158.341-7.373,159.299-8z"/>
		<path fill="#FFFFFF" d="M50.526-8h-1.557c-0.144,0.201-0.339,0.44-0.585,0.834C49.17-7.372,49.864-7.67,50.526-8z"/>
		<path fill="#FFFFFF" d="M85.694-7.166c-1.564,0.876-4.721,1.67-5.864,0c-0.089,1.334,0.821,1.67,1.6,2.132
			c2.964,0.301,3.816-2.528,6.395-1.065c-0.902,1.299-3.952,2.456-5.327,1.6c2.207,2.144,3.894-0.315,6.393,0
			c4.589,0.575,8.368,4.75,13.858,3.197c0.859,0.227,1.791-1.987,0.531-2.133c0.86-0.972,1.689,0.378,2.665-1.064
			c-0.006-1.061-1.451-0.68-1.063-2.128c-0.425,0.579-1.058,1.038-1.602,1.06c-0.237-1.567,1.22-1.438,1.557-2.432H77.875
			c-0.027,0.25-0.069,0.525-0.177,0.834C81.317-7.725,81.425-6.419,85.694-7.166z"/>
		<path fill="#FFFFFF" d="M51.583-7.166c1.135,0.08,1.736-0.307,2.119-0.834h-1.516C51.909-7.797,51.683-7.545,51.583-7.166z"/>
		<path fill="#FFFFFF" d="M172.9-3.729c-0.206,0.181-0.34,0.44-0.333,0.828C172.965-3.284,173.028-3.542,172.9-3.729z"/>
		<path fill="#FFFFFF" d="M61.789-8h-1.422c-0.439,0.102-0.909,0.173-1.322,0.302C59.438-6.975,60.798-7.42,61.789-8z"/>
		<path fill="#FFFFFF" d="M166.707-6.632c2.316,2.052-2.404,0.065-3.197,1.063c0.764,1.543,3.177,1.443,4.266,2.667
			c1.335-0.226-0.514-1.522-1.602-1.067c0.893-2.396,2.924,0.664,4.265,1.067c-0.131,0.579-1.06,0.361-1.069,1.065
			c0.188,0.665,3.072-0.438,4.798,0c-0.962-1.168-3.993-0.269-3.729-2.664c0.744,0.292,2.157,0.326,2.462,0.771
			c1.202-1.054,5.192,0.938,2.334,0.828c0.096,2.515,2.872-0.954,2.664,1.599c-3.037-1.394,1.876,1.774-1.064,1.598
			c1.695,1.5,6.799-0.399,8.528,1.066c1.239,0,2.486,0,3.729,0c0.934,0.9-5.655,0.608-7.463,0.534c-6.057-0.25-13.56-0.203-18.652,0
			c19.272,1.873,43.327-2.697,48.502,12.257c2.929,0.093,1.991,0.587,5.86,1.068c-0.184-2.553-1.823-0.552-3.197-2.133
			c0-1.064,0-2.132,0-3.199c1.18,1.228,1.337-0.925,2.134-1.598c0.626,0.084,0.444,0.971,0.528,1.598
			c2.312-0.754-0.901-2.244,0-4.797c0.282,0.008,0.38,0.201,0.43,0.439c-0.433-3.17,0.215-9.28-1.615-13.531h-47.86
			c2.83,0.325,6.186,1.397,7.477,1.9C173.829-6.333,169.562-6.447,166.707-6.632z"/>
		<path fill="#FFFFFF" d="M208.275,11.489c-6.751-10.93-30.986-8.502-47.435-7.461c2.133,0.69,1.361,2.74-0.531,1.063
			c2.54,3.678,8.707,3.728,13.326,5.331c1.001,2.017,2.975,3.066,5.861,3.197c-2.502,1.508,2.698,1.95,4.264,2.666
			c0.301,1.085,1.605,1.045,0.533,2.13c0.756-0.042,1.511-0.087,1.597,0.535c2.56-0.11,4.513-0.82,6.933-1.068
			c-0.087,0.623-0.973,0.451-1.601,0.533c-3.742,2.096-9.719,0.639-13.859,0c-0.479-0.939-1.188-1.647-2.129-2.13
			c-1.574,0.588-3.76,0.182-4.264,0.532c-0.438-0.389-0.646-1.604,0-2.666c-1.63,0.386-1.57-0.92-3.195-0.532
			c-1.58,3.751-4.902,5.763-8.532,7.462c-2.547-0.892-8.868-2.867-13.326-1.599c0.675,2.632,2.166,1.127,4.27,2.132
			c-2.606,2.699-4.844,3.979-8.531,2.664c0.558-1.508-0.878-3.655,0-3.729c-1.606-0.003-1.457-1.218-3.731-1.6
			c0.809-1.613,2.342,0.441,3.731,0c0.251-1.671-1.341-1.503-2.13-2.133c-0.382-1.446,2.513,0.381,2.13-1.064
			c-0.396-1.982-2.643,0.056-3.731,0.532c-1.054-0.92,2.511-1.727,2.134-3.732c-2.303,0.366-3.891,1.439-5.862,2.132
			c0.581-2.723,3.083-5.356,5.33-5.33c-5.487-2.535-5.982,7.965-11.725,7.463c4.77-5.155,7.687-11.201,18.116-12.79
			c-2.971-1.188-6.522,1.633-9.056,2.663c2.03-5.765-22.929-5.474-27.717-2.663c-0.563,1.983,1.121,1.719,1.598,2.663
			c0.538,1.603-1.185,0.945-2.13,1.065c2.937,0.588,0.464,4.316,2.663,5.863c-0.087,0.625-0.973,0.449-1.595,0.532
			c0.002,1.058,1.453,0.681,1.062,2.134c1.935-0.729,4.454,0.147,6.396,0.532c6.094,1.202-4.875-0.033-7.458,1.598
			c0.265,1.021,3.305,1.969,2.128,2.666c-1.138,0.642-2.65,3.993-4.798,6.396c2.051,2.211,1.67,3.877,0.536,6.927
			c1.37,1.431,0.762-1.427,2.134,0c-0.262,0.572-0.512,1.097-0.743,1.596h21.165c-0.942-1.74-1.878-3.521-2.835-5.323
			c1.604,1.537,2.642,3.639,4.097,5.323h0.835c-3.171-4.971-8.407-8.667-9.729-16.517c2.173,0.312,2.896,2.074,2.663,4.796
			c0.812,0.084,3.456,0.082,4.264,1.601c0.571-2.164-0.243-3.338,0-6.396c-0.657-0.764-1.831-1.009-3.197-1.067
			c1.443-1.58,3.935,0.303,5.863,0c-0.097,6.424,0.608,12.351,2.202,17.584h67.704c0.098-7.294,4.224-13.131,5.246-20.246
			c2.883,6.127,1.189,13.991-1.267,20.246h1.727c1.14-3.349,1.885-7.072,2.202-11.187C210.159,21.188,211.088,16.033,208.275,11.489
			z M133.66,31.208c-0.96-3.495,2.017-2.496-0.533-5.328C136.738,25.079,136.532,31.3,133.66,31.208z M141.126,25.347
			c0.073-0.881,2.221,0.557,3.729,0C145.103,27.468,141.1,26.364,141.126,25.347z M148.051,28.011c-1.249-0.137-0.306-2.342,0-2.664
			c0.782,0.463,1.688,0.797,1.603,2.131C148.894,27.433,148.145,27.391,148.051,28.011z M152.316,31.208
			C146.31,31.099,149.635,27.771,152.316,31.208L152.316,31.208z M151.25,24.279c-1.373-0.13,0.731-0.917,0-2.129
			c1.699,0.313,1.646-1.002,2.666,0C153.758,23.586,151.673,23.105,151.25,24.279z M153.916,31.208
			c3.861-1.068,6.646,1.4,10.656,1.064C161.06,33.588,158.276,31.524,153.916,31.208z"/>
		<polygon fill="#FFFFFF" points="104.882,-6.628 104.884,-6.631 104.883,-6.632 		"/>
		<path fill="#FFFFFF" d="M233.312-8h-16.49c1.294,7.606,2.735,16.819,4.251,24.286c-1.426,2.397-6.493,3.08-9.06,2.665
			c0.277,6.509-0.574,12.169-2.331,17.049h15.525c3.247-8.637,6.78-20.54,7.589-30.908C233.065,1.624,233.361-3.195,233.312-8z"/>
		<path fill="#FFFFFF" d="M163.51-7.166c0.287-0.448,0.836-0.707,1.541-0.834h-4.116C161.12-7.507,163.083-7.863,163.51-7.166z"/>
		<path fill="#FFFFFF" d="M104.884-6.631c4.135,0.656,2.81,6.783,6.924,7.46c-6.753,1.242-15.81,0.18-23.449,0.532
			c19.78,1.709,34.342-0.811,53.828,0c-3.2-1.235-8.701-0.181-12.79-0.532c1.332-0.944,0.577-0.68,0.535-2.665
			c2.679,1.523,6.698-1.392,10.125-3.198c-0.666-1.142-2.186,1.325-3.729,1.065c2.758-3.021,6.848-3.547,10.689-4.031h-41.665
			C105.396-7.564,105.202-7.065,104.884-6.631z"/>
		<path fill="#FFFFFF" d="M152.316,31.208C149.635,27.771,146.31,31.099,152.316,31.208L152.316,31.208z"/>
		<path fill="#FFFFFF" d="M161.91-6.1c-0.793-1.148-1.505,0.582-2.135-1.066c-5.634,1.224,1.302,1.762,2.669,2.132
			C158.904-5.869,163.289-5.825,161.91-6.1z"/>
		<path fill="#FFFFFF" d="M70.769,1.361c2.03-0.251,3.328,0.226,3.733,1.601c-1.217-0.151-2.004,0.126-2.133,1.066
			c0.889,0,1.777,0,2.664,0c-0.87-2.548,3.241-3.751,0-2.667C74.969,0.317,69.138,0.712,70.769,1.361z"/>
		<path fill="#FFFFFF" d="M100.086,10.423c-6.188-5.502-15.068-7.699-24.519-6.395C84.935,4.61,95.077,7.256,100.086,10.423z"/>
		<path fill="#FFFFFF" d="M65.441,5.626c0.128,0.579,0.877,1.278,1.064,0.532C65.557,5.9,66.737,5.59,67.041,5.092
			c-2.842,0-5.686,0-8.529,0C57.805,6.185,63.535,5.381,65.441,5.626z"/>
		<path fill="#FFFFFF" d="M90.492,8.291c2.373,0.081,6.823,3.281,6.396,2.665C95.892,9.272,92.43,7.261,90.492,8.291z"/>
		<path fill="#FFFFFF" d="M23.336,13.088c0.967-1.342,3.106-1.516,3.73-3.199C24.936,9.737,22.858,12.401,23.336,13.088z"/>
		<path fill="#FFFFFF" d="M86.761,24.279c0.141,2.292-1.205-0.15-1.066-1.065c-0.927-0.039-1.658,0.119-2.131,0.534
			c0.465-1.241,0.465-1.428,0-2.666c-1.363,0.281-1.867,0.705-2.666-0.531c1.764-0.521-0.596-1.054-0.535-1.6
			c1.679,0.609,1.298-0.839,2.135-1.068c-0.37,1.788,0.894,1.949,2.13,2.134c-0.218-1.283,0.972-1.157,0.532-2.666
			c-1.725-0.658-0.406,1.725-2.131,1.065c0.84-1.41,0.594-1.654-1.065-1.065c1-1.017-0.315-0.964,0-2.665
			c-3.079-0.401-2.205-4.423-6.397-4.797c3.256,12.63-10.062,11.695-16.522,10.128c0.161-0.868-0.72-1.438-1.065-0.533
			c0.94,0.481,1.651,1.192,2.134,2.132c3.119-1.826,7.528,5.208,9.06,1.599c0.048,0.841,1.357,0.417,1.065,1.6
			c-3.677,0.008-9.34,0.152-9.595-1.6c-0.221,1.817-2.921-0.808-2.664,0.534c1.863,1.22-1.667,1.481-1.601,2.663
			c5.175,2.858,8.876,3.521,14.924,3.201c-0.767-1.184-1.3,0.669-1.599-0.535c0.535,0,0.636-0.432,1.065-0.532
			c2.559,2.653,4.899,0.059,10.661,0c0.493-1.285,0.974-2.581,1.6-3.731c-0.44,3.414,2.271-1.245,3.198,1.598
			c-0.414,0.12-1.051,0.018-1.067,0.531C86.67,27.339,88.317,25.193,86.761,24.279z"/>
		<path fill="#FFFFFF" d="M159.775,10.956c2.216,0.073,0.109,0.351,0,1.067c1.549,1.036,1.384,1.756,3.734,1.064
			c-0.68-1.333,0.272-1.667-0.533-2.132c-0.259,0.63-0.569,1.208-1.066,1.598c-0.616-0.786-0.616-1.341,0-2.131
			C161.112,10.515,159.941,10.232,159.775,10.956z"/>
		<path fill="#FFFFFF" d="M27.066,11.489c-7.853,3.545-9.61,13.819-7.992,24.511h0.377C18.6,25.113,21.435,15.828,27.066,11.489z"/>
		<path fill="#FFFFFF" d="M99.018,30.677c0.461-3.279,2.887-7.41,1.6-10.66C100.515,23.381,98.139,29.85,99.018,30.677z"/>
		<path fill="#FFFFFF" d="M64.375,35.472c-2.706-0.612-3.704-1.529-5.863-1.596c-0.62,2.039,1.861,0.979,2.137,2.124h5.849
			c0.219-0.315,0.445-0.624,0.543-1.061c1.506-0.44,1.381,0.75,2.664,0.532c1.148,1.392-2.111-0.688-2.604,0.528h5.77
			c-1.935-0.184-2.847-1.393-4.23-2.124C67.575,35.827,61.957,33.309,64.375,35.472z"/>
		<path fill="#FFFFFF" d="M49.451,32.809c0.612,0.166,3.52,1.042,2.132,0c-1.509-0.557-2.22-0.557-3.73,0
			c-0.003-0.536,0.431-0.634,0.531-1.066c-3.114-1.455-5.051,1.777-6.926,1.066c1.333,0.089,1.667-0.82,2.131-1.601
			c-2.89,0.434-0.648-1.55,0-2.131c-1.531-0.424-2.83-1.079-4.264-1.6c-1.517,3.158-7.615,7.842-3.198,6.927
			c0.055,0.441-0.183,1.03-0.503,1.596h2.008c0.354-0.389,0.578-0.772,0.627-1.061c0.697,0.808,1.53-1.054,3.2,0
			c-0.107,0.424-0.295,0.767-0.532,1.061h12.074C51.479,35.272,49.92,34.587,49.451,32.809z"/>
		<path fill="#FFFFFF" d="M57.445,33.344c-2.212,0.091-2.93-0.927-4.264,0.532c1.85-0.108,2.182,0.972,2.299,2.124h3.2
			c-1.199-0.455-2.241-1.066-3.364-1.596C56.529,34.556,57.319,34.278,57.445,33.344z"/>
		<path fill="#FFFFFF" d="M77.167,33.344c-1.308,0.708,0.958,1.606-0.534,2.128c-2.384-0.2-0.306-2.833-2.13-2.663
			c-0.304,0.932,0.632,3.11-0.522,3.191h2.797C77.316,35.254,77.58,34.391,77.167,33.344z"/>
		<path fill="#FFFFFF" d="M96.334,36h0.15c0.145-0.531,0.285-1.063,0.403-1.596C96.713,34.946,96.524,35.474,96.334,36z"/>
	</g>
</g>
<g id="Layer_5" display="none">
	<rect x="-19" y="-8" display="inline" fill="#2C8EFF" width="282" height="44"/>
</g>
<g id="Layer_6" display="none">
	<g id="Layer_7" display="inline">
	</g>
	<polygon display="inline" fill="none" stroke="#262426" stroke-miterlimit="10" points="235.058,31.298 224.563,31.302 
		219.313,22.584 224.558,13.863 235.052,13.861 240.302,22.577 	"/>
	<polygon display="inline" fill="none" stroke="#262426" stroke-miterlimit="10" points="250.675,22.578 240.18,22.582 
		234.931,13.864 240.174,5.145 250.669,5.141 255.919,13.858 	"/>
	<polygon display="inline" fill="none" stroke="#262426" stroke-miterlimit="10" points="235.058,13.858 224.563,13.862 
		219.313,5.145 224.558,-3.576 235.052,-3.579 240.302,5.138 	"/>
	
		<image overflow="visible" width="1240" height="554" xlink:href="8A789F8E.jpg"  transform="matrix(0.2297 0 0 0.2297 -20.3955 -52)">
	</image>
	
		<line display="inline" opacity="0.1" fill="none" stroke="#262426" stroke-width="0.25" stroke-miterlimit="10" x1="-19" y1="-8" x2="263" y2="-8"/>
	
		<line display="inline" opacity="0.1" fill="none" stroke="#262426" stroke-width="0.25" stroke-miterlimit="10" x1="-19" y1="-6.667" x2="263" y2="-6.667"/>
	
		<line display="inline" opacity="0.1" fill="none" stroke="#262426" stroke-width="0.25" stroke-miterlimit="10" x1="-19" y1="-5.333" x2="263" y2="-5.333"/>
	
		<line display="inline" opacity="0.1" fill="none" stroke="#262426" stroke-width="0.25" stroke-miterlimit="10" x1="-19" y1="-4" x2="263" y2="-4"/>
	
		<line display="inline" opacity="0.1" fill="none" stroke="#262426" stroke-width="0.25" stroke-miterlimit="10" x1="-19" y1="-2.667" x2="263" y2="-2.667"/>
	
		<line display="inline" opacity="0.1" fill="none" stroke="#262426" stroke-width="0.25" stroke-miterlimit="10" x1="-19" y1="-1.333" x2="263" y2="-1.333"/>
	
		<line display="inline" opacity="0.1" fill="none" stroke="#262426" stroke-width="0.25" stroke-miterlimit="10" x1="-19" y1="0" x2="263" y2="0"/>
	
		<line display="inline" opacity="0.1" fill="none" stroke="#262426" stroke-width="0.25" stroke-miterlimit="10" x1="-19" y1="1.333" x2="263" y2="1.333"/>
	
		<line display="inline" opacity="0.1" fill="none" stroke="#262426" stroke-width="0.25" stroke-miterlimit="10" x1="-19" y1="2.667" x2="263" y2="2.667"/>
	
		<line display="inline" opacity="0.1" fill="none" stroke="#262426" stroke-width="0.25" stroke-miterlimit="10" x1="-19" y1="4" x2="263" y2="4"/>
	
		<line display="inline" opacity="0.1" fill="none" stroke="#262426" stroke-width="0.25" stroke-miterlimit="10" x1="-19" y1="5.333" x2="263" y2="5.333"/>
	
		<line display="inline" opacity="0.1" fill="none" stroke="#262426" stroke-width="0.25" stroke-miterlimit="10" x1="-19" y1="6.667" x2="263" y2="6.667"/>
	
		<line display="inline" opacity="0.1" fill="none" stroke="#262426" stroke-width="0.25" stroke-miterlimit="10" x1="-19" y1="8" x2="263" y2="8"/>
	
		<line display="inline" opacity="0.1" fill="none" stroke="#262426" stroke-width="0.25" stroke-miterlimit="10" x1="-19" y1="9.333" x2="263" y2="9.333"/>
	
		<line display="inline" opacity="0.1" fill="none" stroke="#262426" stroke-width="0.25" stroke-miterlimit="10" x1="-19" y1="10.667" x2="263" y2="10.667"/>
	
		<line display="inline" opacity="0.1" fill="none" stroke="#262426" stroke-width="0.25" stroke-miterlimit="10" x1="-19" y1="12" x2="263" y2="12"/>
	
		<line display="inline" opacity="0.1" fill="none" stroke="#262426" stroke-width="0.25" stroke-miterlimit="10" x1="-19" y1="13.333" x2="263" y2="13.333"/>
	
		<line display="inline" opacity="0.1" fill="none" stroke="#262426" stroke-width="0.25" stroke-miterlimit="10" x1="-19" y1="14.667" x2="263" y2="14.667"/>
	
		<line display="inline" opacity="0.1" fill="none" stroke="#262426" stroke-width="0.25" stroke-miterlimit="10" x1="-19" y1="16" x2="263" y2="16"/>
	
		<line display="inline" opacity="0.1" fill="none" stroke="#262426" stroke-width="0.25" stroke-miterlimit="10" x1="-19" y1="17.333" x2="263" y2="17.333"/>
	
		<line display="inline" opacity="0.1" fill="none" stroke="#262426" stroke-width="0.25" stroke-miterlimit="10" x1="-19" y1="18.667" x2="263" y2="18.667"/>
	
		<line display="inline" opacity="0.1" fill="none" stroke="#262426" stroke-width="0.25" stroke-miterlimit="10" x1="-19" y1="20" x2="263" y2="20"/>
	
		<line display="inline" opacity="0.1" fill="none" stroke="#262426" stroke-width="0.25" stroke-miterlimit="10" x1="-19" y1="21.333" x2="263" y2="21.333"/>
	
		<line display="inline" opacity="0.1" fill="none" stroke="#262426" stroke-width="0.25" stroke-miterlimit="10" x1="-19" y1="22.667" x2="263" y2="22.667"/>
	
		<line display="inline" opacity="0.1" fill="none" stroke="#262426" stroke-width="0.25" stroke-miterlimit="10" x1="-19" y1="24" x2="263" y2="24"/>
	
		<line display="inline" opacity="0.1" fill="none" stroke="#262426" stroke-width="0.25" stroke-miterlimit="10" x1="-19" y1="25.333" x2="263" y2="25.333"/>
	
		<line display="inline" opacity="0.1" fill="none" stroke="#262426" stroke-width="0.25" stroke-miterlimit="10" x1="-19" y1="36" x2="263" y2="36"/>
	
		<line display="inline" opacity="0.1" fill="none" stroke="#262426" stroke-width="0.25" stroke-miterlimit="10" x1="-19" y1="26.667" x2="263" y2="26.667"/>
	
		<line display="inline" opacity="0.1" fill="none" stroke="#262426" stroke-width="0.25" stroke-miterlimit="10" x1="-19" y1="28" x2="263" y2="28"/>
	
		<line display="inline" opacity="0.1" fill="none" stroke="#262426" stroke-width="0.25" stroke-miterlimit="10" x1="-19" y1="29.333" x2="263" y2="29.333"/>
	
		<line display="inline" opacity="0.1" fill="none" stroke="#262426" stroke-width="0.25" stroke-miterlimit="10" x1="-19" y1="30.667" x2="263" y2="30.667"/>
	
		<line display="inline" opacity="0.1" fill="none" stroke="#262426" stroke-width="0.25" stroke-miterlimit="10" x1="-19" y1="32" x2="263" y2="32"/>
	
		<line display="inline" opacity="0.1" fill="none" stroke="#262426" stroke-width="0.25" stroke-miterlimit="10" x1="-19" y1="33.333" x2="263" y2="33.333"/>
	
		<line display="inline" opacity="0.1" fill="none" stroke="#262426" stroke-width="0.25" stroke-miterlimit="10" x1="-19" y1="34.667" x2="263" y2="34.667"/>
</g>
<g id="Layer_4" display="none">
	<g>
		<path display="inline" fill="#FFFFFF" stroke="#262426" stroke-miterlimit="10" d="M-11.019,5.78h17.28v3.744h-6.768V23.06H-4.25
			V9.523h-6.768V5.78z"/>
		<path display="inline" fill="#FFFFFF" stroke="#262426" stroke-miterlimit="10" d="M24.069,5.78v3.744H11.877v3.023h9.816v3.744
			h-9.816v3.024h12.192v3.744H8.109V5.78H24.069z"/>
		<path display="inline" fill="#FFFFFF" stroke="#262426" stroke-miterlimit="10" d="M43.701,9.355v4.464
			c0,0.977-0.352,1.812-1.056,2.509c-0.704,0.695-1.544,1.043-2.52,1.043h-0.168l3.744,4.416v1.272h-3.84l-4.776-5.688l-4.944,0.024
			c0.048,0,0.072,0.048,0.072,0.144c-0.032,0-0.056-0.008-0.072-0.023v5.544h-3.72V5.804h13.704c0.976,0,1.816,0.348,2.52,1.044
			C43.349,7.543,43.701,8.38,43.701,9.355z M30.141,9.523v4.104h9.792V9.523H30.141z"/>
		<path display="inline" fill="#FFFFFF" stroke="#262426" stroke-miterlimit="10" d="M63.501,9.355v4.464
			c0,0.977-0.352,1.812-1.056,2.509c-0.704,0.695-1.544,1.043-2.52,1.043h-0.168l3.744,4.416v1.272h-3.84l-4.776-5.688l-4.944,0.024
			c0.048,0,0.072,0.048,0.072,0.144c-0.032,0-0.056-0.008-0.072-0.023v5.544h-3.72V5.804h13.704c0.976,0,1.816,0.348,2.52,1.044
			C63.149,7.543,63.501,8.38,63.501,9.355z M49.941,9.523v4.104h9.792V9.523H49.941z"/>
		<path display="inline" fill="#FFFFFF" stroke="#262426" stroke-miterlimit="10" d="M69.645,5.78h10.152
			c0.992,0,1.836,0.348,2.532,1.044c0.696,0.696,1.044,1.532,1.044,2.508V23.06h-3.768v-5.567h-9.792v5.567h-3.72V9.332
			c0-0.992,0.344-1.832,1.032-2.52C67.813,6.124,68.652,5.78,69.645,5.78z M69.813,13.748h9.792V9.523h-9.792V13.748z"/>
		<path display="inline" fill="#FFFFFF" stroke="#262426" stroke-miterlimit="10" d="M103.34,9.523H89.829v9.792h13.512v3.744
			h-13.68c-0.992,0-1.832-0.344-2.52-1.032c-0.688-0.688-1.032-1.527-1.032-2.52V9.332c0-0.992,0.344-1.832,1.032-2.52
			c0.688-0.688,1.528-1.032,2.52-1.032h13.68V9.523z"/>
		<path display="inline" fill="#FFFFFF" stroke="#262426" stroke-miterlimit="10" d="M119.781,5.78h3.719v17.28h-3.719v-6.769
			h-10.201v6.769h-3.72V5.78h3.72v6.767h10.201V5.78z"/>
		<path display="inline" fill="#FFFFFF" stroke="#262426" stroke-miterlimit="10" d="M129.861,5.78h10.15
			c0.992,0,1.836,0.348,2.533,1.044c0.695,0.696,1.043,1.532,1.043,2.508V23.06h-3.768v-5.567h-9.791v5.567h-3.721V9.332
			c0-0.992,0.344-1.832,1.031-2.52C128.027,6.124,128.869,5.78,129.861,5.78z M130.029,13.748h9.791V9.523h-9.791V13.748z"/>
		<path display="inline" fill="#FFFFFF" stroke="#262426" stroke-miterlimit="10" d="M159.838,17.3V5.78h3.768v17.28h-3.84
			l-9.721-11.568V23.06h-3.721V5.78h3.84L159.838,17.3z"/>
		<path display="inline" fill="#FFFFFF" stroke="#262426" stroke-miterlimit="10" d="M166.316,23.06V5.78h3.744v17.28H166.316z"/>
		<path display="inline" fill="#FFFFFF" stroke="#262426" stroke-miterlimit="10" d="M188.805,9.523h-13.512v9.792h13.512v3.744
			h-13.68c-0.994,0-1.834-0.344-2.521-1.032c-0.688-0.688-1.031-1.527-1.031-2.52V9.332c0-0.992,0.344-1.832,1.031-2.52
			c0.688-0.688,1.527-1.032,2.521-1.032h13.68V9.523z"/>
		<path display="inline" fill="#FFFFFF" stroke="#262426" stroke-miterlimit="10" d="M208.459,9.332v1.608h-3.768V9.523H194.9v3.023
			h10.008c0.975,0,1.811,0.349,2.508,1.045c0.695,0.695,1.043,1.532,1.043,2.508v3.408c0,0.977-0.348,1.812-1.043,2.508
			c-0.697,0.696-1.533,1.044-2.508,1.044h-10.176c-0.977,0-1.813-0.344-2.51-1.032c-0.695-0.688-1.043-1.527-1.043-2.52v-1.608
			h3.721v1.416h9.791v-3.024h-9.959c-0.977,0-1.813-0.344-2.51-1.031c-0.695-0.688-1.043-1.527-1.043-2.52V9.332
			c0-0.992,0.348-1.832,1.043-2.52c0.697-0.688,1.533-1.032,2.51-1.032h10.176c0.975,0,1.811,0.348,2.508,1.044
			C208.111,7.52,208.459,8.356,208.459,9.332z"/>
	</g>
</g>
</svg>
