<?xml version="1.0" encoding="utf-8"?>
<!-- Generator: Adobe Illustrator 16.0.3, SVG Export Plug-In . SVG Version: 6.00 Build 0)  -->
<!DOCTYPE svg PUBLIC "-//W3C//DTD SVG 1.1//EN" "http://www.w3.org/Graphics/SVG/1.1/DTD/svg11.dtd">
<svg version="1.1" xmlns="http://www.w3.org/2000/svg" xmlns:xlink="http://www.w3.org/1999/xlink" x="0px" y="0px" width="282px"
	 height="44px" viewBox="0 0 282 44" enable-background="new 0 0 282 44" xml:space="preserve">
<g id="Layer_3">
	<rect fill="#FFFFFF" width="282" height="44"/>
</g>
<g id="Layer_1">
	<g>
		<path fill="#E14E3B" d="M97.729,31.958c0,0,1.534-9.25,1.579-9.473c0.046-0.224,0.288-1.649,1.878-1.793
			c1.321-0.117,7.468-1.066,7.468-1.066s1.464-0.056,1.664-2.219c0.385-2.433,0.769-4.182,0.769-4.182s0.168-1.768,2.386-1.981
			c2.219-0.213,3.204-0.238,3.204-0.238s1.093,0.123,1.622-1.75c0.532-1.884,0.64-2.859,0.64-2.859s0.212-0.963,1.322-1.433
			c1.147-0.083,5.25,0.025,5.25,0.025s-2.561,0.384-2.817,2.091c-0.255,1.707-0.521,2.891-0.521,2.891s-0.076,1.505-2.209,1.633
			c-2.134,0.128-2.476,0.128-2.945,0.256s-1.579,0.427-1.75,1.963c-0.171,1.537-0.812,4.908-0.812,4.908s-0.17,1.92-1.962,2.134
			c-1.792,0.213-7.127,1.024-7.127,1.024s-1.409,0.17-1.707,2.092c-0.299,1.92-1.75,10.241-1.75,10.241L97.729,31.958z"/>
		<path fill="#E14E3B" d="M92.394,28.972l2.006-8.578c0,0,0.214-1.365,1.92-1.707c1.707-0.341,5.036-0.384,6.316-0.853
			c1.28-0.47,1.195-0.982,1.536-2.134c0.342-1.152,0.769-3.414,1.067-3.969c0.299-0.554,0.939-1.537,2.603-1.665
			c1.665-0.128,2.261-0.213,2.261-0.213s1.11,0.042,1.495-1.622c0.3-1.302,0.683-2.305,0.683-2.305s0.381-0.863,1.109-0.938
			c0.597-0.043,3.969,0,3.969,0s-2.219,0.128-2.731,2.518c-0.609,2.377-0.663,2.458-1.28,2.731
			c-0.729,0.319-1.877,0.256-1.877,0.256s-2.269-0.099-2.988,1.366c-0.768,1.622-1.622,5.505-1.622,5.505s-0.162,1.534-2.347,1.621
			c-2.091,0.257-5.847,0.769-5.847,0.769s-1.09,0.113-1.494,1.578c-0.458,1.668-2.006,9.177-2.006,9.177L92.394,28.972z"/>
		<path fill="#E14E3B" d="M87.913,26.538l2.348-8.362c0,0,0.455-1.324,2.39-1.452c1.705-0.114,4.865-0.47,4.865-0.47
			s0.854,0.086,1.366-1.664s1.28-3.755,1.28-3.755s0.384-1.195,2.091-1.323c1.707-0.128,2.005-0.171,2.133-0.214
			c0.128-0.042,0.555,0.085,1.366-1.877c0.811-1.963,1.755-2.273,2.048-2.39c0.257-0.213,3.101-0.067,3.101-0.067
			s-1.351,0.196-1.906,1.646c-0.555,1.452-0.896,2.859-2.475,3.03c-1.579,0.17-2.646,0.341-2.646,0.341s-1.195,0.171-1.58,1.793
			c-0.383,1.622-1.323,4.396-1.323,4.396s-0.171,0.938-1.877,0.981c-1.707,0.043-4.651,0.427-4.651,0.427s-1.537,0.128-2.091,2.005
			c-0.555,1.878-2.134,8.236-2.134,8.236L87.913,26.538z"/>
		<path fill="#E14E3B" d="M83.475,24.063l2.348-7.083c0,0,0.643-1.446,2.432-1.494c1.72-0.045,3.28-0.023,4.695-0.384
			c1.049-0.267,1.323-1.067,1.323-1.067s1.537-3.798,2.134-4.31C96.589,9.568,96.576,9.128,98.71,9
			c1.295-0.078,1.758,0.219,2.432-0.725c0.214-0.299,0.726-1.622,1.366-2.391c0.58-0.695,0.938-0.811,1.237-0.853
			s2.091-0.042,2.091-0.042s-1.136,0.395-1.479,1.021c-0.33,0.603-1.167,2.223-1.295,2.351c-0.166,0.165-0.171,0.896-1.921,1.024
			c-1.749,0.128-2.048,0.128-2.773,0.939c-0.725,0.811-0.854,2.902-1.75,4.268c-0.576,0.863-0.898,0.998-2.476,1.237
			c-1.544,0.203-3.926,0.213-4.779,0.598c-0.853,0.384-1.024,0.769-1.323,1.451c-0.298,0.684-2.219,7.553-2.219,7.553L83.475,24.063
			z"/>
		<path fill="none" d="M87.913,26.538"/>
		<g>
			<polygon fill="#FFFFFF" points="83.475,24.063 101.911,34.221 101.826,34.899 83.125,24.571 			"/>
		</g>
		<g>
			<path fill="#E14E3B" d="M84.276,25.475l-1.891,3.447c-0.217,0.396-0.162,0.8,0.241,1.021c0.44,0.24,0.773,0.052,1.023-0.403
				l1.858-3.387l1.137,0.622l-1.806,3.293c-0.604,1.101-1.542,1.473-2.73,0.82c-1.041-0.571-1.467-1.482-0.783-2.729l1.814-3.306
				L84.276,25.475z"/>
			<path fill="#E14E3B" d="M85.85,31.022c0.264,0.65,0.465,0.942,0.766,1.108c0.271,0.148,0.559,0.076,0.691-0.166
				c0.402-0.731-0.858-2.139-0.189-3.356c0.394-0.719,1.323-0.936,2.137-0.487c0.359,0.196,0.651,0.481,0.924,0.907l-0.515,0.938
				c-0.346-0.552-0.521-0.753-0.771-0.891c-0.271-0.147-0.539-0.113-0.652,0.092c-0.325,0.594,0.896,2.209,0.245,3.396
				c-0.438,0.8-1.392,1.059-2.22,0.605c-0.389-0.215-0.691-0.532-1.007-1.068L85.85,31.022z"/>
			<path fill="#E14E3B" d="M92.11,35.889c-0.482,0.079-0.895-0.004-1.371-0.266c-1.195-0.656-1.492-2.097-0.647-3.637
				c0.869-1.585,2.236-2.179,3.468-1.504c0.389,0.214,0.725,0.521,0.977,0.898l-0.528,0.96c-0.25-0.415-0.448-0.626-0.697-0.764
				c-0.652-0.358-1.421-0.121-2.025,0.979c-0.583,1.063-0.52,1.853,0.185,2.237c0.293,0.161,0.719,0.185,1.175,0.121L92.11,35.889z"
				/>
			<path fill="#E14E3B" d="M95.958,31.884l1.635,0.897c1.026,0.563,1.295,1.464,0.845,2.286c-0.31,0.563-0.756,0.787-1.487,0.71
				c0.311,0.495-0.129,1.713-0.287,3.01l-1.181-0.647l0.244-1.088c0.28-1.258,0.255-1.387-0.222-1.647l-1.158,2.111l-1.137-0.624
				L95.958,31.884z M96.339,34.736c0.381,0.209,0.729,0.132,0.947-0.265c0.217-0.395,0.097-0.68-0.322-0.91l-0.344-0.189
				l-0.64,1.168L96.339,34.736z"/>
			<path fill="#E14E3B" d="M100.453,34.351l1.137,0.624l-2.748,5.008l-1.137-0.623L100.453,34.351z"/>
		</g>
	</g>
</g>
<g id="Layer_2">
	<g>
		<path fill="#231F20" d="M109.681,26.817h4.292v0.863h-3.264v2.649h3.015v0.852h-3.015v3.606h-1.029V26.817z"/>
		<path fill="#231F20" d="M122.255,30.72c0,2.744-1.667,4.198-3.702,4.198c-2.105,0-3.583-1.632-3.583-4.044
			c0-2.531,1.573-4.187,3.701-4.187C120.848,26.688,122.255,28.355,122.255,30.72z M116.07,30.851c0,1.702,0.922,3.228,2.542,3.228
			c1.632,0,2.555-1.501,2.555-3.311c0-1.585-0.828-3.24-2.543-3.24C116.921,27.527,116.07,29.1,116.07,30.851z"/>
		<path fill="#231F20" d="M123.596,26.924c0.52-0.106,1.265-0.165,1.975-0.165c1.1,0,1.81,0.201,2.306,0.65
			c0.402,0.354,0.626,0.898,0.626,1.514c0,1.052-0.662,1.75-1.501,2.034v0.035c0.615,0.213,0.981,0.78,1.17,1.608
			c0.26,1.111,0.45,1.88,0.615,2.188h-1.064c-0.13-0.225-0.308-0.91-0.532-1.904c-0.236-1.1-0.662-1.514-1.596-1.549h-0.97v3.453
			h-1.029V26.924z M124.625,30.555h1.052c1.1,0,1.797-0.604,1.797-1.514c0-1.029-0.745-1.479-1.833-1.49
			c-0.497,0-0.851,0.047-1.017,0.095V30.555z"/>
		<path fill="#231F20" d="M132.469,26.924c0.52-0.106,1.265-0.165,1.975-0.165c1.1,0,1.81,0.201,2.306,0.65
			c0.402,0.354,0.626,0.898,0.626,1.514c0,1.052-0.662,1.75-1.501,2.034v0.035c0.615,0.213,0.981,0.78,1.17,1.608
			c0.26,1.111,0.45,1.88,0.615,2.188h-1.064c-0.13-0.225-0.308-0.91-0.532-1.904c-0.236-1.1-0.662-1.514-1.596-1.549h-0.97v3.453
			h-1.029V26.924z M133.498,30.555h1.052c1.1,0,1.797-0.604,1.797-1.514c0-1.029-0.745-1.479-1.833-1.49
			c-0.497,0-0.851,0.047-1.017,0.095V30.555z"/>
		<path fill="#231F20" d="M142.962,31.051h-3.098v2.874h3.453v0.863h-4.481v-7.971h4.304v0.863h-3.275v2.52h3.098V31.051z"/>
		<path fill="#231F20" d="M144.656,26.817h4.292v0.863h-3.264v2.649h3.016v0.852h-3.016v3.606h-1.028V26.817z"/>
		<path fill="#231F20" d="M151.447,26.817v4.719c0,1.785,0.792,2.542,1.856,2.542c1.183,0,1.939-0.78,1.939-2.542v-4.719h1.04v4.647
			c0,2.448-1.289,3.453-3.016,3.453c-1.632,0-2.861-0.934-2.861-3.405v-4.695H151.447z"/>
		<path fill="#231F20" d="M164.14,34.434c-0.461,0.165-1.372,0.438-2.447,0.438c-1.207,0-2.2-0.308-2.98-1.053
			c-0.686-0.662-1.111-1.727-1.111-2.968c0.012-2.377,1.644-4.115,4.316-4.115c0.922,0,1.644,0.2,1.986,0.366l-0.248,0.84
			c-0.426-0.189-0.958-0.344-1.763-0.344c-1.939,0-3.204,1.207-3.204,3.205c0,2.022,1.218,3.217,3.074,3.217
			c0.674,0,1.136-0.095,1.372-0.213V31.43h-1.62v-0.828h2.625V34.434z"/>
		<path fill="#231F20" d="M169.844,31.051h-3.098v2.874h3.453v0.863h-4.482v-7.971h4.305v0.863h-3.275v2.52h3.098V31.051z"/>
		<path fill="#231F20" d="M175.665,31.051h-3.098v2.874h3.453v0.863h-4.482v-7.971h4.305v0.863h-3.275v2.52h3.098V31.051z"/>
		<path fill="#231F20" d="M177.217,33.534c0.462,0.284,1.136,0.521,1.845,0.521c1.053,0,1.668-0.556,1.668-1.359
			c0-0.745-0.426-1.171-1.502-1.585c-1.301-0.461-2.105-1.136-2.105-2.259c0-1.241,1.029-2.164,2.578-2.164
			c0.816,0,1.407,0.189,1.763,0.391l-0.284,0.839c-0.261-0.142-0.792-0.378-1.514-0.378c-1.088,0-1.502,0.65-1.502,1.194
			c0,0.745,0.484,1.111,1.585,1.537c1.348,0.521,2.033,1.171,2.033,2.342c0,1.229-0.91,2.294-2.79,2.294
			c-0.769,0-1.608-0.225-2.034-0.509L177.217,33.534z"/>
		<path fill="#231F20" d="M186.99,32.281l-0.828,2.507h-1.064l2.708-7.971h1.242l2.72,7.971h-1.1l-0.852-2.507H186.99z
			 M189.604,31.477l-0.78-2.294c-0.178-0.521-0.296-0.993-0.414-1.454h-0.023c-0.118,0.473-0.249,0.958-0.402,1.442l-0.78,2.306
			H189.604z"/>
		<path fill="#231F20" d="M192.941,34.788v-7.971h1.124l2.554,4.033c0.592,0.934,1.053,1.773,1.432,2.59l0.023-0.013
			c-0.095-1.063-0.118-2.033-0.118-3.275v-3.335h0.97v7.971h-1.041l-2.53-4.044c-0.557-0.888-1.088-1.798-1.49-2.661l-0.035,0.012
			c0.059,1.005,0.082,1.963,0.082,3.288v3.405H192.941z"/>
		<path fill="#231F20" d="M200.728,26.924c0.627-0.095,1.372-0.165,2.188-0.165c1.478,0,2.53,0.343,3.228,0.993
			c0.71,0.65,1.124,1.572,1.124,2.861c0,1.301-0.402,2.365-1.147,3.099c-0.745,0.745-1.975,1.147-3.523,1.147
			c-0.733,0-1.349-0.036-1.869-0.095V26.924z M201.757,33.972c0.26,0.048,0.639,0.06,1.04,0.06c2.2,0,3.395-1.229,3.395-3.382
			c0.012-1.881-1.053-3.075-3.229-3.075c-0.532,0-0.935,0.048-1.206,0.106V33.972z"/>
		<path fill="#231F20" d="M212.145,26.817v7.971h-1.029v-7.971H212.145z"/>
		<path fill="#231F20" d="M220.66,31.288c-0.059-1.112-0.13-2.448-0.118-3.441h-0.035c-0.271,0.934-0.604,1.928-1.005,3.027
			l-1.407,3.867h-0.781l-1.288-3.797c-0.379-1.123-0.698-2.151-0.923-3.098h-0.023c-0.023,0.993-0.083,2.329-0.154,3.523
			l-0.213,3.418h-0.981l0.556-7.971h1.313l1.359,3.855c0.331,0.981,0.604,1.856,0.805,2.685h0.035
			c0.201-0.805,0.484-1.68,0.84-2.685l1.419-3.855h1.313l0.497,7.971h-1.006L220.66,31.288z"/>
		<path fill="#231F20" d="M230.173,31.288c-0.059-1.112-0.13-2.448-0.118-3.441h-0.035c-0.272,0.934-0.604,1.928-1.005,3.027
			l-1.407,3.867h-0.781l-1.288-3.797c-0.379-1.123-0.698-2.151-0.923-3.098h-0.023c-0.023,0.993-0.083,2.329-0.154,3.523
			l-0.213,3.418h-0.981l0.556-7.971h1.313l1.359,3.855c0.331,0.981,0.604,1.856,0.805,2.685h0.035
			c0.201-0.805,0.484-1.68,0.84-2.685l1.419-3.855h1.313l0.497,7.971h-1.006L230.173,31.288z"/>
		<path fill="#231F20" d="M233.998,26.817v7.971h-1.029v-7.971H233.998z"/>
		<path fill="#231F20" d="M241.863,34.434c-0.461,0.165-1.371,0.438-2.447,0.438c-1.206,0-2.2-0.308-2.98-1.053
			c-0.686-0.662-1.111-1.727-1.111-2.968c0.012-2.377,1.644-4.115,4.316-4.115c0.922,0,1.644,0.2,1.986,0.366l-0.248,0.84
			c-0.426-0.189-0.958-0.344-1.762-0.344c-1.939,0-3.205,1.207-3.205,3.205c0,2.022,1.218,3.217,3.074,3.217
			c0.675,0,1.136-0.095,1.372-0.213V31.43h-1.62v-0.828h2.625V34.434z"/>
		<path fill="#231F20" d="M243.44,26.924c0.521-0.106,1.266-0.165,1.976-0.165c1.1,0,1.809,0.201,2.306,0.65
			c0.402,0.354,0.627,0.898,0.627,1.514c0,1.052-0.662,1.75-1.502,2.034v0.035c0.615,0.213,0.981,0.78,1.171,1.608
			c0.26,1.111,0.449,1.88,0.614,2.188h-1.064c-0.13-0.225-0.307-0.91-0.531-1.904c-0.237-1.1-0.663-1.514-1.597-1.549h-0.97v3.453
			h-1.029V26.924z M244.47,30.555h1.053c1.1,0,1.797-0.604,1.797-1.514c0-1.029-0.745-1.479-1.833-1.49
			c-0.496,0-0.852,0.047-1.017,0.095V30.555z"/>
		<path fill="#231F20" d="M251.153,32.281l-0.827,2.507h-1.064l2.708-7.971h1.241l2.72,7.971h-1.1l-0.852-2.507H251.153z
			 M253.767,31.477l-0.78-2.294c-0.177-0.521-0.296-0.993-0.414-1.454h-0.023c-0.118,0.473-0.248,0.958-0.402,1.442l-0.78,2.306
			H253.767z"/>
		<path fill="#231F20" d="M257.105,34.788v-7.971h1.124l2.554,4.033c0.592,0.934,1.053,1.773,1.432,2.59l0.023-0.013
			c-0.095-1.063-0.118-2.033-0.118-3.275v-3.335h0.97v7.971h-1.041l-2.53-4.044c-0.557-0.888-1.088-1.798-1.49-2.661l-0.035,0.012
			c0.059,1.005,0.082,1.963,0.082,3.288v3.405H257.105z"/>
		<path fill="#231F20" d="M266.405,27.692h-2.424v-0.875h5.9v0.875h-2.436v7.096h-1.041V27.692z"/>
		<path fill="#231F20" d="M270.56,33.534c0.461,0.284,1.135,0.521,1.845,0.521c1.053,0,1.667-0.556,1.667-1.359
			c0-0.745-0.425-1.171-1.501-1.585c-1.301-0.461-2.105-1.136-2.105-2.259c0-1.241,1.029-2.164,2.578-2.164
			c0.816,0,1.407,0.189,1.762,0.391l-0.283,0.839c-0.261-0.142-0.793-0.378-1.514-0.378c-1.088,0-1.502,0.65-1.502,1.194
			c0,0.745,0.484,1.111,1.584,1.537c1.349,0.521,2.034,1.171,2.034,2.342c0,1.229-0.91,2.294-2.791,2.294
			c-0.769,0-1.607-0.225-2.033-0.509L270.56,33.534z"/>
	</g>
	<g>
		<path fill="#231F20" d="M128.021,8.79v8.767c0,3.318,1.472,4.724,3.45,4.724c2.197,0,3.604-1.45,3.604-4.724V8.79h1.934v8.635
			c0,4.548-2.395,6.417-5.603,6.417c-3.032,0-5.317-1.736-5.317-6.329V8.79H128.021z"/>
		<path fill="#231F20" d="M139.206,22.457c0-0.813,0.549-1.385,1.318-1.385s1.296,0.572,1.296,1.385
			c0,0.791-0.505,1.385-1.318,1.385C139.733,23.842,139.206,23.248,139.206,22.457z"/>
		<path fill="#231F20" d="M144.018,21.271c0.856,0.527,2.109,0.967,3.428,0.967c1.955,0,3.098-1.032,3.098-2.526
			c0-1.385-0.791-2.176-2.79-2.945c-2.417-0.857-3.911-2.109-3.911-4.197c0-2.307,1.911-4.021,4.79-4.021
			c1.516,0,2.614,0.352,3.273,0.725l-0.527,1.56c-0.483-0.264-1.472-0.703-2.813-0.703c-2.021,0-2.79,1.208-2.79,2.219
			c0,1.384,0.9,2.065,2.944,2.856c2.505,0.967,3.779,2.175,3.779,4.351c0,2.285-1.692,4.263-5.186,4.263
			c-1.429,0-2.988-0.417-3.779-0.944L144.018,21.271z"/>
		<path fill="#231F20" d="M154.587,22.457c0-0.813,0.549-1.385,1.318-1.385c0.769,0,1.296,0.572,1.296,1.385
			c0,0.791-0.505,1.385-1.318,1.385C155.114,23.842,154.587,23.248,154.587,22.457z"/>
		<path fill="#231F20" d="M174.67,23.116c-0.703,0.352-2.109,0.703-3.911,0.703c-4.175,0-7.317-2.637-7.317-7.493
			c0-4.636,3.143-7.778,7.734-7.778c1.846,0,3.011,0.396,3.516,0.659l-0.461,1.56c-0.726-0.352-1.758-0.615-2.988-0.615
			c-3.472,0-5.779,2.219-5.779,6.108c0,3.626,2.088,5.954,5.691,5.954c1.164,0,2.351-0.241,3.12-0.615L174.67,23.116z"/>
		<path fill="#231F20" d="M189.261,16.041c0,5.098-3.099,7.801-6.878,7.801c-3.911,0-6.658-3.033-6.658-7.515
			c0-4.702,2.923-7.778,6.878-7.778C186.646,8.548,189.261,11.646,189.261,16.041z M177.769,16.283c0,3.165,1.714,5.999,4.724,5.999
			c3.032,0,4.747-2.791,4.747-6.152c0-2.944-1.539-6.021-4.725-6.021C179.351,10.108,177.769,13.031,177.769,16.283z"/>
		<path fill="#231F20" d="M204.225,17.096c-0.11-2.065-0.241-4.548-0.22-6.394h-0.066c-0.505,1.736-1.12,3.582-1.867,5.625
			l-2.615,7.185h-1.449l-2.396-7.053c-0.703-2.087-1.296-3.999-1.714-5.757h-0.044c-0.044,1.846-0.153,4.329-0.286,6.548
			l-0.395,6.35h-1.824l1.033-14.81h2.438l2.526,7.163c0.615,1.824,1.121,3.449,1.494,4.988h0.066c0.373-1.494,0.9-3.121,1.561-4.988
			l2.637-7.163h2.438l0.923,14.81h-1.867L204.225,17.096z"/>
		<path fill="#231F20" d="M221.891,17.096c-0.11-2.065-0.241-4.548-0.22-6.394h-0.066c-0.505,1.736-1.12,3.582-1.867,5.625
			l-2.615,7.185h-1.449l-2.396-7.053c-0.703-2.087-1.296-3.999-1.714-5.757h-0.044c-0.044,1.846-0.153,4.329-0.286,6.548
			l-0.395,6.35h-1.824l1.033-14.81h2.438l2.526,7.163c0.615,1.824,1.121,3.449,1.494,4.988h0.066c0.373-1.494,0.9-3.121,1.561-4.988
			l2.637-7.163h2.438l0.923,14.81h-1.867L221.891,17.096z"/>
		<path fill="#231F20" d="M228.989,8.79V23.6h-1.912V8.79H228.989z"/>
		<path fill="#231F20" d="M235.142,10.416h-4.504V8.79h10.964v1.626h-4.526V23.6h-1.934V10.416z"/>
		<path fill="#231F20" d="M246.897,10.416h-4.504V8.79h10.964v1.626h-4.526V23.6h-1.934V10.416z"/>
		<path fill="#231F20" d="M262.675,16.656h-5.758v5.34h6.416V23.6h-8.327V8.79h7.998v1.604h-6.087v4.68h5.758V16.656z"/>
		<path fill="#231F20" d="M273.485,16.656h-5.758v5.34h6.416V23.6h-8.327V8.79h7.998v1.604h-6.087v4.68h5.758V16.656z"/>
	</g>
</g>
</svg>
